<?xml version="1.0" standalone="no"?>
<!DOCTYPE svg PUBLIC "-//W3C//DTD SVG 1.1//EN" "http://www.w3.org/Graphics/SVG/1.1/DTD/svg11.dtd" >
<svg xmlns="http://www.w3.org/2000/svg">
<metadata></metadata>
<defs>
<font id="cormorant_uprightbook" horiz-adv-x="1499" >
<font-face units-per-em="2048" ascent="1485" descent="-563" />
<missing-glyph horiz-adv-x="479" />
<glyph unicode="&#xfb01;" horiz-adv-x="1036" d="M-92 -465q-3 30 18.5 49t57.5 19q37 0 60.5 -20t32 -43.5t25 -43.5t41.5 -20q19 0 29.5 14.5t15.5 63.5t4 128.5t-6 221.5l-22 723q-4 75 -28.5 92.5t-119.5 17.5q-6 0 -6.5 14.5t6.5 14.5q79 0 109.5 19t30.5 71q1 175 30 300t85 196t127.5 103t166.5 32 q110 0 177.5 -39.5t70.5 -95.5q0 -33 -20.5 -50.5t-53.5 -17.5t-57 17.5t-39.5 42t-31.5 49t-42 42t-61 17.5q-108 0 -164.5 -141t-46.5 -412l4 -125q174 1 331.5 9t178.5 8q26 0 31 -15q3 -9 2 -92q-1 -39 0 -76v-426q-3 -112 53 -112q42 0 123 88q5 3 11.5 1t11 -8 t1.5 -10q-63 -83 -112.5 -121t-106.5 -38q-123 0 -123 174l3 438q0 26 -1.5 43t-10 33t-19 25t-34.5 17t-49.5 11.5t-72 6.5t-93.5 4t-122 1l25 -778q9 -293 -43 -406.5t-195 -113.5q-84 0 -132 28.5t-50 69.5z" />
<glyph unicode="&#xfb02;" horiz-adv-x="1103" d="M-92 -465q-1 31 20 49.5t56 18.5q37 0 60.5 -20t32 -43.5t25 -43.5t41.5 -20q19 0 29.5 14.5t15.5 63.5t4 128.5t-6 221.5l-22 723q-4 76 -28 93t-120 17q-6 0 -6.5 14.5t6.5 14.5q79 0 109.5 19t30.5 71q-1 337 99 484t316 147q145 0 242 -57q52 32 55 94q0 5 7 6.5 t13.5 -0.5t6.5 -8l-8 -1340q-3 -112 53 -112q47 0 125 88q6 6 16.5 -2.5t5.5 -14.5q-63 -83 -112.5 -121t-106.5 -38q-123 0 -123 174l11 1134q-39 71 -103 116.5t-131 45.5q-240 0 -225 -553l4 -125q47 1 125 6t96 6q21 0 21 -20q-2 -21 -22 -46t-42 -22q-102 17 -176 21 l25 -762q9 -293 -43 -406.5t-195 -113.5q-84 0 -132 28.5t-50 69.5z" />
<glyph unicode="&#xfb03;" horiz-adv-x="1607" d="M-92 -465q-3 30 18.5 49t57.5 19q37 0 60.5 -20t32 -43.5t25 -43.5t41.5 -20q19 0 29.5 14.5t15.5 63.5t4 128.5t-6 221.5l-22 723q-4 75 -28 92.5t-118 17.5q-5 0 -7 7.5t-0.5 14.5t5.5 7q79 0 109.5 19t30.5 71q11 514 403 514q135 0 260 -57q99 174 320 174 q110 0 177 -39t70 -96q0 -33 -20 -50.5t-53 -17.5t-57 17.5t-40 42l-32 49t-42 42t-61 17.5q-108 0 -164.5 -141t-46.5 -412l4 -125q174 1 331.5 9t178.5 8q26 0 31 -15q3 -9 2 -92q-1 -39 0 -76v-426q-3 -112 53 -112q42 0 123 88q5 3 11.5 1t11.5 -8t2 -10 q-63 -83 -112.5 -121t-106.5 -38q-123 0 -123 174l2 438q0 26 -1.5 43t-10 33t-18.5 25t-34.5 17t-49.5 11.5t-71.5 6.5t-93.5 4t-122 1l24 -778q9 -293 -42.5 -406.5t-194.5 -113.5q-84 0 -132.5 28.5t-50.5 69.5q-3 30 18.5 49t57.5 19q31 0 51.5 -13t31 -31.5t19.5 -37.5 t23 -32t35 -13q19 0 29.5 14.5t15.5 63.5t4 128.5t-6 221.5l-23 723v4l-2 -4q-3 57 -23 72t-89 20q-102 6 -320 6l25 -768q9 -293 -43 -406.5t-195 -113.5q-84 0 -132 28.5t-50 69.5zM297 899l4 -131q239 0 307 4q64 1 92.5 21t28.5 63q0 172 33 311q-48 78 -113.5 123 t-136.5 45q-107 0 -161.5 -110.5t-53.5 -325.5z" />
<glyph unicode="&#xfb04;" horiz-adv-x="1675" d="M-92 -465q-3 30 18.5 49t57.5 19q37 0 60.5 -20t32 -43.5t25 -43.5t41.5 -20q19 0 29.5 14.5t15.5 63.5t4 128.5t-6 221.5l-22 723q-4 75 -28 92.5t-118 17.5q-5 0 -7 7.5t-0.5 14.5t5.5 7q79 0 109.5 19t30.5 71q11 514 403 514q130 0 254 -53q100 170 332 170 q144 0 241 -57q53 33 56 94q0 5 6.5 6.5t13 -0.5t6.5 -8l-8 -1340q-3 -112 53 -112q47 0 125 88q5 3 11 1t10.5 -8t1.5 -10q-63 -83 -112.5 -121t-106.5 -38q-123 0 -123 174l10 1134q-39 71 -102.5 116.5t-130.5 45.5q-241 0 -226 -553l4 -125q47 1 125.5 6t96.5 6 q20 0 20 -20q-2 -21 -21.5 -46t-41.5 -22q-102 17 -176 21l24 -762q9 -293 -42.5 -406.5t-194.5 -113.5q-84 0 -132.5 28.5t-50.5 69.5q-1 31 20 49.5t56 18.5q31 0 51.5 -13t31 -31.5t19.5 -37.5t23 -32t35 -13q19 0 29.5 14.5t15.5 63.5t4 128.5t-6 221.5l-23 723v4l-2 -4 q-3 57 -23 72t-89 20q-102 6 -320 6l25 -768q9 -293 -43 -406.5t-195 -113.5q-84 0 -132 28.5t-50 69.5zM297 899l4 -131q239 0 307 4q64 1 92.5 21t28.5 63q0 185 31 318q-51 75 -115 118t-133 43q-107 0 -161.5 -110.5t-53.5 -325.5z" />
<glyph horiz-adv-x="0" />
<glyph horiz-adv-x="682" />
<glyph unicode=" "  horiz-adv-x="479" />
<glyph unicode="&#x09;" horiz-adv-x="479" />
<glyph unicode="&#xa0;" horiz-adv-x="479" />
<glyph unicode="!" horiz-adv-x="516" d="M147 1266q-1 7 17 12t43 7.5t51 2.5q41 0 77.5 -6t33.5 -16q-62 -278 -93 -879q0 -7 -21.5 -7t-21.5 7q-11 214 -16.5 306.5t-24.5 271.5t-45 301zM154 78q0 44 27 70t73 26q47 0 72.5 -25.5t25.5 -70.5q0 -48 -25.5 -74.5t-72.5 -26.5q-46 0 -73 27t-27 74z" />
<glyph unicode="&#x22;" horiz-adv-x="567" d="M72 1245q-2 26 71 50q71 24 98 14q9 -3 7 -9l-113 -550q-2 -3 -8.5 -5t-12 -1.5t-5.5 4.5zM346 1245q-2 26 71 50q71 24 98 14q9 -3 7 -9l-112 -550q-2 -3 -8.5 -5t-12.5 -1.5t-6 4.5z" />
<glyph unicode="#" horiz-adv-x="1077" d="M120.5 220.5q1.5 21.5 6.5 21.5h154l55 319h-135q-6 0 -8 22t-0.5 44t6.5 22h153l60 338q3 5 22 4t41 -7.5t21 -12.5l-58 -322h297l60 338q3 5 22 4t41 -7.5t21 -12.5l-58 -322h127q9 0 9 -44t-9 -44h-143l-57 -319h129q9 0 9 -43t-9 -43h-144l-57 -322q-3 -4 -22 -3.5 t-40.5 5.5t-19.5 10l55 310h-299l-57 -322q-3 -4 -22 -3.5t-40.5 5.5t-19.5 10l55 310h-137q-6 0 -8 21.5t-0.5 43zM365 242h299l55 319h-297z" />
<glyph unicode="$" horiz-adv-x="849" d="M115 299q-1 6 4 9t11 2t7 -5q37 -108 111.5 -191.5t167.5 -97.5v418q-15 10 -37 21q-51 28 -75.5 42t-63.5 42.5t-58 53t-34 61t-15 77.5q0 108 80.5 174.5t202.5 75.5v168q0 15 25.5 15t25.5 -15v-166q117 -3 209 -47q31 -12 31 -37l10 -184q0 -8 -11 -9.5t-14 5.5 q-15 65 -76.5 138t-148.5 93v-379q3 -2 39 -20q37 -19 55.5 -29t51 -30t50 -34.5t40.5 -37.5t34.5 -44.5t20 -50.5t8.5 -61q0 -109 -81.5 -186.5t-217.5 -92.5v-186q0 -13 -25.5 -13t-25.5 13v184h-2q-77 0 -147.5 19t-116.5 53q-16 11 -19 41zM260 793q0 -67 40.5 -114 t115.5 -89v356q-75 -1 -115.5 -43.5t-40.5 -109.5zM467 12q68 5 115 46t47 122q0 73 -43 126.5t-119 99.5v-394z" />
<glyph unicode="%" horiz-adv-x="1175" d="M49 887q0 109 73 184.5t185 75.5q111 0 181.5 -77t70.5 -189q0 -110 -71.5 -185t-180.5 -75q-113 0 -185.5 76t-72.5 190zM166 18l760 1115q4 5 18.5 -2.5t26 -18t8.5 -14.5l-760 -1110q-2 -4 -16 2.5t-26.5 15.5t-10.5 12zM184 893q0 -246 138 -246q26 0 45 11.5 t30 29.5t17 47.5t8 59t2 71.5q0 254 -129 254q-33 0 -56 -17t-34.5 -50t-16 -71t-4.5 -89zM616 256q0 109 73.5 185.5t184.5 76.5q110 0 181 -77.5t71 -188.5t-71.5 -186.5t-180.5 -75.5q-111 0 -184.5 77t-73.5 189zM752 264q0 -246 137 -246q33 0 54 15.5t31 48t13.5 67.5 t3.5 89q0 251 -129 251q-33 0 -55.5 -17t-34 -50t-16 -70t-4.5 -88z" />
<glyph unicode="&#x26;" horiz-adv-x="1558" d="M149 420.5q-8 73.5 9 148.5q36 166 168.5 274.5t287.5 108.5q101 0 170 -49q115 128 115 225q0 31 -9.5 52t-23 32.5t-27 21.5t-23 26t-9.5 40q0 35 21.5 56.5t56.5 21.5q49 0 78.5 -42t29.5 -113q0 -53 -19 -108.5t-47 -103t-78.5 -104.5t-92.5 -98.5t-112 -99.5 t-114.5 -92.5t-121.5 -93t-113 -87.5q29 -165 146 -266.5t266 -101.5q177 0 300 127.5t152 359.5q-13 7 -55.5 29t-61.5 31.5t-52 23.5t-58.5 19.5t-48.5 5.5q-31 0 -47.5 -12t-16.5 -31q0 -21 19.5 -55.5t19.5 -53.5q0 -22 -14 -38.5t-43 -16.5q-26 0 -43 17t-17 54 q0 83 78 153.5t172 70.5q60 0 145 -39t165.5 -78t130.5 -39q27 0 43 10t16 27t-25.5 48.5t-25.5 57.5q0 25 15.5 38.5t43.5 13.5q60 0 60 -68q0 -84 -66.5 -154.5t-153.5 -70.5q-63 0 -143 41q-39 -274 -189.5 -419t-369.5 -145q-82 0 -156.5 23t-131 64t-101 97t-68 122 t-31.5 139.5zM291 475q34 28 113 90.5t143 115t117 99.5q-50 115 -156 115q-76 0 -133 -74.5t-78 -185.5q-15 -86 -6 -160z" />
<glyph unicode="'" horiz-adv-x="292" d="M72 1245q-2 26 71 50q71 24 98 14q9 -3 7 -9l-113 -550q-2 -3 -8.5 -5t-12 -1.5t-5.5 4.5z" />
<glyph unicode="(" horiz-adv-x="632" d="M119 623q0 291 116 522t326 340q3 2 7.5 -3t0.5 -9q-280 -280 -280 -850t280 -850q4 -3 -0.5 -9t-7.5 -4q-210 111 -326 341.5t-116 521.5z" />
<glyph unicode=")" horiz-adv-x="632" d="M61.5 1478q1.5 3 5 5.5t5.5 1.5q210 -111 326 -341t116 -521t-116.5 -522.5t-325.5 -340.5q-3 -2 -8 3.5t-1 9.5q281 281 281 850t-281 850q-3 2 -1.5 5z" />
<glyph unicode="*" horiz-adv-x="917" d="M112 829q-2 3 1 5l309 172q4 4 12 -2t6 -11l-145 -219q-14 -24 -106 12q-68 27 -77 43zM142 1222q5 77 18 85h4l260 -242q3 -3 2.5 -7t-3 -8t-5.5 -3l-256 67q-27 8 -20 108zM449 1346q-1 26 86 50q75 21 94 12q3 -2 2 -5l-148 -320q-1 -6 -10.5 -6t-9.5 6zM475 985 q-1 4 7.5 10.5t11.5 3.5l165 -206q18 -21 -43 -97q-45 -54 -64 -60q-4 -1 -5 3zM505.5 1040q-2.5 10 2.5 11l246 94q25 9 75 -66q42 -62 41 -85q0 -5 -4 -5l-352 41q-6 0 -8.5 10z" />
<glyph unicode="+" horiz-adv-x="815" d="M61.5 410q1.5 22 6.5 22h294v295q0 9 44.5 9t44.5 -9v-295h294q9 0 9 -44t-9 -44h-294v-293q0 -6 -22.5 -8t-44.5 -0.5t-22 6.5v295h-292q-6 0 -8 22t-0.5 44z" />
<glyph unicode="," horiz-adv-x="454" d="M102 76q0 44 27 68t78 24q67 0 103 -48t36 -140q0 -158 -151 -306q-5 -4 -11 -1.5t-7.5 7.5t1.5 9q101 104 101 241q0 56 -21 84q-18 -30 -68 -30q-41 0 -64.5 25t-23.5 67z" />
<glyph unicode="-" horiz-adv-x="577" d="M56 410.5q1 24.5 5 25.5l439 72q6 1 8 -22.5t0 -48t-8 -25.5l-434 -72q-6 -1 -8.5 22.5t-1.5 48z" />
<glyph unicode="." horiz-adv-x="411" d="M106 78q0 44 27.5 70t73.5 26q47 0 72.5 -25.5t25.5 -70.5q0 -48 -25.5 -74.5t-72.5 -26.5q-46 0 -73.5 27t-27.5 74z" />
<glyph unicode="/" horiz-adv-x="706" d="M53 -311l516 1806q2 3 11 3t22 -3.5t25 -8t19.5 -10t6.5 -8.5l-516 -1804q-3 -7 -44.5 5t-39.5 20z" />
<glyph unicode="0" horiz-adv-x="970" d="M57 401q4 183 125.5 299.5t306.5 116.5q184 0 302.5 -118t117.5 -304q0 -186 -119.5 -304t-302.5 -118q-185 0 -307.5 120.5t-122.5 307.5zM229 418q3 -178 80 -295t205 -117q115 0 172 99.5t55 265.5q-4 197 -81.5 305t-190.5 108t-177.5 -100.5t-62.5 -265.5z" />
<glyph unicode="1" horiz-adv-x="632" d="M64 636q-3 10 6 13l331 164q6 3 12.5 -0.5t6.5 -9.5l-2 -637q0 -90 34 -115.5t158 -25.5q9 0 9 -12.5t-9 -12.5q-31 0 -118.5 2t-141.5 2t-143.5 -2t-122.5 -2q-9 0 -9 12.5t9 12.5q119 0 154.5 26t35.5 115l2 389q0 37 -1.5 57.5t-8.5 38t-19 22t-34.5 2.5t-54 -14 t-78.5 -34q-12 -5 -16 9z" />
<glyph unicode="2" horiz-adv-x="823" d="M74 9q-6 9 0 16q262 225 355 337t93 216q0 81 -47.5 134.5t-124.5 53.5q-79 0 -134 -65t-95 -193q-2 -8 -17 -2q-8 3 -6 6l82 324q2 8 17 2q8 -4 6 -7q-11 -55 28 -55q14 0 84.5 20.5t130.5 20.5q107 0 168.5 -55t61.5 -144q0 -40 -16.5 -80.5t-39 -72t-69.5 -76 t-83.5 -74t-107 -86.5t-114.5 -94q-6 -6 -2.5 -10t12.5 -4q292 0 379 18.5t108 104.5q3 6 14 5t11 -7l-35 -219q0 -8 -5.5 -15.5t-12.5 -7.5h-627q-8 0 -14 9z" />
<glyph unicode="3" horiz-adv-x="765" d="M43 537l76 299q3 7 14.5 5t9.5 -10q-8 -30 2 -43.5t27 -13.5q15 0 85 21.5t126 21.5q117 0 182.5 -68t65.5 -165q-1 -88 -59.5 -166.5t-161.5 -138.5q130 -15 204 -95t74 -198q0 -150 -143 -281.5t-451 -267.5q-8 -3 -13.5 7.5t3.5 14.5q125 65 211 130t132 128t65.5 121 t19.5 123q0 116 -58.5 198.5t-164.5 82.5q-63 0 -103 -21q-7 -3 -12 7.5t0 13.5q76 39 180 39h19q96 99 96 268q0 100 -42.5 157.5t-129.5 57.5q-84 0 -140 -56.5t-89 -179.5q-1 -4 -7.5 -4t-12.5 3.5t-5 9.5z" />
<glyph unicode="4" horiz-adv-x="935" d="M24 28q-3 8 3 15l647 776q4 6 17.5 2.5t13.5 -10.5l2 -705q22 0 155 5q8 0 11 -26t0.5 -52.5t-9.5 -26.5q-153 6 -157 6v-336q0 -22 -17 -28l-108 -33q-21 -7 -21 14v387q-141 4 -524 4q-10 0 -13 8zM145 105q3 -5 11 -5q288 0 405 2v506l-414 -491q-5 -7 -2 -12z" />
<glyph unicode="5" horiz-adv-x="819" d="M100 367l66 364q1 8 3 12t8 7t18 4q349 41 413.5 55.5t79.5 56.5q3 7 15 4.5t10 -10.5l-41 -162q-6 -23 -17.5 -29.5t-40.5 -6.5l-391 -11q-14 0 -20.5 -5.5t-9.5 -22.5l-39 -222q285 -3 422 -105.5t137 -277.5q0 -170 -139.5 -302.5t-456.5 -278.5q-4 -2 -8.5 2.5 t-4.5 10t5 9.5q239 125 337.5 252.5t98.5 272.5q0 166 -111 262t-315 96q-9 0 -14.5 7.5t-4.5 17.5z" />
<glyph unicode="6" horiz-adv-x="925" d="M76 426q0 188 87 370.5t254 331.5t386 226q5 2 10 -4t5 -12t-5 -9q-142 -67 -254.5 -169t-181.5 -217.5t-105 -237t-36 -238.5q0 -194 89 -323.5t228 -129.5q174 0 174 219q0 125 -54.5 205t-152.5 80q-83 0 -172 -74q-6 -6 -13.5 2t-4.5 13q101 119 266 119 q74 0 132 -25.5t91 -67.5t49.5 -91t16.5 -101q0 -138 -109.5 -229t-279.5 -91q-192 0 -306 119t-114 334z" />
<glyph unicode="7" horiz-adv-x="851" d="M37 539l69 311q2 5 9.5 5.5t14 -2.5t5.5 -9q-7 -34 10.5 -43.5t85.5 -9.5h539q9 0 14 -9t2 -18l-438 -1215q-8 -22 -15.5 -31t-27.5 -18l-139 -61q-6 -5 -13 1t-3 13l546 1206q9 15 -8 15q-115 0 -188 -0.5t-142.5 -3.5t-107 -6t-73.5 -12t-51 -17t-30 -25t-21 -32.5 t-14 -42.5q-2 -10 -16 -6q-11 3 -8 10z" />
<glyph unicode="8" horiz-adv-x="978" d="M72 305q0 114 86 216t207 163q-86 54 -132.5 112t-46.5 138q0 79 49 135.5t120 81.5t153 25q133 0 210 -62t77 -156q0 -138 -201 -253q46 -25 69 -38t64 -39t63 -45t51.5 -49.5t44 -59.5t25.5 -67t11 -79q0 -157 -127 -256t-312 -99q-177 0 -293 98.5t-118 233.5z M233 358q2 -139 90.5 -241.5t217.5 -102.5q108 0 174.5 64t66.5 176q0 41 -10 78t-25.5 66t-42.5 58t-50.5 49t-61 45t-63 40t-67.5 38.5t-65 37.5q-81 -52 -123.5 -131.5t-40.5 -176.5zM322 993q0 -47 18.5 -86.5t57.5 -74t74.5 -57.5t94.5 -56q88 85 88 199q0 103 -52 163 t-134 60q-65 0 -106 -39t-41 -109z" />
<glyph unicode="9" horiz-adv-x="925" d="M35 518q0 129 113 214t276 85q192 0 309 -123t117 -332q0 -187 -87 -369t-254 -330.5t-386 -225.5q-6 -2 -11 3.5t-4.5 11.5t5.5 9q140 66 253 169t182.5 220t106.5 239.5t37 236.5q0 116 -37.5 216.5t-113.5 166t-174 65.5q-77 0 -121.5 -47.5t-44.5 -146.5 q0 -126 62.5 -217t158.5 -91q79 0 158 76q7 6 15.5 0.5t6.5 -12.5q-92 -123 -252 -123q-75 0 -137 28.5t-99.5 73.5t-58 98t-20.5 105z" />
<glyph unicode=":" horiz-adv-x="411" d="M106 78q0 44 27.5 70t73.5 26q47 0 72.5 -25.5t25.5 -70.5q0 -48 -25.5 -74.5t-72.5 -26.5q-46 0 -73.5 27t-27.5 74zM106 653q0 44 27.5 70.5t73.5 26.5q47 0 72.5 -26t25.5 -71q0 -47 -25.5 -73.5t-72.5 -26.5q-46 0 -73.5 26.5t-27.5 73.5z" />
<glyph unicode=";" horiz-adv-x="464" d="M111 76q0 44 26.5 68t77.5 24q67 0 103 -48t36 -140q0 -158 -151 -306q-5 -4 -11 -1.5t-7.5 7.5t1.5 9q101 104 101 241q0 56 -21 84q-18 -30 -67 -30q-41 0 -64.5 25t-23.5 67zM111 653q0 44 27 70.5t73 26.5q47 0 72.5 -26t25.5 -71q0 -47 -25.5 -73.5t-72.5 -26.5 q-46 0 -73 26.5t-27 73.5z" />
<glyph unicode="&#x3c;" horiz-adv-x="833" d="M64 390q0 30 10 34l684 301q9 5 12 -16q6 -39 -6 -63q-3 -5 -6 -7l-582 -250l582 -248q15 -8 13 -57q-2 -36 -13 -33l-684 303q-10 6 -10 36z" />
<glyph unicode="=" horiz-adv-x="958" d="M61.5 265.5q1.5 21.5 6.5 21.5h821q9 0 9 -43t-9 -43h-819q-6 0 -8 21.5t-0.5 43zM61.5 553.5q1.5 21.5 6.5 21.5h821q9 0 9 -43t-9 -43h-819q-6 0 -8 21.5t-0.5 43z" />
<glyph unicode="&#x3e;" horiz-adv-x="833" d="M63 692q2 36 13 33l684 -303q10 -6 10 -36t-10 -34l-684 -301q-9 -5 -12 16q-6 39 6 63q3 5 6 7l581 250l-581 248q-15 8 -13 57z" />
<glyph unicode="?" horiz-adv-x="681" d="M80 1128q0 63 73.5 107.5t180.5 44.5q124 0 207.5 -63.5t83.5 -180.5q0 -33 -8.5 -64t-17 -51t-32 -48t-32.5 -38t-41.5 -40t-38.5 -35q-69 -65 -99 -122.5t-30 -129.5q0 -21 12 -111q1 -4 -5 -7t-13 -3t-9 4q-24 54 -38.5 125.5t-14.5 120.5q0 53 20.5 96t50 74t58.5 63 t49.5 80.5t20.5 110.5q0 84 -35.5 136t-93.5 52q-41 0 -56.5 -25t-21.5 -67q-3 -22 -7 -36.5t-13 -32.5t-26.5 -27.5t-43.5 -9.5q-40 0 -60 23t-20 54zM221 78q0 44 27.5 70t73.5 26q47 0 72.5 -25.5t25.5 -70.5q0 -48 -25.5 -74.5t-72.5 -26.5q-46 0 -73.5 27t-27.5 74z " />
<glyph unicode="@" horiz-adv-x="1478" d="M145 356q0 142 56.5 267t149.5 210.5t216 135t254 49.5q116 0 216 -38.5t167 -103.5t104.5 -151t37.5 -180q0 -115 -52.5 -215.5t-143 -160.5t-194.5 -60q-75 0 -102.5 47t-9.5 133l14 71q-69 -116 -154.5 -186t-160.5 -70q-56 0 -87 41t-20 127q16 110 85 218 t161.5 174.5t173.5 66.5q65 0 98 -45q38 23 47 59q3 3 20 2t17 -4l-84 -460q-6 -39 -6 -68t18.5 -46t55.5 -17q39 0 80 22t77 61.5t58.5 104.5t22.5 143q0 203 -146 344.5t-362 141.5q-116 0 -213 -45.5t-160 -123t-98 -178.5t-35 -214q0 -247 155 -397t408 -150 q97 0 174 21.5t168 76.5q4 2 8 -1.5t5 -8t-1 -6.5q-180 -148 -422 -148q-167 0 -301.5 65.5t-214.5 194.5t-80 301zM567 352q-28 -151 45 -151q49 0 108 53t107 136.5t66 166.5q9 55 -10 91.5t-64 35.5q-78 -3 -153.5 -102.5t-98.5 -229.5z" />
<glyph unicode="A" horiz-adv-x="1331" d="M-25 14q0 11 9 11q63 0 130 56.5t122 178.5l438 1040q3 6 18 6h3q18 0 22 -10l428 -1124q20 -50 31 -72t32.5 -42.5t50.5 -26.5t78 -6q6 0 6 -12.5t-6 -12.5q-36 0 -113 4t-124 4q-46 0 -118 -4t-108 -4q-8 0 -8 12.5t8 12.5q98 1 120 31q9 12 9 33q0 32 -20 83l-184 481 h-338l-158 -385q-29 -73 -35 -121q-1 -11 -2 -20q0 -35 16 -55q20 -26 57 -36.5t99 -10.5q6 0 8 -6.5t-0.5 -12.5t-9.5 -6q-29 0 -113.5 4t-129.5 4q-47 0 -110 -4t-99 -4q-9 0 -9 14zM479 700h301l-145 379z" />
<glyph unicode="B" horiz-adv-x="1173" d="M90 12.5q0 12.5 4 12.5q103 0 133.5 26t30.5 115v948q0 89 -29 115t-131 26q-6 0 -6 12.5t6 12.5q31 0 111 -3t129 -3q37 0 123 6t123 6q176 0 266 -72.5t90 -195.5q0 -100 -63 -178t-177 -119q166 -15 266.5 -111t100.5 -235q0 -164 -123 -273.5t-307 -109.5 q-40 0 -146 6t-153 6q-49 0 -130.5 -2t-113.5 -2q-4 0 -4 12.5zM422 166q0 -77 35 -107t147 -30q287 0 287 297q0 156 -85.5 250.5t-244.5 95.5q-16 1 -35 1q-44 0 -104 -5v-502zM422 721q51 -2 90 -2q134 0 200 78t66 204q0 116 -58.5 184t-176.5 68q-49 0 -72.5 -9 t-36 -40t-12.5 -94v-389z" />
<glyph unicode="C" horiz-adv-x="1296" d="M84 649q0 194 100.5 345.5t260.5 230t346 78.5q98 0 199.5 -19t162.5 -49q17 -10 21 -18.5t6 -30.5l18 -242q0 -8 -8.5 -8.5t-11.5 6.5q-57 155 -177.5 234t-285.5 79q-212 0 -332.5 -147t-120.5 -399q0 -189 69.5 -350t192 -256t269.5 -95q122 0 225 79.5t176 240.5 q3 7 13 5.5t10 -9.5l-19 -228q-3 -26 -7.5 -34t-23.5 -15q-188 -72 -381 -72q-150 0 -271.5 40.5t-200 106.5t-132 155t-76 181.5t-22.5 190.5z" />
<glyph unicode="D" horiz-adv-x="1372" d="M80 12.5q0 12.5 6 12.5q100 0 130 26q29 25 28 109v6v948q-3 88 -32.5 114.5t-125.5 26.5q-6 0 -6 12.5t6 12.5q28 0 109 -3t129 -3q43 0 131.5 5t124.5 5q156 0 288.5 -47t224.5 -129.5t143.5 -197.5t51.5 -248q0 -149 -55.5 -276t-149 -212.5t-216.5 -133.5t-257 -48 q-35 0 -135.5 6t-146.5 6q-51 0 -132.5 -2t-109.5 -2q-6 0 -6 12.5zM403 188q0 -88 39.5 -124.5t149.5 -36.5q233 0 373.5 154.5t140.5 434.5q0 100 -20.5 192t-63 173t-103.5 141t-146.5 94.5t-186.5 34.5q-105 0 -144 -29t-39 -112v-922z" />
<glyph unicode="E" horiz-adv-x="1146" d="M92 1267.5q0 12.5 6 12.5h869q16 0 16 -18q1 -30 3 -129t3 -132q0 -7 -12 -6.5t-14 6.5q-15 109 -84.5 175.5t-171.5 66.5h-142q-98 0 -123 -23t-28 -108v-422h299q95 0 135 34q39 33 39 110q0 10 6.5 12t13 -0.5t6.5 -9.5q0 -45 -1 -96.5t-1 -73.5q0 -32 2 -95.5 t2 -101.5q0 -9 -13 -9t-13 9q0 91 -44.5 132.5t-139.5 41.5h-291v-469q0 -85 27.5 -110t123.5 -25h187q101 0 181 75t114 199q2 4 9 4.5t13 -2.5q4 -2 4 -6v-2q-16 -118 -16 -276q0 -17 -7 -24t-26 -7h-924q-6 0 -6 12.5t6 12.5q101 0 128.5 25.5t27.5 115.5v948 q-2 88 -31 114.5t-127 26.5q-6 0 -6 12.5z" />
<glyph unicode="F" horiz-adv-x="1067" d="M86 1267.5q0 12.5 6 12.5h869q14 0 14 -18q6 -114 6 -261q0 -7 -11.5 -6.5t-13.5 6.5q-15 109 -85 175.5t-171 66.5h-139q-71 0 -101.5 -10.5t-40.5 -35.5t-11 -85v-446h264q94 0 134 34t40 113q0 6 6.5 8t12.5 0t5 -8q1 -36 1 -66t-0.5 -60t-0.5 -46q0 -32 2 -95.5 t2 -101.5q0 -9 -12 -8.5t-12 8.5q0 90 -45 132t-139 42h-258v-444q2 -66 18.5 -95t64 -41.5t152.5 -12.5q7 0 7 -12.5t-7 -12.5q-24 0 -130.5 2t-188.5 2q-46 0 -124.5 -2t-107.5 -2q-4 0 -4 12.5t4 12.5q101 0 128.5 25.5t27.5 115.5v948q-1 61 -13 89.5t-43.5 40 t-99.5 11.5q-6 0 -6 12.5z" />
<glyph unicode="G" horiz-adv-x="1398" d="M88 641q0 191 99.5 343t272 235.5t384.5 83.5q95 0 184 -19t148 -51q14 -10 18.5 -18.5t7.5 -28.5l19 -240q0 -7 -11.5 -8.5t-13.5 4.5q-51 150 -163 231.5t-271 81.5q-235 0 -365.5 -145.5t-130.5 -394.5q0 -312 169.5 -506.5t432.5 -194.5q131 0 179.5 49t48.5 195 q0 53 -2.5 85t-12.5 59t-23.5 40t-42.5 22t-62.5 11t-88.5 2q-7 0 -10 8.5t-0.5 16.5t8.5 8q128 -9 260 -9q98 0 199 5q6 0 9 -7q1 -4 1 -9q0 -3 -1 -6q-1 -7 -7 -7h-3q-54 0 -64 -33q-11 -34 -11 -191v-5v-5v-5q0 -60 3 -99t6 -56.5t3 -25.5q0 -17 -20 -24 q-241 -58 -426 -58q-168 0 -305.5 51.5t-228 141t-140 211t-49.5 262.5z" />
<glyph unicode="H" horiz-adv-x="1490" d="M82 14q0 11 6 11q99 0 127.5 25.5t28.5 115.5v948q0 88 -28 114.5t-126 26.5q-5 0 -5.5 12.5t5.5 12.5q27 0 106 -3t126 -3t129 3t110 3q5 0 5 -12.5t-5 -12.5q-68 0 -101 -13t-44.5 -42t-12.5 -90v-420h680v420q0 89 -27.5 117t-123.5 28q-4 0 -6 6.5t-1 12.5t5 6 q27 0 106.5 -3t126.5 -3t128 3t108 3q5 0 7 -6t0.5 -12.5t-5.5 -6.5q-99 0 -127.5 -26t-30.5 -115v-948q0 -88 30.5 -114.5t129.5 -26.5q6 0 6 -12.5t-6 -12.5q-24 0 -104.5 2t-129.5 2q-48 0 -128.5 -2t-108.5 -2q-6 0 -6.5 12.5t6.5 12.5q100 0 126.5 25.5t26.5 115.5 l-2 477h-680v-477q0 -90 28.5 -115.5t129.5 -25.5q5 0 5 -12.5t-5 -12.5q-29 0 -110.5 2t-133.5 2q-46 0 -124 -2t-105 -2q-6 0 -6 14z" />
<glyph unicode="I" horiz-adv-x="690" d="M100 1269q0 11 6 11q28 0 107 -3t127 -3q55 0 135.5 3t106.5 3q6 0 6 -12.5t-6 -12.5q-98 0 -126 -27.5t-30 -117.5v-944q2 -90 30 -115.5t126 -25.5q4 -1 6 -7q1 -4 0 -7v-5q-1 -6 -4 -6q-29 0 -107 2t-131 2q-47 0 -128 -2t-109 -2q-4 0 -6 6t-1 12.5t4 6.5 q101 0 130 26q28 25 28 109v6v948q0 88 -30 114.5t-128 26.5q-6 0 -6 14z" />
<glyph unicode="J" horiz-adv-x="634" d="M78 -373q90 55 128 168q36 105 36 262v25v1032q0 88 -29 114.5t-127 26.5q-6 0 -6 12.5t6 12.5q30 0 107.5 -3t125.5 -3q54 0 135 3t107 3q6 0 6 -12.5t-6 -12.5q-68 0 -100.5 -12.5t-44.5 -41.5t-13 -91v-973q0 -160 -31.5 -260.5t-96.5 -162t-183 -111.5h-2q-5 0 -11 9 q-4 6 -4 10q0 3 3 5z" />
<glyph unicode="K" horiz-adv-x="1337" d="M80 12.5q0 12.5 6 12.5q100 0 129 26t29 115v948q0 88 -28 114.5t-126 26.5q-5 0 -5.5 12.5t5.5 12.5q27 0 106 -3t126 -3t129 3t110 3q5 0 5 -12.5t-5 -12.5q-69 0 -101.5 -13t-44 -41.5t-12.5 -90.5v-438l435 430q59 62 59 100q0 8 -2 14q-13 40 -107 39q-6 0 -6 12.5 t6 12.5q24 0 108.5 -3t139.5 -3q57 0 122 3t87 3q6 0 6 -12.5t-6 -12.5q-83 0 -178 -41t-178 -124l-303 -295l291 -371q117 -147 180.5 -222.5t114.5 -117.5t79 -50.5t76 -8.5q6 0 6 -12.5t-6 -12.5h-194h-17q-77 0 -100 10q-27 12 -67 66q-9 13 -30 43q-76 107 -143 192 l-299 379l-74 -72v-452v-7q0 -35 0.5 -50t5 -34.5t12 -25.5t24.5 -13.5t40 -9t60 -1.5q5 0 5 -12.5t-5 -12.5q-30 0 -102.5 2t-127.5 2q-46 0 -124 -2t-105 -2q-6 0 -6 12.5z" />
<glyph unicode="L" horiz-adv-x="1099" d="M82 14q0 11 6 11q101 0 128.5 25.5t27.5 115.5v948q0 88 -28 114.5t-126 26.5q-5 0 -5.5 12.5t5.5 12.5q27 0 106 -3t126 -3t129 3t110 3q5 0 5 -12.5t-5 -12.5q-69 0 -101.5 -12t-44 -40.5t-12.5 -90.5v-938q1 -85 27.5 -110t112.5 -25h172q138 0 220.5 72t123.5 213 q1 6 13.5 3.5t12.5 -8.5q-14 -133 -14 -288q0 -31 -33 -31h-950q-6 0 -6 14z" />
<glyph unicode="M" horiz-adv-x="1632" d="M90 18q1 6 4 7q160 0 160 211l8 952q-60 67 -162 67q-6 0 -6 12.5t6 12.5q18 0 61.5 -2t65.5 -2q34 0 80 2t53 2q27 0 44.5 -20.5t46.5 -85.5l397 -932l371 987q7 23 25 37t40 14q7 0 48.5 -2t64.5 -2q36 0 83.5 2t67.5 2q4 0 4 -12.5t-4 -12.5q-88 0 -126 -28 q-32 -24 -32 -85q0 -11 1 -24l28 -952q3 -63 15.5 -91t43.5 -39t99 -11q6 0 6 -14q0 -11 -6 -11q-27 0 -106.5 2t-129.5 2q-49 0 -128 -2t-109 -2q-5 0 -5.5 12.5t5.5 12.5q103 0 132 26q26 24 26 99v16l-29 975l-426 -1127q-1 -8 -14 -7.5t-17 9.5l-463 1092l-6 -870 q0 -108 36.5 -160.5t115.5 -52.5q6 0 6 -12.5t-6 -12.5q-23 0 -83 2t-100 2q-35 0 -95 -2t-85 -2q-4 0 -6 6q-1 4 0 7v5z" />
<glyph unicode="N" horiz-adv-x="1445" d="M68 1267.5q0 12.5 6 12.5q26 0 84 -2t78 -2q25 0 67 2t47 2q16 0 24 -7.5t26.5 -39t39.5 -59.5l725 -938v819q0 102 -39 151t-122 49q-6 0 -6 12.5t6 12.5q22 0 84 -3t104 -3q37 0 101.5 3t90.5 3q6 0 6 -12.5t-6 -12.5q-167 0 -167 -200v-1073q1 -8 -17 -10q-2 0 -5 -1 q-14 0 -21 9l-879 1130v-887q0 -101 40.5 -149.5t123.5 -48.5q6 0 6 -12.5t-6 -12.5q-25 0 -87 2t-104 2q-37 0 -101 -2t-91 -2q-6 0 -6 12.5t6 12.5q168 0 168 198l2 944q-85 88 -172 88q-6 0 -6 12.5z" />
<glyph unicode="O" d="M88 621q1 193 91.5 349t249 244.5t353.5 88.5q190 0 336 -85t222 -230q75 -143 75 -321q1 -154 -57 -287q-56 -130 -152 -218t-223 -137.5t-266 -49.5q-186 0 -330.5 86.5t-221.5 233t-77 326.5zM250 723v-7q0 -136 40 -260q41 -128 113.5 -222t178 -149.5t225.5 -55.5 q202 0 322 144t122 384v5q0 187 -68 344q-69 159 -196 253t-285 94q-200 0 -324 -143t-128 -387z" />
<glyph unicode="P" horiz-adv-x="1130" d="M84 12.5q0 12.5 6 12.5q100 0 129 26t29 115v948q-1 89 -31 115t-127 26q-6 0 -6 12.5t6 12.5q27 0 104.5 -3t124.5 -3q46 0 138 6t137 6q127 0 228 -35t165 -113t64 -190q0 -103 -46 -185t-118.5 -129.5t-154 -72t-161.5 -24.5q-60 0 -96 10q-3 1 -3.5 9.5t2 16.5t7.5 7 q30 -9 66 -9q63 0 119.5 20.5t103.5 60t74.5 105.5t27.5 150q0 158 -94.5 251t-222.5 93q-96 0 -122.5 -23t-29.5 -118l5 -944q0 -90 27.5 -115.5t125.5 -25.5q6 0 6 -12.5t-6 -12.5q-28 0 -107 2t-130 2q-47 0 -127 -2t-107 -2q-6 0 -6 12.5z" />
<glyph unicode="Q" d="M88 621q1 193 91.5 349t249 244.5t353.5 88.5q190 0 336 -85t222 -230q75 -143 75 -321q0 -209 -99 -369q-99 -158 -263 -243q104 -181 253.5 -302.5t252.5 -121.5q42 0 69 9q3 1 7 -4q5 -8 5 -14q0 -4 -2 -5q-89 -27 -159 -27q-131 0 -285 107.5t-287 302.5 q-95 -25 -190 -25q-186 0 -330.5 86.5t-221.5 233t-77 326.5zM250 723v-7q0 -136 40 -260q41 -128 113.5 -222t178 -149.5t225.5 -55.5q202 0 322 144t122 384v5q0 187 -68 344q-69 159 -196 253t-285 94q-200 0 -324 -143t-128 -387z" />
<glyph unicode="R" horiz-adv-x="1374" d="M90 18q2 6 6 7q107 0 141 26.5t35 114.5v948q-1 61 -14 89.5t-47 40t-107 11.5q-8 0 -8 12.5t8 12.5q31 0 113.5 -3t130.5 -3t130 6t108 6q181 0 274.5 -67.5t93.5 -188.5q0 -94 -57 -178t-152 -137q251 -389 393.5 -539.5t264.5 -150.5q7 0 7 -14q0 -11 -7 -11h-270 q-52 0 -187.5 173t-322.5 493q-70 -17 -134 -17q-25 0 -57 4l-2 -487q0 -89 28.5 -115t131.5 -26q5 0 7 -6.5t0.5 -12.5t-5.5 -6q-30 0 -111.5 2t-134.5 2q-48 0 -133 -2t-115 -2q-5 0 -7 6q-1 3 -1 7q-1 2 0 5zM430 707q70 -9 94 -9q140 0 201 61.5t61 201.5 q0 152 -63.5 221t-167.5 69q-43 0 -62 -2.5t-35.5 -17t-21 -41.5t-6.5 -80v-403z" />
<glyph unicode="S" horiz-adv-x="1021" d="M143 383q-1 6 4.5 8.5t12 1.5t8.5 -6q16 -54 37.5 -103.5t54.5 -100t72 -87t93 -59.5t114 -23q45 0 83 11t70.5 36t51 70t18.5 107q0 80 -33 145t-85 110t-115.5 85t-127 79t-115.5 82t-85 103.5t-33 134.5q0 80 34.5 144.5t91.5 103t126.5 58.5t144.5 20q139 0 254 -48 q31 -15 31 -36l8 -256q0 -5 -5 -8t-10.5 -2.5t-6.5 5.5q-7 33 -20 69.5t-38.5 81t-58.5 78.5t-83.5 57.5t-109.5 23.5q-103 0 -158 -61.5t-55 -149.5q0 -69 33 -127t86.5 -100t117.5 -81t128 -79.5t117.5 -85t86.5 -108.5t33 -140q0 -161 -115 -261t-311 -100 q-79 0 -163.5 20.5t-143.5 55.5q-15 8 -18 39z" />
<glyph unicode="T" horiz-adv-x="1220" d="M82 1325q0 4 7 5t13.5 -1t6.5 -6q0 -43 92 -43q167 -6 415 -6q98 0 226 3t170 3q68 0 99 10t38 41q3 4 9 5h3q5 0 9 -2q5 -2 4 -6v-1q-18 -245 -18 -345q0 -23 1 -38q-1 -8 -14 -8t-13 8q0 297 -270 297h-45q-41 0 -63.5 -5t-35 -22t-16 -39t-4.5 -65l2 -944 q1 -38 5 -60.5t14.5 -40t32.5 -25.5t52.5 -11.5t80.5 -3.5q5 0 5 -12.5t-5 -12.5q-32 0 -120 2t-145 2q-52 0 -140 -2t-120 -2q-4 0 -5.5 6t-0.5 12.5t4 6.5q116 0 150 26q33 25 33 110v5v948v6q0 72 -24 96q-25 25 -103 25h-45q-253 0 -291 -303q0 -3 -6 -4q-8 0 -14 2 t-5 5z" />
<glyph unicode="U" horiz-adv-x="1558" d="M60 1267.5q0 12.5 6 12.5q27 0 104.5 -3t126.5 -3q48 0 130 3t108 3q4 0 5.5 -6t0.5 -12.5t-4 -6.5q-69 0 -101.5 -13t-44 -41.5t-12.5 -90.5l2 -657v-8q0 -191 98 -299q100 -110 281 -109q102 0 191 39.5t190 132.5l-4 901v17q0 75 -25 100q-28 28 -125 28q-5 0 -7 6.5 t-0.5 12.5t5.5 6q27 0 106 -3t128 -3q46 0 127.5 3t107.5 3q4 0 5.5 -6t0.5 -12.5t-4 -6.5q-98 0 -128 -26.5t-30 -114.5v-948q0 -90 33.5 -115.5t151.5 -25.5q7 0 7 -14q0 -11 -7 -11q-30 0 -90 1t-95 1q-24 0 -64 -1t-60 -1q-22 0 -27.5 6.5t-5.5 32.5v123 q-108 -98 -213.5 -142.5t-227.5 -44.5q-209 0 -344 111t-135 295v733q-2 89 -30 115t-125 26q-6 0 -6 12.5z" />
<glyph unicode="V" horiz-adv-x="1314" d="M-10 1267.5q0 12.5 6 12.5q28 0 92 -3t92 -3q58 0 138 3t108 3q8 0 8.5 -12.5t-8.5 -12.5q-37 0 -61.5 -5.5t-41 -20t-15 -38.5t15.5 -61l407 -921l322 878q14 39 14 68q0 100 -158 100q-6 0 -6 12.5t6 12.5q30 0 99.5 -3t126.5 -3q39 0 94 3t90 3q7 0 7 -12.5t-7 -12.5 q-71 0 -121 -35.5t-88 -140.5l-408 -1077q-3 -9 -23 -9q-1 1 -3 1q-22 0 -27 8l-487 1108q-34 80 -71 112.5t-95 32.5q-6 0 -6 12.5z" />
<glyph unicode="W" horiz-adv-x="1837" d="M-11 1269q0 11 7 11q28 0 92 -3t92 -3q53 0 125 3t96 3q8 0 8.5 -12.5t-8.5 -12.5q-98 0 -98 -63q0 -26 16 -62l412 -927l160 436l-209 471q-34 81 -67.5 113t-86.5 32q-5 0 -7 6.5t-0.5 12.5t5.5 6q27 0 87 -3t89 -3q39 0 90.5 3t67.5 3q10 0 10 -12.5t-10 -12.5 q-48 0 -52 -20v-5q0 -24 32 -100l141 -317l98 274q24 64 24 102q1 15 -3 27q-14 40 -82 39q-6 0 -6.5 12.5t6.5 12.5q19 0 62 -3t79 -3t86.5 3t81.5 3q8 0 8.5 -12.5t-8.5 -12.5q-64 0 -108 -35t-84 -141l-125 -331l241 -545l326 884q14 40 14 71q0 97 -141 97q-5 0 -7 6.5 t-0.5 12.5t5.5 6q29 0 93 -3t116 -3q37 0 91.5 3t90.5 3q9 0 9 -12.5t-9 -12.5q-72 0 -121.5 -35.5t-87.5 -140.5l-407 -1077q-3 -9 -23 -9q-1 1 -2 1q-22 0 -27 8l-253 573l-216 -573q-3 -9 -23 -9q-1 1 -3 1q-22 0 -27 8l-487 1108q-34 80 -71 112.5t-95 32.5q-7 0 -7 14z " />
<glyph unicode="X" horiz-adv-x="1282" d="M7 14q0 11 9 11q69 0 142.5 48.5t138.5 143.5l270 401l-303 492q-48 78 -94.5 111.5t-110.5 33.5q-6 0 -6 12.5t6 12.5q25 0 77 -3t75 -3q60 0 153 3t119 3q9 0 9 -12.5t-9 -12.5q-89 0 -89 -40q0 -17 16 -41l264 -429l215 326q43 71 43 113q0 16 -6 28q-22 44 -115 43 q-5 0 -7 6.5t-0.5 12.5t5.5 6q30 0 114 -3t138 -3q30 0 80.5 3t77.5 3q11 0 11 -12.5t-11 -12.5q-68 0 -142 -51.5t-141 -152.5l-234 -349l328 -532q50 -80 100 -112.5t127 -32.5q7 0 7 -12.5t-7 -12.5q-25 0 -91 2t-105 2q-55 0 -147 -2t-119 -2q-10 0 -9.5 12.5t9.5 12.5 q64 0 90 19q13 10 13 25t-13 35l-291 471l-250 -376q-41 -63 -42 -104q0 -70 126 -70q8 0 8 -12.5t-8 -12.5q-29 0 -112.5 2t-137.5 2q-31 0 -82.5 -2t-79.5 -2q-9 0 -9 14z" />
<glyph unicode="Y" horiz-adv-x="1171" d="M-20 1274q2 6 6 6q28 0 88 -3t88 -3q51 0 141 3t115 3q6 0 7.5 -6t-1 -12.5t-8.5 -6.5q-77 0 -96 -17q-6 -7 -6 -17q0 -18 20 -47l317 -488l217 389q32 57 32 98q0 18 -6 33q-21 49 -103 49q-6 0 -8.5 6.5t-1 12.5t6.5 6q32 0 109.5 -3t128.5 -3q32 0 79 3t73 3 q8 0 8 -12.5t-8 -12.5q-143 0 -263 -202l-239 -412v-475q0 -91 28.5 -116t135.5 -25q9 0 9 -12.5t-9 -12.5q-29 0 -110.5 2t-133.5 2q-54 0 -138 -2t-114 -2q-8 0 -8 12.5t8 12.5q108 0 140 26t32 115l-2 448l-328 496q-50 78 -95 111.5t-103 33.5q-5 0 -7 7q-1 3 -1 7v5z " />
<glyph unicode="Z" horiz-adv-x="1216" d="M89 10q-2 4 -2 8q0 5 3 9l819 1202q6 11 4 13.5t-16 2.5q-123 0 -204.5 -1t-158 -6.5t-122 -12t-89 -21.5t-67 -31t-48 -45t-40 -58.5t-35.5 -76.5q-2 -5 -8.5 -5.5t-12 3t-3.5 8.5l84 342q2 3 7 3h2q6 0 13 -3.5t6 -7.5q-6 -35 13 -44t98 -9h768q8 0 13 -10.5t1 -16.5 l-809 -1198q-5 -7 -6 -10.5t2.5 -4.5t11.5 -1h398q181 0 275.5 56t143.5 196q2 6 14.5 3.5t12.5 -9.5l-29 -269q1 -7 -4.5 -13.5t-13.5 -6.5q-309 4 -1010 4q-7 0 -11 10z" />
<glyph unicode="[" horiz-adv-x="561" d="M166 -217v1681q0 14 3.5 17.5t16.5 3.5h297q6 0 6 -12.5t-6 -12.5q-107 0 -139.5 -28t-32.5 -117v-1385q0 -89 32.5 -117t139.5 -28q6 0 6 -12.5t-6 -12.5h-297q-13 0 -16.5 4t-3.5 19z" />
<glyph unicode="\" horiz-adv-x="706" d="M328 655l45 -153q4 0 4 2l-43 151q-2 1 -4 1t-2 -1z" />
<glyph unicode="]" horiz-adv-x="561" d="M72 -227.5q0 12.5 6 12.5q107 0 139.5 28t32.5 117v1385q0 89 -32.5 117t-139.5 28q-6 0 -6 12.5t6 12.5h297q13 0 16.5 -3.5t3.5 -17.5v-1681q0 -15 -3.5 -19t-16.5 -4h-297q-6 0 -6 12.5z" />
<glyph unicode="^" horiz-adv-x="802" d="M119 778l260 510q1 10 21.5 10t23.5 -10l258 -510q2 -3 -2 -6.5t-8.5 -4.5t-7.5 1l-263 328l-262 -328q-4 -4 -13 0.5t-7 9.5z" />
<glyph unicode="_" horiz-adv-x="815" d="M61.5 -94q1.5 22 6.5 22h677q9 0 9 -44t-9 -44h-675q-6 0 -8 22t-0.5 44z" />
<glyph unicode="`" horiz-adv-x="339" d="M59 1489q-5 16 53 8q70 -9 90 -26q3 -3 3 -5l63 -491q1 -3 -3 -5t-8.5 -1.5t-4.5 4.5z" />
<glyph unicode="a" horiz-adv-x="962" d="M72 193v5q0 102 40 212q41 112 107 201.5t155.5 147.5t178.5 58q98 0 164 -55q33 30 45 69q1 5 8 5q5 0 12 -2q6 -3 6 -5l-4 -647v-11q0 -101 52 -101q50 0 125 88q7 6 17 -2q7 -6 7 -11q0 -2 -2 -4q-60 -81 -111 -120t-104 -39q-123 0 -123 166v8l2 217 q-62 -182 -169 -291t-226 -109q-80 0 -129.5 53.5t-50.5 166.5zM205 309q3 -219 129 -219q79 0 152 78t114.5 186.5t42.5 204.5q1 81 -45 129q-44 47 -113 47h-6q-118 -3 -196 -123t-78 -303z" />
<glyph unicode="b" horiz-adv-x="968" d="M-28 1339q0 6 5 9l283 137q2 1 4 1q6 0 14 -6q11 -8 11 -12l-4 -1013q45 161 150.5 261.5t238.5 100.5q105 0 169 -85t64 -218q0 -102 -32 -191.5t-84.5 -152t-118.5 -108.5t-134.5 -67.5t-131.5 -21.5q-121 0 -193.5 52t-71.5 139l13 1085q0 81 -38 99q-11 5 -28 5 q-38 0 -100 -30q-6 -2 -11 4t-5 12zM285 197q0 -73 57 -121.5t143 -48.5q110 0 190 116q77 112 77 294v14v11q0 108 -38 176q-40 72 -124 73q-134 0 -219 -140.5t-86 -367.5v-6z" />
<glyph unicode="c" horiz-adv-x="741" d="M59 395q1 93 38 174t95 134.5t130.5 83.5t146.5 30q85 0 152 -34t73 -93q3 -33 -15.5 -53.5t-57.5 -20.5q-40 0 -63 19.5t-42 54.5q-40 78 -125 78q-92 0 -138 -84.5t-46 -216.5v-7q-1 -107 31 -196q32 -92 105 -151.5t175 -59.5q101 0 182 56q6 5 15 -5q6 -6 6 -11 q0 -3 -2 -5q-126 -115 -293 -115q-94 0 -168 38.5t-116 100.5q-42 64 -64 136q-20 66 -19 134v13z" />
<glyph unicode="d" horiz-adv-x="983" d="M72 260q0 144 71 274t185 206.5t235 76.5q67 0 115 -22l4 454v12q0 71 -35 87q-11 5 -27 5q-38 0 -102 -30q-6 -3 -11.5 2.5t-5.5 12t5 10.5l287 137q2 1 4 1q5 0 12 -6q10 -8 10 -12l-8 -1286v-11q0 -101 53 -101q43 0 121 88q6 4 12.5 1.5t10.5 -8.5q3 -4 3 -6t-1 -4 q-64 -83 -112 -121t-105 -38q-123 0 -123 166v8l2 202q-61 -179 -154 -282t-211 -103q-96 0 -165.5 71t-69.5 216zM205 350q1 -131 45.5 -196.5t120.5 -65.5q63 0 119.5 43.5t93.5 110t60.5 139t29.5 137.5v66q-7 72 -57.5 111.5t-129.5 39.5q-129 0 -207 -103 q-75 -99 -75 -269v-13z" />
<glyph unicode="e" horiz-adv-x="757" d="M57 369q1 114 56.5 216t158 167t228.5 65q85 0 132.5 -29t49.5 -81q0 -90 -136 -165.5t-335 -105.5q3 -172 81.5 -278.5t219.5 -106.5q118 0 203 66q5 5 13 -3q6 -5 6 -10q0 -2 -1 -4q-133 -125 -307 -125q-90 0 -162.5 33.5t-116.5 89.5t-67 125.5t-23 145.5zM211 463 q295 56 301 201v9q0 42 -26 64q-29 25 -80 25q-95 0 -144 -82.5t-51 -216.5z" />
<glyph unicode="f" horiz-adv-x="569" d="M-92 -465q0 31 20.5 49.5t55.5 18.5q37 0 60.5 -20t32 -43.5t25 -43.5t41.5 -20q19 0 29.5 14.5t15.5 63.5q4 41 4 103v25q-1 80 -6 222l-22 723q-4 76 -27.5 93t-118.5 17q-5 0 -7 7.5t-0.5 14.5t5.5 7q79 0 109.5 19t30.5 71v56q0 211 27 330q31 134 104.5 189.5 t212.5 55.5q85 0 138.5 -32.5t53.5 -78.5q0 -67 -74 -67q-38 0 -63 22.5t-36 49t-32 49t-51 22.5q-83 0 -116 -136q-25 -107 -25 -302q0 -54 2 -115l4 -125q47 1 125 6t96 6q21 0 21 -20q-2 -21 -22 -46t-42 -22q-102 17 -176 21l25 -762q1 -35 1 -68q0 -149 -19 -241 q-23 -113 -77 -162t-151 -49q-82 0 -128 28.5t-46 69.5z" />
<glyph unicode="g" horiz-adv-x="909" d="M72 186v16q0 134 65 274q69 147 183.5 244t232.5 97q98 0 164 -55q33 30 45 72q2 4 9 4h5q12 -2 12 -9l-4 -938q0 -215 -108 -340.5t-301 -125.5q-119 0 -197 47t-78 118q-1 33 20 49.5t52 16.5q32 0 54 -19.5t38 -47t35.5 -55t57 -47t92.5 -19.5q33 0 59.5 9t52.5 33.5 t43.5 65.5t28.5 109t12 159v535q-62 -187 -167.5 -296.5t-225.5 -109.5q-78 0 -126 52t-54 161zM205 303q3 -213 129 -213q75 0 147 73.5t115 180t47 207.5v10q0 76 -41 124q-44 50 -120 50h-3q-118 -2 -197 -125q-77 -120 -77 -294v-13z" />
<glyph unicode="h" horiz-adv-x="987" d="M-21 1339q0 6 5 9l284 137q2 1 4 1q6 0 14 -6q12 -8 11 -12l-6 -1069q40 197 127 307.5t209 110.5q184 0 184 -262v-8l-2 -365v-11q0 -101 53 -101q45 0 125 90q6 6 17 -4q8 -7 8 -11q0 -2 -2 -4q-63 -83 -112.5 -121t-106.5 -38q-121 0 -121 166v8l4 352q0 217 -115 217 q-114 0 -190.5 -187.5t-79.5 -519.5q0 -34 -84 -34q-55 0 -62 14q0 2 1.5 25.5t3.5 60t2 68.5l10 1097v8q0 74 -36 91q-11 5 -28 5q-38 0 -100 -30q-7 -2 -12 4t-5 12z" />
<glyph unicode="i" horiz-adv-x="532" d="M-4 645q118 164 229 164q121 0 121 -164l-8 -463q0 -112 55 -112q42 0 123 88q5 3 11 1q7 -2 11 -8q3 -4 2 -6q0 -2 -1 -4q-64 -83 -112 -121t-105 -38q-123 0 -123 159v15l6 452q1 10 1 19q0 96 -59 96q-45 0 -129 -94q-5 -4 -11 -2q-7 2 -11 8q-2 3 -2 6q0 2 2 4z M152 1139q0 43 27 68.5t73 25.5q47 0 72.5 -25.5t25.5 -68.5q0 -48 -25.5 -74.5t-72.5 -26.5q-46 0 -73 27t-27 74z" />
<glyph unicode="j" horiz-adv-x="522" d="M-53 -465q0 33 19.5 50.5t49.5 17.5q34 0 56 -20.5t30.5 -45t24 -45t39.5 -20.5q42 0 53.5 81t11.5 332l-4 723q0 115 -57 115q-45 0 -129 -94q-5 -4 -11.5 -2t-11 8t-0.5 10q62 85 117 124.5t113 39.5q61 0 89 -40.5t30 -123.5v-711v-32q0 -171 -19 -268 q-22 -105 -74 -151t-149 -46q-80 0 -128 29t-50 69zM156 1139q0 43 27 68.5t73 25.5q47 0 72.5 -25.5t25.5 -68.5q0 -48 -25.5 -74.5t-72.5 -26.5q-46 0 -73 27t-27 74z" />
<glyph unicode="k" horiz-adv-x="925" d="M-21 1339q0 6 5 9l284 137q2 1 4 1q6 0 14 -5q12 -7 11 -13l-4 -821q69 78 160 124t184 46q49 0 83 -13t50 -34t22 -39t7 -37q-2 -74 -89 -145t-243 -125l195 -229q56 -67 92 -91t69 -24q57 0 131 74q5 5 12 2q8 -3 10 -9q1 -3 1 -5q0 -3 -2 -5q-62 -81 -110.5 -118 t-98.5 -37q-51 0 -97.5 30t-113.5 107l-170 205q-27 32 -45.5 42t-46.5 7l-4 -355q0 -34 -84 -34q-55 0 -62 14q0 2 1.5 25.5t3.5 60t2 68.5l10 1097v8q0 74 -36 91q-11 5 -26 5q-38 0 -102 -30q-7 -2 -12 4t-5 12zM293 406q181 40 259 96q74 54 73 140v9q-3 94 -90 94 q-101 0 -169.5 -89t-72.5 -232v-18z" />
<glyph unicode="l" horiz-adv-x="518" d="M-6 1332q-2 4 -2 7q0 6 6 9l283 137q2 1 4 1q7 0 13 -6q10 -8 9 -12l-6 -1286v-11q0 -101 53 -101q44 0 125 88q5 3 11 1t10 -8q3 -4 3 -6t-1 -4q-63 -83 -112.5 -121t-106.5 -38q-123 0 -123 166v8l10 1093v8q0 74 -34 91q-11 5 -27 5q-37 0 -99 -30q-10 -3 -16 9z" />
<glyph unicode="m" horiz-adv-x="1507" d="M-12 645q118 164 229 164q61 0 89 -40.5t28 -123.5v-239q39 194 122.5 302.5t200.5 108.5q174 0 174 -259v-9v-146q40 198 123.5 306t198.5 108q89 0 133 -66t45 -204l-4 -365q0 -112 55 -112q42 0 123 88q6 6 17 -2q9 -7 9 -12q0 -1 -1 -3q-66 -84 -114.5 -121.5 t-104.5 -37.5q-121 0 -121 166v8l2 352q0 217 -107 217q-106 0 -179.5 -183.5t-76.5 -502.5v-21q0 -34 -81 -34q-58 0 -62 14q0 2 1 27t2 61.5t1 65.5l4 358q-1 113 -28.5 164t-79.5 51q-67 0 -123.5 -78.5t-92.5 -233t-38 -356.5v-39q0 -34 -82 -34q-58 0 -62 14 q-1 3 0.5 25t3 58t1.5 64l4 463q0 115 -58 115q-48 0 -129 -94q-7 -7 -17 1q-7 5 -7 10q0 2 2 5z" />
<glyph unicode="n" horiz-adv-x="1032" d="M-12 636q-2 3 -2 5t2 4q118 164 229 164q61 0 89 -40.5t28 -123.5v-256q40 202 127.5 315t210.5 113q184 0 184 -262v-8l-2 -365v-11q0 -101 53 -101q45 0 123 88q5 3 11.5 1t11.5 -8q3 -4 3 -7q0 -2 -1 -3q-64 -83 -112.5 -121t-106.5 -38q-121 0 -121 174l2 352 q0 217 -113 217q-114 0 -191.5 -188t-78.5 -519q0 -34 -84 -34q-58 0 -62 14q-1 3 0.5 25.5t3 60t1.5 68.5l4 456q0 115 -58 115q-48 0 -129 -94q-5 -5 -12 -2t-10 9z" />
<glyph unicode="o" horiz-adv-x="880" d="M57 381q3 190 117.5 313t290.5 123q165 0 263 -109q97 -108 97 -290q0 -105 -35 -193q-34 -85 -91 -140t-129.5 -84.5t-151.5 -29.5q-167 0 -264 117t-97 293zM199 469q0 -114 35 -215.5t101 -166t146 -64.5q91 0 147.5 81.5t57.5 221.5v6q0 110 -34 208 q-35 100 -100.5 164t-145.5 64q-91 0 -149 -78t-58 -221z" />
<glyph unicode="p" horiz-adv-x="897" d="M18 547q69 61 115 94v150q0 4 17.5 18.5t39 31.5t40.5 45.5t20 57.5q0 4 6 6h4l8 -2q6 -2 6 -8v-211q146 76 275 76q132 0 203 -78.5t71 -228.5q0 -137 -55 -250.5t-158.5 -181.5t-236.5 -68q-43 0 -99 6v-369q0 -83 28 -107q19 -15 63 -15q23 0 53 4q8 2 10.5 -10 t-4.5 -15l-389 -55h-2q-4 0 -7 5t-2.5 11.5t5.5 7.5q68 10 84 37t16 123l4 977q-64 -48 -94 -72q-5 -3 -11 1t-10 11q-1 3 -1 5q0 3 1 4zM274 90q84 -33 164 -33q136 0 192 90t56 256q0 70 -10.5 124t-36 100.5t-73 71t-115.5 24.5q-87 0 -177 -41v-592z" />
<glyph unicode="q" horiz-adv-x="911" d="M74 238q0 110 38.5 215.5t103 185.5t153.5 129t184 49q101 0 164 -55q35 32 47 72q2 4 8.5 4t13 -3t5.5 -6l-7 -1194q0 -78 34 -107q24 -21 77 -21q22 0 49 4q10 4 10 -14q0 -8 -6 -9l-409 -51q-2 0 -4.5 1t-3.5 2.5t-2 4t-0.5 5.5t1 5t2 4t3.5 2q74 9 92 36.5t18 123.5 v674q-53 -151 -150.5 -236.5t-203.5 -85.5q-100 0 -158.5 71t-58.5 194zM199 350q0 -116 41 -188t125 -72q81 0 145.5 57.5t99.5 152t35 204.5q0 119 -45 176q-44 55 -124 55h-9q-119 0 -193.5 -109.5t-74.5 -275.5z" />
<glyph unicode="r" horiz-adv-x="753" d="M-23 662q111 147 230 147q63 0 93 -52.5t30 -191.5v-227q20 132 49.5 234t77.5 170.5t106 68.5q49 0 96 -30.5t48 -69.5q2 -30 -24 -57t-56 -27q-33 0 -66.5 26.5t-52.5 26.5q-45 0 -88 -117.5t-67 -270t-25 -274.5q0 -34 -84 -34q-56 0 -60 14q-1 3 0 26.5t2.5 61.5 t1.5 66l2 403v9q0 159 -69 159q-57 0 -125 -78q-4 -3 -9 -1.5t-9 7.5q-2 3 -2 7q0 2 1 4z" />
<glyph unicode="s" horiz-adv-x="667" d="M61 111q0 32 19.5 48.5t48.5 16.5q24 0 45.5 -15t39 -36t38 -42.5t51.5 -36.5t70 -15q104 0 104 106q-1 45 -23.5 84.5t-57 68.5t-76 56.5t-82.5 54.5t-75 56.5t-54.5 68.5t-20.5 84q0 86 80 143.5t190 57.5q89 0 152 -31.5t63 -79.5q3 -29 -17 -46t-48 -17t-50.5 13 t-38.5 31.5t-32.5 36.5t-43.5 31t-62 13q-42 0 -65 -20.5t-23 -57.5q0 -39 22 -75t57 -65t77 -57.5t84 -58t77 -60.5q34 -32 56 -72q21 -39 20 -81q0 -89 -82 -165q-78 -72 -203 -73q-92 0 -164.5 39.5t-75.5 94.5z" />
<glyph unicode="t" horiz-adv-x="645" d="M48 751.5q0 14.5 7 14.5q85 0 137 46t66 118q0 4 10 6q4 1 8 1q6 1 12 -1q10 -2 11 -8v-156q83 2 276 14q9 0 15 -6t6 -14q-2 -21 -22 -47t-42 -23q-163 21 -235 23l-2 -502q0 -79 32.5 -116.5t104.5 -37.5q92 0 195 89q5 3 13 -5q5 -5 5 -9q0 -3 -2 -5 q-86 -84 -155.5 -121t-141.5 -37q-85 0 -138 43t-52 146l2 463q0 72 -18.5 91t-84.5 19q-7 0 -7 14.5z" />
<glyph unicode="u" horiz-adv-x="1032" d="M-14 638q-2 3 -2 5t2 4q60 83 112 122.5t109 39.5q117 0 117 -166v-8l-11 -352v-19q-1 -95 27 -144q30 -54 88 -54q114 0 191 191.5t77 514.5q0 16 22 25.5t62 9.5q58 0 62 -14q1 -3 0 -25.5t-2.5 -60.5t-1.5 -68l-2 -457q0 -114 57 -114q47 0 127 92q4 4 10 2t10 -8 q3 -4 3 -7q0 -2 -1 -4q-63 -84 -115.5 -122.5t-109.5 -38.5q-121 0 -121 163v250q-40 -200 -127.5 -311t-210.5 -111q-182 0 -182 252v19l8 364v11q0 100 -55 100q-40 0 -121 -88q-5 -5 -12 -2t-10 9z" />
<glyph unicode="v" horiz-adv-x="956" d="M20 669q9 33 22 60.5t32.5 39.5t46 18t67.5 6h203q20 0 24 -5t-1 -20q-68 -239 -68 -406q0 -133 56 -201.5t141 -68.5q113 0 188.5 102.5t75.5 239.5q0 46 -9 80.5t-30.5 61.5t-31.5 36.5t-38 32.5q-71 51 -71 100q0 33 24 49.5t58 16.5q57 0 94.5 -49.5t51 -114.5 t13.5 -141v-7q0 -115 -32 -215q-32 -102 -87 -169t-123.5 -104.5t-140.5 -37.5q-109 0 -184.5 81.5t-75.5 201.5q0 53 14 110.5t41 136.5t37 113q11 28 5.5 41t-29.5 13h-117q-83 0 -110.5 -18.5t-36.5 -80.5q-1 -6 -8.5 -7t-14.5 3q-6 4 -6 9q0 19 20 93z" />
<glyph unicode="w" horiz-adv-x="1378" d="M20 669q9 33 22 60.5t32.5 39.5t46 18t67.5 6h203q20 0 24 -5t-1 -20q-64 -224 -64 -388v-15q1 -139 56 -208t137 -69q91 0 159 78q-69 148 -69 348q0 133 32 211t93 78q54 0 85 -59t31 -181q0 -200 -79 -358q87 -111 198 -111q94 0 159 81t65 224q0 94 -29.5 149.5 t-83.5 102.5q-31 27 -46.5 48t-15.5 49q0 32 24 47.5t60 15.5q43 0 75 -28.5t49 -76.5t25.5 -101.5t8.5 -112.5q0 -115 -29.5 -214.5t-78 -165t-108.5 -102.5t-122 -37q-124 0 -213 138q-109 -138 -248 -138q-116 0 -186 77t-70 204q0 22 2.5 47.5t5 45t10 49.5t11.5 45 t15 48.5t14 42.5t16 45t14 39q12 29 6.5 41.5t-30.5 12.5h-117q-82 0 -110 -19.5t-37 -81.5q-1 -6 -8.5 -6.5t-14.5 3.5q-6 4 -6 10q0 19 20 93zM674 535q0 -149 86 -285q57 114 57 258q0 149 -78 149q-33 0 -49 -34t-16 -88z" />
<glyph unicode="x" horiz-adv-x="931" d="M2 653q68 80 124 118t110 38q48 0 86.5 -31t80.5 -112l89 -170l83 166q45 93 73.5 120t78.5 27t97.5 -34t47.5 -77q2 -25 -15.5 -41t-47.5 -16q-33 0 -67.5 23.5t-57.5 23.5q-43 0 -74 -55l-96 -176l145 -279q53 -100 123 -100q59 0 127 74q4 5 11.5 2.5t10.5 -8.5 q1 -3 1 -5q0 -3 -2 -6q-66 -79 -122 -117t-110 -38q-47 0 -83 28.5t-78 104.5l-107 202l-92 -186q-48 -94 -75.5 -121.5t-78.5 -27.5q-50 0 -97 34t-48 78q0 25 17 41.5t48 16.5q33 0 67.5 -24t57.5 -24q44 0 74 56l107 196l-129 244q-60 115 -134 115q-54 0 -124 -76 q-7 -9 -19 3q-5 5 -5 8t3 5z" />
<glyph unicode="y" horiz-adv-x="968" d="M-18 647q62 83 114 122.5t109 39.5q117 0 117 -166v-8l-11 -352v-20q0 -197 113 -197q110 0 186.5 177t83.5 478v57q0 12 20 20.5t54 8.5q71 0 74 -12q0 -3 -1 -26.5t-2.5 -61t-2.5 -68.5l-5 -782q-3 -193 -105.5 -312.5t-281.5 -119.5q-116 0 -192.5 45t-73.5 110 q0 40 20 59t48 19q26 0 46 -14t32 -35t29 -46t35 -46t51.5 -35t78.5 -14q39 0 68.5 14.5t55 50t38.5 104.5q12 64 12 156v14v584q-40 -197 -127 -307.5t-209 -110.5q-184 0 -184 247v24l10 364v11q0 100 -55 100q-45 0 -123 -88q-6 -4 -11.5 -2t-9.5 8q-2 3 -2 6q0 2 1 4z " />
<glyph unicode="z" horiz-adv-x="755" d="M39 6l500 627q-20 -4 -39 -4q-52 0 -177.5 24.5t-160.5 24.5q-76 0 -90 -86q-2 -10 -16 -7q-13 3 -9 13q12 77 22 116t28 62t39 27.5t63 3.5q47 -3 183 -27.5t200 -27.5q37 0 61 12t49 47q2 1 4 1q4 0 8 -2q8 -4 12.5 -9t2.5 -8l-496 -629q20 4 37 4q60 0 206.5 -23.5 t184.5 -23.5q36 0 55.5 20t30.5 68q0 4 6.5 4.5t12.5 -2.5t6 -7q0 -22 -18 -98q-8 -36 -17.5 -62t-24.5 -36.5t-32.5 -14.5t-46.5 -3q-63 1 -220.5 27t-224.5 28q-35 0 -60 -12.5t-52 -46.5q-1 -1 -3 -1q-3 0 -8 2q-7 4 -13 10q-4 4 -4 7q0 1 1 2z" />
<glyph unicode="{" horiz-adv-x="591" d="M60 623.5q0 13.5 6 13.5q38 5 66 34.5t44 70.5t25 102t11.5 115t2.5 124q0 134 11 209t46.5 120.5t89 59t150.5 13.5q8 0 8 -12.5t-8 -12.5q-67 0 -103 -56t-38 -161q-3 -135 -5 -194t-11 -137.5t-21.5 -109t-39 -70.5t-62 -61.5t-91.5 -45.5q56 -25 92 -47.5t62 -64 t39 -72.5t21 -110t10.5 -137.5t5.5 -191.5q2 -105 38 -161t103 -56q8 0 8 -12.5t-8 -12.5q-98 0 -152 14t-89 60.5t-45.5 121t-10.5 208.5q0 71 -2.5 125.5t-11.5 115.5t-25 101.5t-44 69.5t-66 34q-6 0 -6 13.5z" />
<glyph unicode="|" horiz-adv-x="344" d="M133 -315v1812q0 13 42 13t42 -13v-1812q0 -15 -42 -15t-42 15z" />
<glyph unicode="}" horiz-adv-x="579" d="M60 -227.5q0 12.5 8 12.5q67 0 103 56t38 161q7 282 21 368q20 119 84 179q43 40 124 76q-42 18 -71.5 34t-54 42t-39.5 43.5t-27 62t-17.5 72t-10 98t-6 116.5t-3.5 150q-2 105 -38 161t-103 56q-8 0 -8 12.5t8 12.5q97 0 150.5 -13.5t89 -59t46.5 -120.5t11 -209 q0 -70 2.5 -124t11.5 -115t25 -102t44 -70.5t66 -34.5q6 0 6 -13.5t-6 -13.5q-38 -5 -66 -34t-44 -69.5t-25 -101.5t-11.5 -115.5t-2.5 -125.5q0 -134 -10.5 -208.5t-45.5 -121t-89 -60.5t-152 -14q-8 0 -8 12.5z" />
<glyph unicode="~" horiz-adv-x="907" d="M98 313q119 174 238 174q41 0 143.5 -36.5t163.5 -36.5q40 0 72 14t46.5 27.5t35.5 38.5q5 3 11.5 -4t2.5 -11q-75 -104 -121 -139t-102 -35t-159 37t-165 37q-20 0 -36.5 -3.5t-26.5 -6t-25 -13.5t-19 -14.5t-22 -21t-22 -21.5q-3 -3 -10.5 3.5t-4.5 10.5z" />
<glyph unicode="&#xa1;" horiz-adv-x="516" d="M147 -541q62 278 93 879q0 8 21.5 8t21.5 -8q11 -214 16.5 -306.5t24.5 -271.5t45 -301q1 -7 -17 -12t-43 -7.5t-51 -2.5q-41 0 -77.5 6t-33.5 16zM164 647q0 48 25.5 74.5t72.5 26.5q46 0 73 -27t27 -74q0 -44 -27 -70t-73 -26q-47 0 -72.5 25.5t-25.5 70.5z" />
<glyph unicode="&#xa2;" horiz-adv-x="1097" d="M70 483q0 196 139 335t354 161v170q0 15 24.5 15t24.5 -15v-166h23q78 0 167 -15.5t144 -43.5q14 -6 18.5 -12.5t6.5 -22.5l16 -211q0 -6 -10.5 -7.5t-13.5 5.5q-97 266 -351 272v-938q12 -2 37 -2q241 0 332 279q3 7 14 5.5t11 -7.5l-23 -217q-1 -17 -6 -23t-23 -14 q-163 -56 -329 -56h-13v-184q0 -13 -24.5 -13t-24.5 13v186q-106 8 -192 44.5t-140.5 87.5t-92 116.5t-53 129.5t-15.5 128zM248 514q0 -112 32.5 -213.5t105.5 -181t177 -101.5v928q-142 -13 -228.5 -133t-86.5 -299z" />
<glyph unicode="&#xa3;" horiz-adv-x="884" d="M47 12q0 12 6 13q107 26 143.5 74.5t34.5 129.5q-2 107 -36 217h-93q-15 0 -15 25t15 25h76q-35 111 -35 182q0 79 30 139.5t81.5 95.5t114.5 52.5t135 17.5q100 0 184 -31q30 -12 33 -39l14 -208q0 -9 -10.5 -9t-13.5 9q-78 243 -238 243q-65 0 -107 -31.5t-57.5 -75 t-15.5 -98.5q0 -42 9 -91t16 -72t26 -84h217q13 0 13 -25t-13 -25h-205q21 -79 21 -143q0 -78 -26.5 -127t-74.5 -86h238q130 0 173.5 30t66.5 136q0 4 6 5t12 -1t6 -6q-18 -103 -18 -223q0 -17 -7 -24t-24 -7h-676q-6 0 -6 12z" />
<glyph unicode="&#xa4;" horiz-adv-x="847" d="M100 698l64 60l104 -113q77 41 164 41q88 0 158 -45l102 109l51 -52l-100 -100q72 -78 72 -186q0 -106 -70 -179l100 -100l-65 -61l-100 110q-79 -49 -179 -49q-85 0 -147 41l-90 -102l-55 53l90 94q-74 83 -74 195q0 111 78 182zM248 457q0 -70 19 -132.5t64 -107.5 t109 -45q67 0 106.5 51.5t39.5 145.5q0 112 -54 195t-147 83q-63 0 -100 -48.5t-37 -141.5z" />
<glyph unicode="&#xa5;" horiz-adv-x="997" d="M-4 946q0 12 4 12q20 0 71 -3t70 -3q53 0 152.5 3t126.5 3q4 0 4 -12t-4 -12q-136 0 -74 -96l213 -326l135 240q46 80 30 131t-87 51q-6 0 -6 12t6 12q32 0 99.5 -3t123.5 -3q28 0 65 3t58 3q5 0 5 -12t-5 -12q-131 0 -242 -184l-161 -277v-37h202q14 0 14 -23.5 t-14 -23.5h-202v-84h202q14 0 14 -22.5t-14 -22.5h-202v-94q0 -90 29.5 -115.5t138.5 -25.5q4 0 4 -12.5t-4 -12.5q-32 0 -113.5 2t-132.5 2q-46 0 -130 -2t-116 -2q-6 0 -6 12.5t6 12.5q107 0 138.5 26t31.5 115v94h-209q-13 0 -13 22.5t13 22.5h209v84h-209 q-13 0 -13 23.5t13 23.5h209v2l-227 350q-54 80 -98 113t-101 33q-4 0 -4 12z" />
<glyph unicode="&#xa6;" horiz-adv-x="344" d="M133 -315v757q0 15 42 15t42 -15v-757q0 -15 -42 -15t-42 15zM133 737v760q0 13 42 13t42 -13v-760q0 -13 -42 -13t-42 13z" />
<glyph unicode="&#xa7;" horiz-adv-x="933" d="M156 455q0 76 29 134.5t112 131.5q-84 81 -84 182q0 67 27.5 120t74 84.5t102.5 47.5t118 16q107 0 178 -38q20 -10 20 -33l17 -213q0 -6 -11.5 -6t-11.5 6q-8 31 -31 70t-56.5 77.5t-81.5 64t-97 25.5q-56 0 -90.5 -36.5t-34.5 -110.5q0 -47 16.5 -88t44.5 -71.5 t64.5 -59t76.5 -54t80.5 -52t77 -58.5t64.5 -68.5t44.5 -86t16.5 -107.5q0 -77 -29.5 -136.5t-113.5 -132.5q84 -77 84 -180q0 -54 -18 -99t-48.5 -76t-72 -52t-87 -31t-94.5 -10q-106 0 -178 37q-22 15 -22 35l-17 213q0 6 11.5 6t13.5 -6q8 -31 30.5 -70t56 -77.5 t81 -64.5t96.5 -26q57 0 91 36t34 109q0 47 -16.5 88t-44.5 72t-64 59.5t-76.5 54t-80.5 52.5t-76 59.5t-64 69t-44.5 86t-16.5 107.5zM272 535q0 -62 19 -115t48 -89.5t71.5 -72.5t81 -60.5t86 -56.5t77.5 -57q50 65 50 166q0 73 -25 132.5t-71 103.5t-91 76t-105.5 71 t-93.5 67q-47 -62 -47 -165z" />
<glyph unicode="&#xa8;" horiz-adv-x="563" d="M23 1063q0 41 26 65.5t70 24.5q43 0 67.5 -24.5t24.5 -65.5q0 -44 -24.5 -69t-67.5 -25q-44 0 -70 25t-26 69zM352 1063q0 42 25 66t69 24q43 0 68 -24.5t25 -65.5q0 -44 -25 -69t-68 -25q-44 0 -69 25t-25 69z" />
<glyph unicode="&#xa9;" horiz-adv-x="1478" d="M145 387q0 183 97 331t251 227t330 79q117 0 216.5 -38.5t165 -103.5t102 -150.5t36.5 -180.5q0 -92 -39 -178t-106 -150.5t-163.5 -103.5t-205.5 -39q-96 0 -169.5 28t-116 74.5t-63.5 101.5t-21 115q0 80 31.5 147t82.5 109.5t114 66t128 23.5q50 0 95 -12t76 -37.5 t32 -58.5q0 -30 -18.5 -50t-51.5 -20q-44 0 -78 62q-17 27 -26.5 39t-33 25.5t-54.5 13.5q-81 0 -114.5 -62.5t-33.5 -185.5q0 -67 16 -123.5t50.5 -102.5t95 -72t141.5 -26q65 0 124.5 22.5t107 65.5t76 112t28.5 154q0 133 -63.5 244t-176 176.5t-249.5 65.5 q-118 0 -214.5 -42.5t-158.5 -116.5t-95.5 -171.5t-33.5 -208.5q0 -138 49 -251.5t130 -183.5t181.5 -108t208.5 -38q116 0 205 20t193 78q3 2 6.5 -1t5 -7.5t-1.5 -7.5q-111 -85 -223.5 -116.5t-245.5 -31.5q-91 0 -179 23.5t-168 73t-140.5 119t-96 168.5t-35.5 214z" />
<glyph unicode="&#xaa;" horiz-adv-x="598" d="M16 893q-1 89 43.5 183t118 157t148.5 63q63 0 102 -34q21 21 27 45q1 3 11.5 1.5t10.5 -5.5l-4 -429q0 -69 35 -69q30 0 84 63q5 3 14 -3.5t6 -10.5q-83 -109 -153 -109q-40 0 -57 30t-17 99l-2 105q-39 -113 -107.5 -176.5t-142.5 -63.5q-51 0 -83.5 37.5t-33.5 116.5z M32.5 627.5q1.5 13.5 6.5 13.5h508q7 0 9.5 -13.5t0.5 -27.5t-8 -14h-508q-6 0 -8 14t-0.5 27.5zM100 965q0 -77 21.5 -113.5t56.5 -36.5q47 0 95 49t78 121t32 139q3 53 -25.5 86.5t-78.5 32.5q-75 -1 -126 -81.5t-53 -196.5z" />
<glyph unicode="&#xab;" horiz-adv-x="946" d="M108 410.5q0 14.5 9 23.5l370 305q2 3 6.5 2t7.5 -5t1 -7l-232 -317l232 -318q2 -7 -7 -13q-6 -3 -8 1l-370 305q-9 9 -9 23.5zM431 410.5q0 14.5 9 23.5l371 305q2 3 6 2t7 -5t1 -7l-231 -317l231 -318q2 -6 -6 -13q-6 -4 -8 1l-371 305q-9 9 -9 23.5z" />
<glyph unicode="&#xac;" horiz-adv-x="808" d="M61.5 529.5q1.5 21.5 6.5 21.5h677v-393q0 -6 -21.5 -8t-43 -0.5t-21.5 6.5v309h-589q-6 0 -8 21.5t-0.5 43z" />
<glyph unicode="&#xad;" horiz-adv-x="577" d="M56 410.5q1 24.5 5 25.5l439 72q6 1 8 -22.5t0 -48t-8 -25.5l-434 -72q-6 -1 -8.5 22.5t-1.5 48z" />
<glyph unicode="&#xae;" horiz-adv-x="1529" d="M145 870q0 135 55 251.5t147 195t212.5 123.5t251.5 45q130 0 240.5 -44.5t185.5 -120.5t116.5 -178.5t41.5 -217.5q0 -176 -86.5 -323.5t-235 -232.5t-323.5 -85q-90 0 -177 24.5t-164.5 74.5t-136 119t-93 164.5t-34.5 204.5zM246 930q0 -134 48.5 -247.5t129 -187 t181.5 -114.5t208 -41q226 0 355.5 143t129.5 379q0 255 -157 414.5t-400 159.5q-121 0 -217.5 -41t-156 -112t-90.5 -161t-31 -192zM480 569.5q0 12.5 3 12.5q60 0 76 15.5t16 76.5v440q0 56 -16.5 73t-75.5 17q-3 0 -3 12.5t3 12.5q19 0 71 -1t77 -1t85 3t83 3 q192 0 192 -137q0 -117 -112 -176q94 -185 147.5 -256t126.5 -89q5 -1 5 -9.5t-5 -8.5h-174q-35 0 -197 332q-41 -8 -102 -8v-207q0 -61 16.5 -76.5t81.5 -15.5q4 0 4 -12.5t-4 -12.5q-18 0 -66.5 2t-80.5 2q-26 0 -79 -2t-69 -2q-3 0 -3 12.5zM680 918q106 -12 153.5 17 t47.5 116q0 155 -117 155q-52 0 -68 -15t-16 -83v-190z" />
<glyph unicode="&#xaf;" horiz-adv-x="681" d="M89 1009.5q0 34.5 15 34.5h480q15 0 15 -34.5t-15 -34.5h-480q-15 0 -15 34.5z" />
<glyph unicode="&#xb0;" horiz-adv-x="679" d="M59 1030q0 108 79 184t204 76t202 -75.5t77 -188.5q0 -112 -77.5 -187t-201.5 -75q-126 0 -204.5 76t-78.5 190zM193 1036q0 -57 7.5 -99t25 -77t50 -53.5t80.5 -18.5q43 0 71 15.5t42 48t18.5 69t4.5 91.5q0 128 -39.5 191t-122.5 63q-34 0 -59 -11.5t-40 -31 t-23.5 -50.5t-11.5 -62.5t-3 -74.5z" />
<glyph unicode="&#xb1;" horiz-adv-x="815" d="M61.5 60.5q1.5 19.5 6.5 19.5h677q9 0 9 -39t-9 -39h-675q-6 0 -8 19.5t-0.5 39zM61.5 539q1.5 22 6.5 22h294v295q0 9 44.5 9t44.5 -9v-295h294q9 0 9 -44t-9 -44h-294v-293q0 -6 -22.5 -8t-44.5 -0.5t-22 6.5v295h-292q-6 0 -8 22t-0.5 44z" />
<glyph unicode="&#xb2;" horiz-adv-x="514" d="M55 838q15 54 47 109t66.5 99t66.5 88.5t53 93.5t21 99q0 58 -26 88.5t-70 30.5q-47 0 -83 -32.5t-50 -80.5q-2 -9 -16 -5q-10 3 -7 9q46 156 199 156q83 0 126.5 -41t43.5 -106q0 -45 -26 -92.5t-65.5 -89t-80 -81t-76 -82t-47.5 -77.5q-3 -6 4 -6q69 0 108.5 1t76 5 t53 9.5t30.5 18t20 27t11 39.5q0 3 8.5 3t8.5 -3l-2 -182q0 -11 -11 -11h-375q-11 0 -8 13z" />
<glyph unicode="&#xb3;" horiz-adv-x="514" d="M45 954q-1 5 5 8t12.5 2t7.5 -6q15 -49 53 -76.5t88 -27.5q51 0 88 37.5t37 120.5q0 106 -55 159q-46 -24 -66 -32q-5 -3 -10 0.5t-6.5 8.5t0.5 7q52 30 81 77t29 99q0 49 -28 80t-72 31q-45 0 -80 -31t-47 -78q-1 -5 -7.5 -6t-12.5 2t-5 8q46 156 195 156 q84 0 129 -42.5t45 -100.5q0 -77 -115 -158q65 -23 103.5 -68.5t38.5 -99.5q0 -76 -64 -143.5t-166 -67.5q-77 0 -118 37t-60 104z" />
<glyph unicode="&#xb4;" horiz-adv-x="434" d="M119 975l94 491q3 15 79 28q72 10 70 -5l-219 -520q-3 -4 -8.5 -3.5t-11 3.5t-4.5 6z" />
<glyph unicode="&#xb6;" horiz-adv-x="1320" d="M111 791q0 243 149 369t414 126q41 0 140.5 -6t162.5 -6q40 0 116.5 3t108.5 3q6 0 6 -12.5t-6 -12.5q-88 0 -135 -42.5t-47 -122.5l4 -977q0 -264 -78 -386t-252 -122q-65 0 -104 27t-39 71q0 35 19.5 56.5t56.5 21.5q39 0 58.5 -21t23.5 -45.5t19.5 -45.5t45.5 -21 q51 0 72.5 82t21.5 286v240q-64 -6 -139 -6q-91 0 -175.5 16.5t-166.5 57t-142 100.5t-97 154.5t-37 212.5z" />
<glyph unicode="&#xb7;" horiz-adv-x="399" d="M98 412q0 44 27.5 70t73.5 26q47 0 72.5 -25.5t25.5 -70.5q0 -48 -25.5 -74.5t-72.5 -26.5q-46 0 -73.5 27t-27.5 74z" />
<glyph unicode="&#xb8;" horiz-adv-x="401" d="M29 -465q-1 27 14 40t41 13t46 -17.5t30 -38.5t27 -38.5t38 -17.5q26 0 41 17.5t15 49.5q-5 59 -115 174q-60 60 -31 160l39 123h29q-11 -37 -11.5 -66t10.5 -55t25.5 -46t40.5 -46q97 -100 94 -172q1 -29 -9.5 -58.5t-32 -57t-59.5 -45t-87 -17.5q-61 0 -103.5 26.5 t-41.5 71.5z" />
<glyph unicode="&#xb9;" horiz-adv-x="536" d="M62.5 1365.5q-0.5 5.5 3.5 8.5l249 117q7 3 14 -2.5t7 -11.5v-486q0 -99 19 -120t108 -21q6 0 6 -12.5t-6 -12.5q-23 0 -83 2t-97 2q-39 0 -104.5 -2t-88.5 -2q-6 0 -6 12.5t6 12.5q93 0 114 21.5t21 119.5v242v16v53t-2.5 38.5t-5 29t-11 14.5t-17 6.5t-26.5 -5 t-36 -11.5t-49 -22q-5 -2 -10 3t-5.5 10.5z" />
<glyph unicode="&#xba;" horiz-adv-x="581" d="M18 1020q0 124 79.5 197t187.5 73q114 0 181.5 -81t65.5 -195q0 -123 -79.5 -201t-188.5 -78q-112 0 -180 83.5t-66 201.5zM41.5 627.5q1.5 13.5 5.5 13.5h500q10 0 9.5 -27.5t-9.5 -27.5h-496q-6 0 -8.5 14t-1 27.5zM117 1065q0 -124 52 -208.5t132 -84.5q60 0 96.5 52 t36.5 145q2 119 -52 201.5t-138 82.5q-59 0 -93 -46t-34 -142z" />
<glyph unicode="&#xbb;" horiz-adv-x="946" d="M121 94l231 316l-231 319q-2 5 6 11q6 4 8 -1l371 -305q9 -9 9 -23.5t-9 -23.5l-371 -305q-4 -7 -11 1q-5 6 -3 11zM444 94l232 316l-232 319q-1 2 2 6t7 5.5t6 -1.5l370 -305q9 -9 9 -23.5t-9 -23.5l-370 -305q-4 -8 -13 2q-3 6 -2 10z" />
<glyph unicode="&#xbc;" horiz-adv-x="1232" d="M62.5 1173q-0.5 6 3.5 9l249 116q7 3 14 -3t7 -11v-487q0 -36 1 -55.5t6 -38t12 -26t22.5 -14t34.5 -7.5t51 -1q6 0 6 -11t-6 -11q-23 0 -83 2t-97 2q-39 0 -104.5 -2t-88.5 -2q-6 0 -6 11t6 11q92 0 113.5 22.5t21.5 119.5v243v16v53t-2.5 38.5t-5 29t-11 14.5t-17 6.5 t-26.5 -5t-36 -11.5t-49 -22q-5 -2 -10 3t-5.5 11zM326 23l571 1263q4 7 30.5 -4.5t24.5 -17.5l-571 -1266q-1 -2 -7 -0.5t-14.5 5t-16.5 7.5t-13 7.5t-4 5.5zM725 198.5q-4 5.5 0 10.5l328 450q6 7 23.5 5.5t17.5 -7.5v-426q15 1 45.5 2.5t42.5 2.5q4 0 4 -28t-4 -28 q-15 1 -44 2t-44 2v-100q0 -40 13 -50.5t75 -10.5q2 0 2 -12.5t-2 -12.5q-18 0 -60 1t-71 1q-34 0 -90 -1t-76 -1q-5 0 -5 12.5t5 12.5q70 0 88 10t18 51v104q-175 5 -256 5q-6 0 -10 5.5zM801 229q-3 -6 4 -6q84 0 186 4v289z" />
<glyph unicode="&#xbd;" horiz-adv-x="1249" d="M62.5 1173q-0.5 6 3.5 9l249 116q7 3 14 -3t7 -11v-487q0 -36 1 -55.5t6 -38t12 -26t22.5 -14t34.5 -7.5t51 -1q6 0 6 -11t-6 -11q-23 0 -83 2t-97 2q-39 0 -104.5 -2t-88.5 -2q-6 0 -6 11t6 11q92 0 113.5 22.5t21.5 119.5v243v16v53t-2.5 38.5t-5 29t-11 14.5t-17 6.5 t-26.5 -5t-36 -11.5t-49 -22q-5 -2 -10 3t-5.5 11zM326 23l571 1263q4 7 30.5 -4.5t24.5 -17.5l-571 -1266q-1 -2 -7 -0.5t-14.5 5t-16.5 7.5t-13 7.5t-4 5.5zM791 12q15 54 47 109t66 99t66.5 88.5t53 94t20.5 99.5q0 58 -26 88.5t-70 30.5q-48 0 -83.5 -32t-49.5 -81 q-2 -9 -16 -4q-8 3 -6 8q46 156 198 156q82 0 126 -41t44 -105q0 -46 -26 -93.5t-65.5 -89.5t-80 -81.5t-76 -82t-47.5 -77.5q-3 -6 4 -6q69 0 109 1t75.5 5t52.5 9.5t31 18.5t20 27.5t11 39.5q0 5 8.5 5t8.5 -5l-2 -183q0 -10 -10 -10h-375q-11 0 -8 12z" />
<glyph unicode="&#xbe;" horiz-adv-x="1210" d="M45 762q-1 5 5 8t12.5 2t7.5 -6q15 -49 53 -76.5t88 -27.5q51 0 88 37t37 120q0 107 -55 160q-54 -28 -66 -33q-5 -3 -10 0.5t-6.5 8.5t0.5 8q52 30 81 77t29 99q0 49 -28 79.5t-72 30.5q-45 0 -80 -30.5t-47 -77.5q-1 -5 -7.5 -6t-12.5 2t-5 8q46 155 195 155 q84 0 129 -42.5t45 -100.5q0 -77 -115 -158q65 -23 103.5 -69t38.5 -101q0 -74 -64 -141t-166 -67q-77 0 -118 37t-60 104zM303 23l571 1263q4 7 31 -4.5t25 -17.5l-572 -1266q-1 -2 -7 -0.5t-14.5 5t-16.5 7.5t-13 7.5t-4 5.5zM702 209l328 450q6 7 23.5 5.5t17.5 -7.5 v-426q15 1 45.5 2.5t42.5 2.5q5 0 5 -28t-5 -28q-15 1 -44 2t-44 2v-100q0 -40 13 -50.5t75 -10.5q1 0 1 -12.5t-1 -12.5q-17 0 -59 1t-72 1q-34 0 -90 -1t-76 -1q-4 0 -4 12.5t4 12.5q70 0 88.5 10t18.5 51v104q-175 5 -256 5q-6 0 -10.5 6t-0.5 10zM778 229q-3 -6 4 -6 q85 0 187 4v289z" />
<glyph unicode="&#xbf;" horiz-adv-x="669" d="M45 -319q0 33 8.5 64t17 51t32 48t32.5 38t41.5 40t38.5 35q69 65 99 122.5t30 129.5q0 20 -12 110q-1 4 5 7t12 3.5t9 -3.5q24 -55 39 -126.5t15 -119.5q0 -53 -20.5 -96t-50 -74t-58.5 -63t-49.5 -80.5t-20.5 -110.5q0 -84 35.5 -136t93.5 -52q41 0 56.5 25t21.5 67 q3 22 7 36.5t13 32.5t26.5 27.5t43.5 9.5q40 0 60 -23.5t20 -54.5q0 -63 -73.5 -107t-180.5 -44q-124 0 -207.5 63.5t-83.5 180.5zM250 639q0 47 25.5 73.5t72.5 26.5q46 0 73.5 -26.5t27.5 -73.5q0 -44 -27.5 -70t-73.5 -26q-47 0 -72.5 25.5t-25.5 70.5z" />
<glyph unicode="&#xc0;" horiz-adv-x="1331" d="M-24.5 12.5q-0.5 12.5 8.5 12.5q63 0 130 56.5t122 178.5l438 1040q3 6 21 5.5t22 -9.5l428 -1124q20 -50 31 -72t32.5 -42.5t50.5 -26.5t78 -6q6 0 6 -12.5t-6 -12.5q-36 0 -113 4t-124 4q-46 0 -118 -4t-108 -4q-8 0 -8 12.5t8 12.5q98 0 120 30.5t-11 116.5l-184 481 h-338l-158 -385q-30 -73 -35.5 -121t14 -74.5t57 -37t99.5 -10.5q6 0 8 -6.5t-0.5 -12.5t-9.5 -6q-29 0 -113.5 4t-129.5 4q-47 0 -110 -4t-99 -4q-8 0 -8.5 12.5zM479 700h301l-145 379zM479 1548q-26 7 30 31q73 31 121 35q11 0 15 -2q112 -91 258 -189q9 -5 1 -16 q-5 -8 -13 -4q-202 87 -412 145z" />
<glyph unicode="&#xc1;" horiz-adv-x="1331" d="M-24.5 12.5q-0.5 12.5 8.5 12.5q63 0 130 56.5t122 178.5l438 1040q3 6 21 5.5t22 -9.5l428 -1124q20 -50 31 -72t32.5 -42.5t50.5 -26.5t78 -6q6 0 6 -12.5t-6 -12.5q-36 0 -113 4t-124 4q-46 0 -118 -4t-108 -4q-8 0 -8 12.5t8 12.5q98 0 120 30.5t-11 116.5l-184 481 h-338l-158 -385q-30 -73 -35.5 -121t14 -74.5t57 -37t99.5 -10.5q6 0 8 -6.5t-0.5 -12.5t-9.5 -6q-29 0 -113.5 4t-129.5 4q-47 0 -110 -4t-99 -4q-8 0 -8.5 12.5zM479 700h301l-145 379zM552.5 1402.5q-0.5 5.5 2.5 8.5q62 38 156 111.5t116 89.5q14 11 105 -24 q73 -27 68 -37l-5 -3q-218 -57 -426 -157q-6 -3 -11 1.5t-5.5 10z" />
<glyph unicode="&#xc2;" horiz-adv-x="1331" d="M-24.5 12.5q-0.5 12.5 8.5 12.5q63 0 130 56.5t122 178.5l438 1040q3 6 21 5.5t22 -9.5l428 -1124q20 -50 31 -72t32.5 -42.5t50.5 -26.5t78 -6q6 0 6 -12.5t-6 -12.5q-36 0 -113 4t-124 4q-46 0 -118 -4t-108 -4q-8 0 -8 12.5t8 12.5q98 0 120 30.5t-11 116.5l-184 481 h-338l-158 -385q-30 -73 -35.5 -121t14 -74.5t57 -37t99.5 -10.5q6 0 8 -6.5t-0.5 -12.5t-9.5 -6q-29 0 -113.5 4t-129.5 4q-47 0 -110 -4t-99 -4q-8 0 -8.5 12.5zM479 700h301l-145 379zM483 1359q-3 4 0 7l187 211q8 9 19 9t20 -9l194 -211q3 -5 -1.5 -11.5t-10.5 -2.5 l-201 104l-192 -104q-2 -2 -7 0.5t-8 6.5z" />
<glyph unicode="&#xc3;" horiz-adv-x="1331" d="M-24.5 12.5q-0.5 12.5 8.5 12.5q63 0 130 56.5t122 178.5l438 1040q3 6 21 5.5t22 -9.5l428 -1124q20 -50 31 -72t32.5 -42.5t50.5 -26.5t78 -6q6 0 6 -12.5t-6 -12.5q-36 0 -113 4t-124 4q-46 0 -118 -4t-108 -4q-8 0 -8 12.5t8 12.5q98 0 120 30.5t-11 116.5l-184 481 h-338l-158 -385q-30 -73 -35.5 -121t14 -74.5t57 -37t99.5 -10.5q6 0 8 -6.5t-0.5 -12.5t-9.5 -6q-29 0 -113.5 4t-129.5 4q-47 0 -110 -4t-99 -4q-8 0 -8.5 12.5zM430 1432q74 139 162 139q27 0 118.5 -24.5t143.5 -24.5q38 0 59.5 12.5t44.5 40.5q3 2 7.5 0.5t8 -6 t1.5 -8.5q-43 -82 -75.5 -111t-76.5 -29q-40 0 -130.5 26t-141.5 26q-12 0 -22 -1.5t-17 -2.5t-15 -5.5t-11.5 -6.5t-11 -9t-9 -8.5t-10 -11.5t-9.5 -11q-3 -3 -11 4t-5 11zM479 700h301l-145 379z" />
<glyph unicode="&#xc4;" horiz-adv-x="1331" d="M-24.5 12.5q-0.5 12.5 8.5 12.5q63 0 130 56.5t122 178.5l438 1040q3 6 21 5.5t22 -9.5l428 -1124q20 -50 31 -72t32.5 -42.5t50.5 -26.5t78 -6q6 0 6 -12.5t-6 -12.5q-36 0 -113 4t-124 4q-46 0 -118 -4t-108 -4q-8 0 -8 12.5t8 12.5q98 0 120 30.5t-11 116.5l-184 481 h-338l-158 -385q-30 -73 -35.5 -121t14 -74.5t57 -37t99.5 -10.5q6 0 8 -6.5t-0.5 -12.5t-9.5 -6q-29 0 -113.5 4t-129.5 4q-47 0 -110 -4t-99 -4q-8 0 -8.5 12.5zM430 1552q0 41 26 65.5t70 24.5q43 0 67.5 -24.5t24.5 -65.5q0 -44 -24.5 -69t-67.5 -25q-44 0 -70 25 t-26 69zM479 700h301l-145 379zM760 1552q0 42 25 66t69 24q43 0 67.5 -24.5t24.5 -65.5q0 -44 -24.5 -69t-67.5 -25q-44 0 -69 25t-25 69z" />
<glyph unicode="&#xc5;" horiz-adv-x="1331" d="M-24.5 12.5q-0.5 12.5 8.5 12.5q63 0 130 56.5t122 178.5l438 1040q3 6 21 5.5t22 -9.5l428 -1124q20 -50 31 -72t32.5 -42.5t50.5 -26.5t78 -6q6 0 6 -12.5t-6 -12.5q-36 0 -113 4t-124 4q-46 0 -118 -4t-108 -4q-8 0 -8 12.5t8 12.5q98 0 120 30.5t-11 116.5l-184 481 h-338l-158 -385q-30 -73 -35.5 -121t14 -74.5t57 -37t99.5 -10.5q6 0 8 -6.5t-0.5 -12.5t-9.5 -6q-29 0 -113.5 4t-129.5 4q-47 0 -110 -4t-99 -4q-8 0 -8.5 12.5zM479 700h301l-145 379zM487 1520q0 74 65.5 116.5t145.5 42.5q78 0 134.5 -48t56.5 -115q0 -71 -64.5 -114.5 t-146.5 -43.5q-87 0 -139 48t-52 114zM596 1561q0 -69 31.5 -125t83.5 -56q35 0 51 24t16 75q0 71 -35.5 123.5t-85.5 52.5q-61 0 -61 -94z" />
<glyph unicode="&#xc6;" horiz-adv-x="1710" d="M-77.5 12.5q-0.5 12.5 9.5 12.5q89 0 159.5 51.5t160.5 195.5l545 906q29 48 16 61q-15 15 -121 16h-37q-11 0 -11 12.5t11 12.5h871q11 0 14.5 -4t3.5 -14q1 -31 3 -130.5t3 -132.5q-2 -6 -14 -5t-12 7q-15 114 -88.5 182t-186.5 68h-71q-105 0 -138.5 -29t-31.5 -110 l24 -422h240q96 0 137 35t43 115q0 8 13.5 8t13.5 -8v-174q0 -49 4 -197q0 -4 -6.5 -5.5t-13.5 0.5t-7 7q0 89 -46.5 130.5t-145.5 41.5h-230l27 -469q3 -87 31 -112t125 -25h116q96 0 171 75t108 201q1 3 8 3t12.5 -2.5t3.5 -6.5q-16 -118 -16 -276q0 -17 -7 -24t-26 -7 h-844q-11 0 -11 12.5t11 12.5q100 0 130 26.5t26 114.5l-25 477h-325l-238 -391q-69 -104 -37.5 -165.5t160.5 -61.5q10 0 9.5 -12.5t-9.5 -12.5q-39 0 -134.5 4t-149.5 4q-49 0 -114.5 -4t-103.5 -4q-9 0 -9.5 12.5zM578 690h294l-22 451z" />
<glyph unicode="&#xc7;" horiz-adv-x="1296" d="M84 649q0 194 100.5 345.5t260.5 230t346 78.5q98 0 199.5 -19t162.5 -49q17 -10 21 -18.5t6 -30.5l18 -242q0 -8 -8.5 -8.5t-11.5 6.5q-57 155 -177.5 234t-285.5 79q-212 0 -332.5 -147t-120.5 -399q0 -189 69.5 -350t192 -256t269.5 -95q122 0 225 79.5t176 240.5 q3 7 13 5.5t10 -9.5l-19 -228q-3 -26 -7.5 -34t-23.5 -15q-188 -72 -381 -72q-11 -58 7 -98.5t65 -89.5q97 -100 94 -172q1 -29 -9.5 -58.5t-32 -57t-59.5 -45t-87 -17.5q-61 0 -104 26.5t-42 71.5q-1 26 14.5 39.5t41.5 13.5t46 -17.5t30 -38.5t27 -38.5t38 -17.5 q55 0 55 67q-5 60 -114 174q-60 60 -31 160l31 98q-144 4 -260 46t-191.5 108.5t-126.5 154t-72.5 178.5t-21.5 187z" />
<glyph unicode="&#xc8;" horiz-adv-x="1146" d="M92 1267.5q0 12.5 6 12.5h869q16 0 16 -18q1 -30 3 -129t3 -132q0 -7 -12 -6.5t-14 6.5q-15 109 -84.5 175.5t-171.5 66.5h-142q-98 0 -123 -23t-28 -108v-422h299q95 0 135 33.5t39 114.5q0 6 6.5 8t13 -0.5t6.5 -9.5q0 -45 -1 -96.5t-1 -73.5q0 -32 2 -95.5t2 -101.5 q0 -9 -13 -9t-13 9q0 91 -44.5 132.5t-139.5 41.5h-291v-469q0 -85 27.5 -110t123.5 -25h187q101 0 181 75t114 199q2 4 9 4.5t13 -2.5t4 -8q-16 -118 -16 -276q0 -17 -7 -24t-26 -7h-924q-6 0 -6 12.5t6 12.5q101 0 128.5 25.5t27.5 115.5v948q-2 88 -31 114.5t-127 26.5 q-6 0 -6 12.5zM371 1548q-26 7 30 31q73 31 121 35q11 0 15 -2q112 -91 258 -189q4 -4 3.5 -9.5t-5.5 -9.5t-11 -1q-204 88 -411 145z" />
<glyph unicode="&#xc9;" horiz-adv-x="1146" d="M92 1267.5q0 12.5 6 12.5h869q16 0 16 -18q1 -30 3 -129t3 -132q0 -7 -12 -6.5t-14 6.5q-15 109 -84.5 175.5t-171.5 66.5h-142q-98 0 -123 -23t-28 -108v-422h299q95 0 135 33.5t39 114.5q0 6 6.5 8t13 -0.5t6.5 -9.5q0 -45 -1 -96.5t-1 -73.5q0 -32 2 -95.5t2 -101.5 q0 -9 -13 -9t-13 9q0 91 -44.5 132.5t-139.5 41.5h-291v-469q0 -85 27.5 -110t123.5 -25h187q101 0 181 75t114 199q2 4 9 4.5t13 -2.5t4 -8q-16 -118 -16 -276q0 -17 -7 -24t-26 -7h-924q-6 0 -6 12.5t6 12.5q101 0 128.5 25.5t27.5 115.5v948q-2 88 -31 114.5t-127 26.5 q-6 0 -6 12.5zM444 1402.5q-1 5.5 2 8.5q62 39 157 112.5t116 88.5q14 11 105 -24q73 -27 68 -37l-5 -3q-218 -57 -426 -157q-6 -3 -11 1.5t-6 10z" />
<glyph unicode="&#xca;" horiz-adv-x="1146" d="M92 1267.5q0 12.5 6 12.5h869q16 0 16 -18q1 -30 3 -129t3 -132q0 -7 -12 -6.5t-14 6.5q-15 109 -84.5 175.5t-171.5 66.5h-142q-98 0 -123 -23t-28 -108v-422h299q95 0 135 33.5t39 114.5q0 6 6.5 8t13 -0.5t6.5 -9.5q0 -45 -1 -96.5t-1 -73.5q0 -32 2 -95.5t2 -101.5 q0 -9 -13 -9t-13 9q0 91 -44.5 132.5t-139.5 41.5h-291v-469q0 -85 27.5 -110t123.5 -25h187q101 0 181 75t114 199q2 4 9 4.5t13 -2.5t4 -8q-16 -118 -16 -276q0 -17 -7 -24t-26 -7h-924q-6 0 -6 12.5t6 12.5q101 0 128.5 25.5t27.5 115.5v948q-2 88 -31 114.5t-127 26.5 q-6 0 -6 12.5zM375 1366l186 211q7 9 18.5 9t20.5 -9l195 -211q3 -5 -2 -11.5t-11 -2.5l-200 104l-193 -104q-4 -4 -12 5q-6 5 -2 9z" />
<glyph unicode="&#xcb;" horiz-adv-x="1146" d="M92 1267.5q0 12.5 6 12.5h869q16 0 16 -18q1 -30 3 -129t3 -132q0 -7 -12 -6.5t-14 6.5q-15 109 -84.5 175.5t-171.5 66.5h-142q-98 0 -123 -23t-28 -108v-422h299q95 0 135 33.5t39 114.5q0 6 6.5 8t13 -0.5t6.5 -9.5q0 -45 -1 -96.5t-1 -73.5q0 -32 2 -95.5t2 -101.5 q0 -9 -13 -9t-13 9q0 91 -44.5 132.5t-139.5 41.5h-291v-469q0 -85 27.5 -110t123.5 -25h187q101 0 181 75t114 199q2 4 9 4.5t13 -2.5t4 -8q-16 -118 -16 -276q0 -17 -7 -24t-26 -7h-924q-6 0 -6 12.5t6 12.5q101 0 128.5 25.5t27.5 115.5v948q-2 88 -31 114.5t-127 26.5 q-6 0 -6 12.5zM322 1552q0 41 26 65.5t70 24.5q43 0 67.5 -24.5t24.5 -65.5q0 -44 -24.5 -69t-67.5 -25q-44 0 -70 25t-26 69zM651 1552q0 42 25 66t69 24q43 0 68 -24.5t25 -65.5q0 -44 -25 -69t-68 -25q-44 0 -69 25t-25 69z" />
<glyph unicode="&#xcc;" horiz-adv-x="690" d="M100.5 1267.5q-0.5 12.5 5.5 12.5q28 0 107 -3t127 -3q55 0 135.5 3t106.5 3q6 0 6 -12.5t-6 -12.5q-98 0 -126 -27.5t-30 -117.5v-944q2 -90 30 -115.5t126 -25.5q4 0 5.5 -6.5t0.5 -12.5t-4 -6q-29 0 -107 2t-131 2q-47 0 -128 -2t-109 -2q-4 0 -6 6t-1 12.5t4 6.5 q101 0 130 26t28 115v948q0 88 -30 114.5t-128 26.5q-5 0 -5.5 12.5zM127 1548q-26 7 30 31q73 31 121 35q11 1 15 -2q112 -91 258 -189q9 -5 1 -16q-5 -8 -13 -4q-202 87 -412 145z" />
<glyph unicode="&#xcd;" horiz-adv-x="690" d="M100.5 1267.5q-0.5 12.5 5.5 12.5q28 0 107 -3t127 -3q55 0 135.5 3t106.5 3q6 0 6 -12.5t-6 -12.5q-98 0 -126 -27.5t-30 -117.5v-944q2 -90 30 -115.5t126 -25.5q4 0 5.5 -6.5t0.5 -12.5t-4 -6q-29 0 -107 2t-131 2q-47 0 -128 -2t-109 -2q-4 0 -6 6t-1 12.5t4 6.5 q101 0 130 26t28 115v948q0 88 -30 114.5t-128 26.5q-5 0 -5.5 12.5zM200.5 1402.5q-0.5 5.5 2.5 8.5q62 38 156 111.5t116 89.5q14 11 105 -24q73 -27 68 -37l-5 -3q-218 -57 -426 -157q-6 -3 -11 1.5t-5.5 10z" />
<glyph unicode="&#xce;" horiz-adv-x="690" d="M100.5 1267.5q-0.5 12.5 5.5 12.5q28 0 107 -3t127 -3q55 0 135.5 3t106.5 3q6 0 6 -12.5t-6 -12.5q-98 0 -126 -27.5t-30 -117.5v-944q2 -90 30 -115.5t126 -25.5q4 0 5.5 -6.5t0.5 -12.5t-4 -6q-29 0 -107 2t-131 2q-47 0 -128 -2t-109 -2q-4 0 -6 6t-1 12.5t4 6.5 q101 0 130 26t28 115v948q0 88 -30 114.5t-128 26.5q-5 0 -5.5 12.5zM131 1366l186 211q8 9 19 9t20 -9l195 -211q3 -5 -1.5 -11.5t-10.5 -2.5l-201 104l-193 -104q-4 -4 -12 5q-6 5 -2 9z" />
<glyph unicode="&#xcf;" horiz-adv-x="690" d="M100 1552q0 41 26.5 65.5t70.5 24.5q43 0 67.5 -24.5t24.5 -65.5q0 -44 -24.5 -69t-67.5 -25q-45 0 -71 25t-26 69zM100.5 1267.5q-0.5 12.5 5.5 12.5q28 0 107 -3t127 -3q55 0 135.5 3t106.5 3q6 0 6 -12.5t-6 -12.5q-98 0 -126 -27.5t-30 -117.5v-944q2 -90 30 -115.5 t126 -25.5q4 0 5.5 -6.5t0.5 -12.5t-4 -6q-29 0 -107 2t-131 2q-47 0 -128 -2t-109 -2q-4 0 -6 6t-1 12.5t4 6.5q101 0 130 26t28 115v948q0 88 -30 114.5t-128 26.5q-5 0 -5.5 12.5zM391 1552q0 41 26 65.5t70 24.5q43 0 68 -24.5t25 -65.5q0 -44 -25 -69t-68 -25 q-44 0 -70 25t-26 69z" />
<glyph unicode="&#xd0;" horiz-adv-x="1372" d="M68 638q0 24 8 24h168v452q-3 88 -32.5 114.5t-125.5 26.5q-6 0 -6 12.5t6 12.5q28 0 109 -3t129 -3q43 0 131.5 5t124.5 5q156 0 288.5 -47t224.5 -129.5t143.5 -197.5t51.5 -248q0 -149 -55.5 -276t-149 -212.5t-216.5 -133.5t-257 -48q-35 0 -135.5 6t-146.5 6 q-51 0 -132.5 -2t-109.5 -2q-6 0 -6 12.5t6 12.5q100 0 129.5 26t28.5 115v448h-168q-8 0 -8 24zM403 188q0 -88 39.5 -124.5t149.5 -36.5q233 0 373.5 154.5t140.5 434.5q0 100 -20.5 192t-63 173t-103.5 141t-146.5 94.5t-186.5 34.5q-105 0 -144 -29t-39 -112v-448h209 q9 0 9 -24t-9 -24h-209v-426z" />
<glyph unicode="&#xd1;" horiz-adv-x="1445" d="M68 1267.5q0 12.5 6 12.5q26 0 84 -2t78 -2q25 0 67 2t47 2q16 0 24 -7.5t26.5 -39t39.5 -59.5l725 -938v819q0 102 -39 151t-122 49q-6 0 -6 12.5t6 12.5q22 0 84 -3t104 -3q37 0 101.5 3t90.5 3q6 0 6 -12.5t-6 -12.5q-167 0 -167 -200v-1073q0 -9 -17.5 -10.5 t-25.5 8.5l-879 1130v-887q0 -101 40.5 -149.5t123.5 -48.5q6 0 6 -12.5t-6 -12.5q-25 0 -87 2t-104 2q-37 0 -101 -2t-91 -2q-6 0 -6 12.5t6 12.5q168 0 168 198l2 944q-85 88 -172 88q-6 0 -6 12.5zM446 1432q74 139 162 139q27 0 118.5 -24.5t143.5 -24.5q38 0 60 12.5 t45 40.5q2 2 6.5 0.5t8 -6t1.5 -8.5q-43 -83 -75 -111.5t-76 -28.5q-40 0 -131 26t-142 26q-12 0 -22 -1.5t-17 -3t-14.5 -5.5t-11.5 -6t-11 -8.5t-9 -9.5t-9.5 -11t-9.5 -11q-3 -3 -11.5 4t-5.5 11z" />
<glyph unicode="&#xd2;" d="M88 621q1 193 91.5 349t249 244.5t353.5 88.5q190 0 336 -85t222 -230t75 -326q-1 -152 -57.5 -282t-152 -218t-222.5 -137.5t-266 -49.5q-186 0 -330.5 86.5t-221.5 233t-77 326.5zM250 723q-1 -140 40 -267.5t113.5 -221.5t178 -149.5t225.5 -55.5q202 0 322 144 t122 384q1 190 -68 349t-196 253t-285 94q-200 0 -324 -143t-128 -387zM539 1548q-26 7 30 31q73 31 121 35q11 0 15 -2q112 -91 258 -189q4 -4 3.5 -9.5t-5.5 -9.5t-11 -1q-204 88 -411 145z" />
<glyph unicode="&#xd3;" d="M88 621q1 193 91.5 349t249 244.5t353.5 88.5q190 0 336 -85t222 -230t75 -326q-1 -152 -57.5 -282t-152 -218t-222.5 -137.5t-266 -49.5q-186 0 -330.5 86.5t-221.5 233t-77 326.5zM250 723q-1 -140 40 -267.5t113.5 -221.5t178 -149.5t225.5 -55.5q202 0 322 144 t122 384q1 190 -68 349t-196 253t-285 94q-200 0 -324 -143t-128 -387zM612 1402.5q-1 5.5 2 8.5q62 39 157 112.5t116 88.5q14 11 105 -24q73 -27 68 -37l-5 -3q-218 -57 -426 -157q-6 -3 -11 1.5t-6 10z" />
<glyph unicode="&#xd4;" d="M88 621q1 193 91.5 349t249 244.5t353.5 88.5q190 0 336 -85t222 -230t75 -326q-1 -152 -57.5 -282t-152 -218t-222.5 -137.5t-266 -49.5q-186 0 -330.5 86.5t-221.5 233t-77 326.5zM250 723q-1 -140 40 -267.5t113.5 -221.5t178 -149.5t225.5 -55.5q202 0 322 144 t122 384q1 190 -68 349t-196 253t-285 94q-200 0 -324 -143t-128 -387zM543 1366l186 211q7 9 18.5 9t20.5 -9l195 -211q3 -5 -2 -11.5t-11 -2.5l-200 104l-193 -104q-4 -4 -12 5q-6 5 -2 9z" />
<glyph unicode="&#xd5;" d="M88 621q1 193 91.5 349t249 244.5t353.5 88.5q190 0 336 -85t222 -230t75 -326q-1 -152 -57.5 -282t-152 -218t-222.5 -137.5t-266 -49.5q-186 0 -330.5 86.5t-221.5 233t-77 326.5zM250 723q-1 -140 40 -267.5t113.5 -221.5t178 -149.5t225.5 -55.5q202 0 322 144 t122 384q1 190 -68 349t-196 253t-285 94q-200 0 -324 -143t-128 -387zM489 1432q74 139 162 139q27 0 118.5 -24.5t143.5 -24.5q38 0 60 12.5t45 40.5q2 2 6.5 0.5t8 -6t1.5 -8.5q-43 -83 -75 -111.5t-76 -28.5q-40 0 -131 26t-142 26q-12 0 -22 -1.5t-17 -3t-14.5 -5.5 t-11.5 -6t-11 -8.5t-9 -9.5t-9.5 -11t-9.5 -11q-3 -3 -11.5 4t-5.5 11z" />
<glyph unicode="&#xd6;" d="M88 621q1 193 91.5 349t249 244.5t353.5 88.5q190 0 336 -85t222 -230t75 -326q-1 -152 -57.5 -282t-152 -218t-222.5 -137.5t-266 -49.5q-186 0 -330.5 86.5t-221.5 233t-77 326.5zM250 723q-1 -140 40 -267.5t113.5 -221.5t178 -149.5t225.5 -55.5q202 0 322 144 t122 384q1 190 -68 349t-196 253t-285 94q-200 0 -324 -143t-128 -387zM489 1552q0 41 26.5 65.5t70.5 24.5q43 0 67.5 -24.5t24.5 -65.5q0 -44 -24.5 -69t-67.5 -25q-45 0 -71 25t-26 69zM819 1552q0 42 25 66t69 24q43 0 68 -24.5t25 -65.5q0 -44 -25 -69t-68 -25 q-44 0 -69 25t-25 69z" />
<glyph unicode="&#xd7;" horiz-adv-x="792" d="M125 180l209 209l-207 207q-6 6 24.5 37t36.5 26l209 -206l207 206q4 4 21.5 -10.5t32 -31.5t10.5 -21l-209 -207l209 -209q4 -4 -10.5 -21t-32 -31.5t-21.5 -10.5l-209 209l-207 -207q-6 -6 -37 24.5t-26 36.5z" />
<glyph unicode="&#xd8;" d="M88 621q1 193 91.5 349t249 244.5t353.5 88.5q209 0 365 -103l76 94q4 3 15.5 -2.5t20.5 -14t5 -13.5l-76 -93q110 -89 169 -220.5t58 -288.5q-1 -152 -57.5 -282t-152 -218t-222.5 -137.5t-266 -49.5q-232 0 -398 134l-104 -129q-2 -4 -13 2.5t-20 16.5t-6 15l105 127 q-93 90 -143 214t-50 266zM250 723q-3 -261 131 -457l678 830q-147 157 -357 157q-200 0 -324 -143t-128 -387zM414 223q75 -92 175.5 -143t217.5 -51q202 0 322 144t122 384q1 145 -40 274t-117 224z" />
<glyph unicode="&#xd9;" horiz-adv-x="1558" d="M60 1267.5q0 12.5 6 12.5q27 0 104.5 -3t126.5 -3q48 0 130 3t108 3q4 0 5.5 -6t0.5 -12.5t-4 -6.5q-69 0 -101.5 -13t-44 -41.5t-12.5 -90.5l2 -657q-2 -197 98 -306.5t281 -109.5q102 0 191 39.5t190 132.5l-4 901q3 89 -25 117t-125 28q-5 0 -7 6.5t-0.5 12.5t5.5 6 q27 0 106 -3t128 -3q46 0 127.5 3t107.5 3q4 0 5.5 -6t0.5 -12.5t-4 -6.5q-98 0 -128 -26.5t-30 -114.5v-948q0 -90 33.5 -115.5t151.5 -25.5q6 0 6.5 -12.5t-6.5 -12.5q-30 0 -90 1t-95 1q-24 0 -64 -1t-60 -1q-22 0 -27.5 6.5t-5.5 32.5v123q-108 -98 -213.5 -142.5 t-227.5 -44.5q-209 0 -344 111t-135 295v733q-2 89 -30 115t-125 26q-6 0 -6 12.5zM547 1548q-26 7 30 31q73 31 121 35q11 0 15 -2q112 -91 258 -189q4 -4 3.5 -9.5t-5.5 -9.5t-11 -1q-204 88 -411 145z" />
<glyph unicode="&#xda;" horiz-adv-x="1558" d="M60 1267.5q0 12.5 6 12.5q27 0 104.5 -3t126.5 -3q48 0 130 3t108 3q4 0 5.5 -6t0.5 -12.5t-4 -6.5q-69 0 -101.5 -13t-44 -41.5t-12.5 -90.5l2 -657q-2 -197 98 -306.5t281 -109.5q102 0 191 39.5t190 132.5l-4 901q3 89 -25 117t-125 28q-5 0 -7 6.5t-0.5 12.5t5.5 6 q27 0 106 -3t128 -3q46 0 127.5 3t107.5 3q4 0 5.5 -6t0.5 -12.5t-4 -6.5q-98 0 -128 -26.5t-30 -114.5v-948q0 -90 33.5 -115.5t151.5 -25.5q6 0 6.5 -12.5t-6.5 -12.5q-30 0 -90 1t-95 1q-24 0 -64 -1t-60 -1q-22 0 -27.5 6.5t-5.5 32.5v123q-108 -98 -213.5 -142.5 t-227.5 -44.5q-209 0 -344 111t-135 295v733q-2 89 -30 115t-125 26q-6 0 -6 12.5zM620.5 1402.5q-0.5 5.5 2.5 8.5q62 38 156 111.5t116 89.5q14 11 105 -24q73 -27 68 -37l-5 -3q-218 -57 -426 -157q-6 -3 -11 1.5t-5.5 10z" />
<glyph unicode="&#xdb;" horiz-adv-x="1558" d="M60 1267.5q0 12.5 6 12.5q27 0 104.5 -3t126.5 -3q48 0 130 3t108 3q4 0 5.5 -6t0.5 -12.5t-4 -6.5q-69 0 -101.5 -13t-44 -41.5t-12.5 -90.5l2 -657q-2 -197 98 -306.5t281 -109.5q102 0 191 39.5t190 132.5l-4 901q3 89 -25 117t-125 28q-5 0 -7 6.5t-0.5 12.5t5.5 6 q27 0 106 -3t128 -3q46 0 127.5 3t107.5 3q4 0 5.5 -6t0.5 -12.5t-4 -6.5q-98 0 -128 -26.5t-30 -114.5v-948q0 -90 33.5 -115.5t151.5 -25.5q6 0 6.5 -12.5t-6.5 -12.5q-30 0 -90 1t-95 1q-24 0 -64 -1t-60 -1q-22 0 -27.5 6.5t-5.5 32.5v123q-108 -98 -213.5 -142.5 t-227.5 -44.5q-209 0 -344 111t-135 295v733q-2 89 -30 115t-125 26q-6 0 -6 12.5zM551 1366l186 211q7 9 18.5 9t20.5 -9l195 -211q3 -5 -2 -11.5t-11 -2.5l-200 104l-193 -104q-4 -4 -12 5q-6 5 -2 9z" />
<glyph unicode="&#xdc;" horiz-adv-x="1558" d="M60 1267.5q0 12.5 6 12.5q27 0 104.5 -3t126.5 -3q48 0 130 3t108 3q4 0 5.5 -6t0.5 -12.5t-4 -6.5q-69 0 -101.5 -13t-44 -41.5t-12.5 -90.5l2 -657q-2 -197 98 -306.5t281 -109.5q102 0 191 39.5t190 132.5l-4 901q3 89 -25 117t-125 28q-5 0 -7 6.5t-0.5 12.5t5.5 6 q27 0 106 -3t128 -3q46 0 127.5 3t107.5 3q4 0 5.5 -6t0.5 -12.5t-4 -6.5q-98 0 -128 -26.5t-30 -114.5v-948q0 -90 33.5 -115.5t151.5 -25.5q6 0 6.5 -12.5t-6.5 -12.5q-30 0 -90 1t-95 1q-24 0 -64 -1t-60 -1q-22 0 -27.5 6.5t-5.5 32.5v123q-108 -98 -213.5 -142.5 t-227.5 -44.5q-209 0 -344 111t-135 295v733q-2 89 -30 115t-125 26q-6 0 -6 12.5zM498 1552q0 41 26 65.5t70 24.5q43 0 67.5 -24.5t24.5 -65.5q0 -44 -24.5 -69t-67.5 -25q-44 0 -70 25t-26 69zM827 1552q0 41 25.5 65.5t69.5 24.5q43 0 67.5 -24.5t24.5 -65.5 q0 -44 -24.5 -69t-67.5 -25q-44 0 -69.5 25t-25.5 69z" />
<glyph unicode="&#xdd;" horiz-adv-x="1171" d="M-19.5 1274q1.5 6 5.5 6q28 0 88 -3t88 -3q51 0 141 3t115 3q6 0 7.5 -6t-1 -12.5t-8.5 -6.5q-77 0 -95.5 -17.5t13.5 -63.5l317 -488l217 389q46 82 25.5 131t-102.5 49q-6 0 -8.5 6.5t-1 12.5t6.5 6q32 0 109.5 -3t128.5 -3q32 0 79 3t73 3q8 0 8 -12.5t-8 -12.5 q-143 0 -263 -202l-239 -412v-475q0 -91 28.5 -116t135.5 -25q9 0 9 -12.5t-9 -12.5q-29 0 -110.5 2t-133.5 2q-54 0 -138 -2t-114 -2q-8 0 -8 12.5t8 12.5q108 0 140 26t32 115l-2 448l-328 496q-50 78 -95 111.5t-103 33.5q-5 0 -7 6.5t-0.5 12.5zM456.5 1402.5 q-0.5 5.5 2.5 8.5q62 38 156 111.5t116 89.5q14 11 105 -24q73 -27 68 -37l-5 -3q-218 -57 -426 -157q-6 -3 -11 1.5t-5.5 10z" />
<glyph unicode="&#xde;" horiz-adv-x="1189" d="M86 12.5q0 12.5 6 12.5q100 0 129 26t29 115v948q-1 62 -12.5 90t-43 39.5t-98.5 11.5q-5 0 -5.5 12.5t5.5 12.5q27 0 104 -3t124 -3q66 0 166 3t131 3q6 0 6 -12.5t-6 -12.5q-62 0 -95.5 -3t-60 -10t-37 -25t-15 -41t-5.5 -66v-94q109 16 206 16q222 0 365 -97t143 -271 q0 -82 -34.5 -150t-89.5 -112.5t-126.5 -75.5t-143.5 -44.5t-142 -13.5q-54 0 -97 11q-3 1 -3 9.5t2.5 15.5t7.5 5q34 -6 67 -6q70 0 134 18t120.5 54.5t90.5 101.5t34 150q0 158 -109 264t-276 106q-77 0 -149 -14l2 -817q0 -65 13 -92t54.5 -38t138.5 -11q6 0 6 -12.5 t-6 -12.5q-34 0 -130 2t-158 2q-46 0 -127.5 -2t-108.5 -2q-6 0 -6 12.5z" />
<glyph unicode="&#xdf;" horiz-adv-x="1005" d="M-111 -465q-3 30 18.5 49t59.5 19q37 0 60.5 -20t32 -43.5t25.5 -43.5t42 -20q17 0 26.5 18t15 65.5t5.5 131t-2 213.5l-20 985q-6 276 100.5 437t312.5 161q118 0 182.5 -57.5t67.5 -139.5q2 -52 -20 -102.5t-54.5 -90.5t-65 -78t-55.5 -81.5t-22 -85.5 q1 -54 35.5 -112.5t84 -112t99 -109.5t84 -124t35.5 -136q2 -70 -25 -132.5t-88 -105.5t-145 -43q-81 0 -133 34.5t-62 78.5q-6 33 11.5 55.5t54.5 22.5q31 0 52.5 -14t34.5 -34t26 -40.5t34.5 -34.5t51.5 -14q95 0 92 129q-3 60 -39 122t-84.5 115t-96.5 107t-81.5 118 t-34.5 128q-1 52 17 102t43.5 91.5t50.5 85t40.5 99t12.5 115.5q-5 87 -44 147t-120 60q-110 0 -165 -140.5t-50 -404.5l20 -948q9 -293 -42.5 -406.5t-194.5 -113.5q-82 0 -130 28t-53 70z" />
<glyph unicode="&#xe0;" horiz-adv-x="962" d="M72 193q-1 105 40 217.5t107 201.5t155.5 147t178.5 58q98 0 164 -55q33 30 45 69q2 9 20 3q6 -3 6 -5l-4 -647q-3 -112 52 -112q50 0 125 88q6 6 16.5 -2.5t5.5 -14.5q-60 -81 -111 -120t-104 -39q-126 0 -123 174l2 217q-62 -182 -169 -291t-226 -109 q-80 0 -129.5 53.5t-50.5 166.5zM205 309q3 -219 129 -219q79 0 152 78t114.5 186.5t42.5 204.5q0 81 -45.5 129.5t-118.5 46.5q-118 -3 -196 -123t-78 -303zM346 1489q-5 16 53 8q70 -9 90 -26q3 -3 3 -5l63 -491q1 -3 -3 -5t-8.5 -1.5t-4.5 4.5z" />
<glyph unicode="&#xe1;" horiz-adv-x="962" d="M72 193q-1 105 40 217.5t107 201.5t155.5 147t178.5 58q98 0 164 -55q33 30 45 69q2 9 20 3q6 -3 6 -5l-4 -647q-3 -112 52 -112q50 0 125 88q6 6 16.5 -2.5t5.5 -14.5q-60 -81 -111 -120t-104 -39q-126 0 -123 174l2 217q-62 -182 -169 -291t-226 -109 q-80 0 -129.5 53.5t-50.5 166.5zM205 309q3 -219 129 -219q79 0 152 78t114.5 186.5t42.5 204.5q0 81 -45.5 129.5t-118.5 46.5q-118 -3 -196 -123t-78 -303zM492 975l94 491q3 15 79 28q72 10 70 -5l-219 -520q-3 -4 -8.5 -3.5t-11 3.5t-4.5 6z" />
<glyph unicode="&#xe2;" horiz-adv-x="962" d="M72 193q-1 105 40 217.5t107 201.5t155.5 147t178.5 58q98 0 164 -55q33 30 45 69q2 9 20 3q6 -3 6 -5l-4 -647q-3 -112 52 -112q50 0 125 88q6 6 16.5 -2.5t5.5 -14.5q-60 -81 -111 -120t-104 -39q-126 0 -123 174l2 217q-62 -182 -169 -291t-226 -109 q-80 0 -129.5 53.5t-50.5 166.5zM205 309q3 -219 129 -219q79 0 152 78t114.5 186.5t42.5 204.5q0 81 -45.5 129.5t-118.5 46.5q-118 -3 -196 -123t-78 -303zM383 977l137 510q3 11 20.5 11t18.5 -11l133 -510q1 -3 -4 -4.5t-11.5 -1t-8.5 3.5l-129 285l-131 -289 q-3 -6 -14 -2.5t-11 8.5z" />
<glyph unicode="&#xe3;" horiz-adv-x="962" d="M72 193q-1 105 40 217.5t107 201.5t155.5 147t178.5 58q98 0 164 -55q33 30 45 69q2 9 20 3q6 -3 6 -5l-4 -647q-3 -112 52 -112q50 0 125 88q6 6 16.5 -2.5t5.5 -14.5q-60 -81 -111 -120t-104 -39q-126 0 -123 174l2 217q-62 -182 -169 -291t-226 -109 q-80 0 -129.5 53.5t-50.5 166.5zM205 309q3 -219 129 -219q79 0 152 78t114.5 186.5t42.5 204.5q0 81 -45.5 129.5t-118.5 46.5q-118 -3 -196 -123t-78 -303zM258 991q77 139 162 139q29 0 119.5 -25.5t142.5 -25.5q38 0 59 13.5t45 42.5q3 3 11.5 -4t5.5 -11 q-41 -82 -73.5 -110.5t-78.5 -28.5q-40 0 -130.5 24.5t-141.5 24.5q-13 0 -23.5 -1t-20 -4.5t-14.5 -5t-14 -9t-10.5 -9t-11.5 -12.5t-11 -12q-2 -6 -11 3q-6 6 -5 11z" />
<glyph unicode="&#xe4;" horiz-adv-x="962" d="M72 193q-1 105 40 217.5t107 201.5t155.5 147t178.5 58q98 0 164 -55q33 30 45 69q2 9 20 3q6 -3 6 -5l-4 -647q-3 -112 52 -112q50 0 125 88q6 6 16.5 -2.5t5.5 -14.5q-60 -81 -111 -120t-104 -39q-126 0 -123 174l2 217q-62 -182 -169 -291t-226 -109 q-80 0 -129.5 53.5t-50.5 166.5zM205 309q3 -219 129 -219q79 0 152 78t114.5 186.5t42.5 204.5q0 81 -45.5 129.5t-118.5 46.5q-118 -3 -196 -123t-78 -303zM272 1063q0 41 26.5 65.5t70.5 24.5q43 0 67.5 -24.5t24.5 -65.5q0 -44 -24.5 -69t-67.5 -25q-45 0 -71 25t-26 69 zM602 1063q0 42 25 66t69 24q43 0 67.5 -24.5t24.5 -65.5q0 -44 -24.5 -69t-67.5 -25q-44 0 -69 25t-25 69z" />
<glyph unicode="&#xe5;" horiz-adv-x="962" d="M72 193q-1 105 40 217.5t107 201.5t155.5 147t178.5 58q98 0 164 -55q33 30 45 69q2 9 20 3q6 -3 6 -5l-4 -647q-3 -112 52 -112q50 0 125 88q6 6 16.5 -2.5t5.5 -14.5q-60 -81 -111 -120t-104 -39q-126 0 -123 174l2 217q-62 -182 -169 -291t-226 -109 q-80 0 -129.5 53.5t-50.5 166.5zM205 309q3 -219 129 -219q79 0 152 78t114.5 186.5t42.5 204.5q0 81 -45.5 129.5t-118.5 46.5q-118 -3 -196 -123t-78 -303zM330 1120q0 74 65.5 117t145.5 43q79 0 135.5 -48t56.5 -116q0 -71 -65 -114.5t-146 -43.5q-88 0 -140 47.5 t-52 114.5zM438 1161q0 -69 31.5 -124.5t83.5 -55.5q35 0 51.5 23.5t16.5 74.5q0 71 -35.5 123.5t-85.5 52.5q-62 0 -62 -94z" />
<glyph unicode="&#xe6;" horiz-adv-x="1228" d="M72 199q-1 102 34.5 212t95.5 200t147 148t179 58q63 0 115 -28.5t72 -86.5q121 115 291 115q94 0 138 -36t44 -91q0 -70 -95.5 -133t-342.5 -137q11 -162 76 -265.5t171 -103.5q97 0 170 70q4 3 10.5 -0.5t10.5 -9.5t0 -9q-121 -127 -273 -127q-141 0 -221 105t-86 287 q-59 -180 -152 -287t-204 -107q-79 0 -129 56t-51 170zM211 315q0 -221 121 -221q63 0 127 71.5t104 175.5t41 198q2 94 -40 154t-111 59q-100 -3 -171 -129t-71 -308zM748 446q278 97 278 216q0 41 -24.5 75.5t-77.5 34.5q-83 0 -131 -87.5t-45 -227.5v-11z" />
<glyph unicode="&#xe7;" horiz-adv-x="741" d="M59 395q1 93 38 174t95 134.5t130.5 83.5t146.5 30q85 0 152 -34t73 -93q3 -33 -15.5 -53.5t-57.5 -20.5q-40 0 -63 19.5t-42 54.5q-40 78 -125 78q-92 0 -138 -84.5t-46 -216.5q-1 -111 31.5 -203t105 -151.5t174.5 -59.5q101 0 182 56q6 4 15 -5.5t4 -15.5 q-123 -112 -279 -115q-11 -57 7 -97.5t65 -88.5q97 -100 94 -172q1 -29 -9.5 -58.5t-32 -57t-59.5 -45t-87 -17.5q-61 0 -104 26.5t-42 71.5q-1 26 14.5 39.5t41.5 13.5t46 -17.5t30 -38.5t27 -38.5t38 -17.5q55 0 55 67q-5 60 -114 174q-60 60 -31 160l31 96 q-90 4 -160.5 43.5t-111 101.5t-61 133t-18.5 144z" />
<glyph unicode="&#xe8;" horiz-adv-x="757" d="M57 369q1 114 56.5 216t158 167t228.5 65q85 0 132.5 -29t49.5 -81q0 -90 -136 -165.5t-335 -105.5q3 -172 81.5 -278.5t219.5 -106.5q118 0 203 66q5 5 13.5 -3t4.5 -14q-133 -125 -307 -125q-90 0 -162.5 33.5t-116.5 89.5t-67 125.5t-23 145.5zM211 463 q295 56 301 201q3 48 -26 73t-80 25q-95 0 -144 -82.5t-51 -216.5zM250 1489q-5 17 54 8q68 -9 88 -26l3 -5l64 -491q1 -3 -3.5 -5t-9 -1.5t-4.5 4.5z" />
<glyph unicode="&#xe9;" horiz-adv-x="757" d="M57 369q1 114 56.5 216t158 167t228.5 65q85 0 132.5 -29t49.5 -81q0 -90 -136 -165.5t-335 -105.5q3 -172 81.5 -278.5t219.5 -106.5q118 0 203 66q5 5 13.5 -3t4.5 -14q-133 -125 -307 -125q-90 0 -162.5 33.5t-116.5 89.5t-67 125.5t-23 145.5zM211 463 q295 56 301 201q3 48 -26 73t-80 25q-95 0 -144 -82.5t-51 -216.5zM395 975l94 491q3 15 79 27q73 11 71 -4l-219 -520q-3 -4 -9 -3.5t-11.5 3.5t-4.5 6z" />
<glyph unicode="&#xea;" horiz-adv-x="757" d="M57 369q1 114 56.5 216t158 167t228.5 65q85 0 132.5 -29t49.5 -81q0 -90 -136 -165.5t-335 -105.5q3 -172 81.5 -278.5t219.5 -106.5q118 0 203 66q5 5 13.5 -3t4.5 -14q-133 -125 -307 -125q-90 0 -162.5 33.5t-116.5 89.5t-67 125.5t-23 145.5zM211 463 q295 56 301 201q3 48 -26 73t-80 25q-95 0 -144 -82.5t-51 -216.5zM287 977l137 510q3 11 20.5 11t18.5 -11l133 -510q1 -3 -4 -4q-15 -4 -21 2l-129 285l-131 -289q-3 -6 -13.5 -2.5t-10.5 8.5z" />
<glyph unicode="&#xeb;" horiz-adv-x="757" d="M57 369q1 114 56.5 216t158 167t228.5 65q85 0 132.5 -29t49.5 -81q0 -90 -136 -165.5t-335 -105.5q3 -172 81.5 -278.5t219.5 -106.5q118 0 203 66q5 5 13.5 -3t4.5 -14q-133 -125 -307 -125q-90 0 -162.5 33.5t-116.5 89.5t-67 125.5t-23 145.5zM176 1063q0 41 26 65.5 t70 24.5q43 0 68 -24.5t25 -65.5q0 -44 -25 -69t-68 -25q-44 0 -70 25t-26 69zM211 463q295 56 301 201q3 48 -26 73t-80 25q-95 0 -144 -82.5t-51 -216.5zM506 1063q0 42 25 66t69 24q43 0 67.5 -24.5t24.5 -65.5q0 -44 -24.5 -69t-67.5 -25q-44 0 -69 25t-25 69z" />
<glyph unicode="&#xec;" horiz-adv-x="532" d="M-4 645q118 164 229 164q121 0 121 -164l-8 -463q0 -112 55 -112q42 0 123 88q5 3 11 1t10.5 -8t1.5 -10q-64 -83 -112 -121t-105 -38q-129 0 -123 174l6 452q6 115 -58 115q-45 0 -129 -94q-5 -4 -11 -2t-10.5 8t-0.5 10zM35 1489q-6 14 68 2q79 -12 81 -25l92 -491 q1 -3 -3.5 -5.5t-10 -2.5t-6.5 4z" />
<glyph unicode="&#xed;" horiz-adv-x="532" d="M-4 645q118 164 229 164q121 0 121 -164l-8 -463q0 -112 55 -112q42 0 123 88q5 3 11 1t10.5 -8t1.5 -10q-64 -83 -112 -121t-105 -38q-129 0 -123 174l6 452q6 115 -58 115q-45 0 -129 -94q-5 -4 -11 -2t-10.5 8t-0.5 10zM223 975l94 491q5 13 85 26q71 11 65 -3 l-221 -518q-1 -4 -7 -4t-11.5 2.5t-4.5 5.5z" />
<glyph unicode="&#xee;" horiz-adv-x="532" d="M-4 645q118 164 229 164q121 0 121 -164l-8 -463q0 -112 55 -112q42 0 123 88q5 3 11 1t10.5 -8t1.5 -10q-64 -83 -112 -121t-105 -38q-129 0 -123 174l6 452q6 115 -58 115q-45 0 -129 -94q-5 -4 -11 -2t-10.5 8t-0.5 10zM100 977l138 510q3 11 19.5 11t18.5 -11 l134 -510q1 -3 -4 -4q-16 -5 -21 2l-129 285l-131 -289q-3 -6 -14 -2.5t-11 8.5z" />
<glyph unicode="&#xef;" horiz-adv-x="532" d="M-4 645q118 164 229 164q121 0 121 -164l-8 -463q0 -112 55 -112q42 0 123 88q5 3 11 1t10.5 -8t1.5 -10q-64 -83 -112 -121t-105 -38q-129 0 -123 174l6 452q6 115 -58 115q-45 0 -129 -94q-5 -4 -11 -2t-10.5 8t-0.5 10zM12 1063q0 41 26.5 65.5t70.5 24.5 q43 0 67.5 -24.5t24.5 -65.5q0 -44 -24.5 -69t-67.5 -25q-45 0 -71 25t-26 69zM303 1063q0 41 26 65.5t70 24.5q43 0 68 -24.5t25 -65.5q0 -44 -25 -69t-68 -25q-44 0 -70 25t-26 69z" />
<glyph unicode="&#xf0;" horiz-adv-x="882" d="M51 383q1 106 39 192t99 137t129.5 78t136.5 27q85 0 161 -45q-61 203 -165 369l-269 -127q-6 -3 -13.5 7t-9.5 21t5 15l260 123q-127 187 -281 278q-13 6 13 19q28 14 41 8q181 -90 325 -260l205 96q6 3 14 -6.5t10.5 -20t-3.5 -14.5l-195 -92q130 -163 206 -360 t75 -382q0 -115 -33.5 -207t-91 -149t-130.5 -87t-157 -30q-115 0 -201 57.5t-128.5 149.5t-41.5 203zM207 438q5 -175 79.5 -299.5t186.5 -124.5q98 0 151.5 97t49.5 303q-5 182 -60.5 273t-183.5 91q-98 0 -162 -91t-61 -249z" />
<glyph unicode="&#xf1;" horiz-adv-x="1032" d="M-12 635.5q-3 5.5 0 9.5q118 164 229 164q61 0 89 -40.5t28 -123.5v-256q40 202 127.5 315t210.5 113q187 0 184 -270l-2 -365q-3 -112 53 -112q45 0 123 88q5 3 11.5 1t11.5 -8t2 -10q-64 -83 -112.5 -121t-106.5 -38q-121 0 -121 174l2 352q0 217 -113 217 q-114 0 -191.5 -188t-78.5 -519q0 -34 -84 -34q-58 0 -62 14q-1 3 0.5 25.5t3 60t1.5 68.5l4 456q0 115 -58 115q-48 0 -129 -94q-5 -5 -12 -2t-10 8.5zM227 991q77 139 162 139q29 0 119.5 -25.5t142.5 -25.5q38 0 59.5 13.5t45.5 42.5q3 3 11 -4t5 -11 q-42 -82 -73.5 -110.5t-77.5 -28.5q-40 0 -131 24.5t-142 24.5q-13 0 -23.5 -1t-20 -4.5t-14.5 -5.5t-13 -8.5t-10.5 -9t-11.5 -12t-11 -12.5q-2 -6 -12 4q-6 5 -5 10z" />
<glyph unicode="&#xf2;" horiz-adv-x="880" d="M57 381q3 190 117.5 313t290.5 123q165 0 263 -109t97 -294q-1 -104 -35 -189t-91 -140t-129.5 -84.5t-151.5 -29.5q-167 0 -264 117t-97 293zM199 469q0 -114 35 -215.5t101 -166t146 -64.5q91 0 147.5 81.5t57.5 221.5q1 114 -34 214.5t-100.5 164t-145.5 63.5 q-91 0 -149 -78t-58 -221zM256 1489q-5 17 54 8q68 -9 88 -26l3 -5l64 -491q1 -3 -3 -5t-8.5 -1.5t-4.5 4.5z" />
<glyph unicode="&#xf3;" horiz-adv-x="880" d="M57 381q3 190 117.5 313t290.5 123q165 0 263 -109t97 -294q-1 -104 -35 -189t-91 -140t-129.5 -84.5t-151.5 -29.5q-167 0 -264 117t-97 293zM199 469q0 -114 35 -215.5t101 -166t146 -64.5q91 0 147.5 81.5t57.5 221.5q1 114 -34 214.5t-100.5 164t-145.5 63.5 q-91 0 -149 -78t-58 -221zM401 975l95 491q3 15 79 28q72 10 70 -5l-219 -520q-3 -4 -9 -3.5t-11.5 3.5t-4.5 6z" />
<glyph unicode="&#xf4;" horiz-adv-x="880" d="M57 381q3 190 117.5 313t290.5 123q165 0 263 -109t97 -294q-1 -104 -35 -189t-91 -140t-129.5 -84.5t-151.5 -29.5q-167 0 -264 117t-97 293zM199 469q0 -114 35 -215.5t101 -166t146 -64.5q91 0 147.5 81.5t57.5 221.5q1 114 -34 214.5t-100.5 164t-145.5 63.5 q-91 0 -149 -78t-58 -221zM293 977l137 510q3 11 20.5 11t18.5 -11l133 -510q1 -3 -4 -4.5t-11.5 -1t-8.5 3.5l-129 285l-132 -289q-3 -6 -13.5 -2.5t-10.5 8.5z" />
<glyph unicode="&#xf5;" horiz-adv-x="880" d="M57 381q3 190 117.5 313t290.5 123q165 0 263 -109t97 -294q-1 -104 -35 -189t-91 -140t-129.5 -84.5t-151.5 -29.5q-167 0 -264 117t-97 293zM168 991q77 139 162 139q29 0 119.5 -25.5t142.5 -25.5q38 0 59 13.5t45 42.5q3 3 11.5 -4t5.5 -11q-41 -82 -73.5 -110.5 t-78.5 -28.5q-40 0 -130.5 24.5t-141.5 24.5q-13 0 -23.5 -1t-20 -4.5t-14.5 -5t-14 -9t-10.5 -9t-11.5 -12.5t-11 -12q-2 -6 -11 3q-6 6 -5 11zM199 469q0 -114 35 -215.5t101 -166t146 -64.5q91 0 147.5 81.5t57.5 221.5q1 114 -34 214.5t-100.5 164t-145.5 63.5 q-91 0 -149 -78t-58 -221z" />
<glyph unicode="&#xf6;" horiz-adv-x="880" d="M57 381q3 190 117.5 313t290.5 123q165 0 263 -109t97 -294q-1 -104 -35 -189t-91 -140t-129.5 -84.5t-151.5 -29.5q-167 0 -264 117t-97 293zM182 1063q0 41 26.5 65.5t70.5 24.5q43 0 67.5 -24.5t24.5 -65.5q0 -44 -24.5 -69t-67.5 -25q-45 0 -71 25t-26 69zM199 469 q0 -114 35 -215.5t101 -166t146 -64.5q91 0 147.5 81.5t57.5 221.5q1 114 -34 214.5t-100.5 164t-145.5 63.5q-91 0 -149 -78t-58 -221zM512 1063q0 42 25 66t69 24q43 0 67.5 -24.5t24.5 -65.5q0 -44 -24.5 -69t-67.5 -25q-44 0 -69 25t-25 69z" />
<glyph unicode="&#xf7;" horiz-adv-x="815" d="M61.5 410q1.5 22 6.5 22h677q9 0 9 -44t-9 -44h-675q-6 0 -8 22t-0.5 44zM311 78q0 44 27.5 70t73.5 26q47 0 72.5 -25.5t25.5 -70.5q0 -48 -25.5 -74.5t-72.5 -26.5q-46 0 -73.5 27t-27.5 74zM311 713q0 44 27.5 70t73.5 26q47 0 72.5 -25.5t25.5 -70.5 q0 -48 -25.5 -74.5t-72.5 -26.5q-46 0 -73.5 27t-27.5 74z" />
<glyph unicode="&#xf8;" horiz-adv-x="880" d="M57 381q3 190 117.5 313t290.5 123q128 0 217 -67l55 69q3 3 14 -2t19 -13t4 -13l-57 -72q111 -111 108 -305q-1 -104 -35 -189t-91 -140t-129.5 -84.5t-151.5 -29.5q-135 0 -228 80l-67 -84q-5 -5 -23 10.5t-14 22.5l70 86q-99 119 -99 295zM199 469q0 -145 53 -260 l348 438q-80 121 -194 121q-91 0 -149 -78t-58 -221zM276 162q84 -139 205 -139q91 0 147.5 81.5t57.5 221.5q0 160 -61 276z" />
<glyph unicode="&#xf9;" horiz-adv-x="1032" d="M-14 637.5q-3 5.5 0 9.5q60 83 112 122.5t109 39.5q120 0 117 -174l-11 -352q-3 -109 27.5 -163t87.5 -54q114 0 191 191.5t77 514.5q0 16 22 25.5t62 9.5q58 0 62 -14q1 -3 0 -25.5t-2.5 -60.5t-1.5 -68l-2 -457q0 -114 57 -114q47 0 127 92q4 4 10 2t10.5 -8.5 t1.5 -10.5q-63 -84 -115.5 -122.5t-109.5 -38.5q-121 0 -121 163v250q-40 -200 -127.5 -311t-210.5 -111q-189 0 -182 271l8 364q3 111 -55 111q-40 0 -121 -88q-5 -5 -12 -2t-10 8.5zM317 1489q-5 16 53 8q70 -9 90 -26q3 -3 3 -5l63 -491q1 -3 -3 -5t-8.5 -1.5t-4.5 4.5z " />
<glyph unicode="&#xfa;" horiz-adv-x="1032" d="M-14 637.5q-3 5.5 0 9.5q60 83 112 122.5t109 39.5q120 0 117 -174l-11 -352q-3 -109 27.5 -163t87.5 -54q114 0 191 191.5t77 514.5q0 16 22 25.5t62 9.5q58 0 62 -14q1 -3 0 -25.5t-2.5 -60.5t-1.5 -68l-2 -457q0 -114 57 -114q47 0 127 92q4 4 10 2t10.5 -8.5 t1.5 -10.5q-63 -84 -115.5 -122.5t-109.5 -38.5q-121 0 -121 163v250q-40 -200 -127.5 -311t-210.5 -111q-189 0 -182 271l8 364q3 111 -55 111q-40 0 -121 -88q-5 -5 -12 -2t-10 8.5zM463 975l94 491q3 15 79 27q73 11 71 -4l-220 -520q-3 -4 -8.5 -3.5t-11 3.5t-4.5 6z " />
<glyph unicode="&#xfb;" horiz-adv-x="1032" d="M-14 637.5q-3 5.5 0 9.5q60 83 112 122.5t109 39.5q120 0 117 -174l-11 -352q-3 -109 27.5 -163t87.5 -54q114 0 191 191.5t77 514.5q0 16 22 25.5t62 9.5q58 0 62 -14q1 -3 0 -25.5t-2.5 -60.5t-1.5 -68l-2 -457q0 -114 57 -114q47 0 127 92q4 4 10 2t10.5 -8.5 t1.5 -10.5q-63 -84 -115.5 -122.5t-109.5 -38.5q-121 0 -121 163v250q-40 -200 -127.5 -311t-210.5 -111q-189 0 -182 271l8 364q3 111 -55 111q-40 0 -121 -88q-5 -5 -12 -2t-10 8.5zM354 977l138 510q3 11 19.5 11t18.5 -11l134 -510q1 -3 -4 -4q-15 -4 -21 2l-129 285 l-131 -289q-3 -6 -14 -2.5t-11 8.5z" />
<glyph unicode="&#xfc;" horiz-adv-x="1032" d="M-14 637.5q-3 5.5 0 9.5q60 83 112 122.5t109 39.5q120 0 117 -174l-11 -352q-3 -109 27.5 -163t87.5 -54q114 0 191 191.5t77 514.5q0 16 22 25.5t62 9.5q58 0 62 -14q1 -3 0 -25.5t-2.5 -60.5t-1.5 -68l-2 -457q0 -114 57 -114q47 0 127 92q4 4 10 2t10.5 -8.5 t1.5 -10.5q-63 -84 -115.5 -122.5t-109.5 -38.5q-121 0 -121 163v250q-40 -200 -127.5 -311t-210.5 -111q-189 0 -182 271l8 364q3 111 -55 111q-40 0 -121 -88q-5 -5 -12 -2t-10 8.5zM244 1063q0 41 26 65.5t70 24.5q43 0 67.5 -24.5t24.5 -65.5q0 -44 -24.5 -69t-67.5 -25 q-44 0 -70 25t-26 69zM573 1063q0 41 25.5 65.5t69.5 24.5q43 0 67.5 -24.5t24.5 -65.5q0 -44 -24.5 -69t-67.5 -25q-44 0 -69.5 25t-25.5 69z" />
<glyph unicode="&#xfd;" horiz-adv-x="968" d="M-18 647q62 83 114 122.5t109 39.5q120 0 117 -174l-11 -352q-6 -217 113 -217q110 0 186.5 177t83.5 478v57q0 12 20 20.5t54 8.5q71 0 74 -12q0 -3 -1 -26.5t-2.5 -61t-2.5 -68.5l-5 -782q-3 -193 -105.5 -312.5t-281.5 -119.5q-116 0 -192.5 45t-73.5 110q0 40 20 59 t48 19q26 0 46 -14t32 -35t29 -46t35 -46t51.5 -35t78.5 -14q39 0 68.5 14.5t55 50t38.5 104.5t12 170v584q-40 -197 -127 -307.5t-209 -110.5q-193 0 -184 271l10 364q3 111 -55 111q-45 0 -123 -88q-6 -4 -11.5 -2t-9.5 8t-1 10zM461 975l94 491q3 15 79 27q73 11 71 -4 l-220 -520q-3 -4 -8.5 -3.5t-11 3.5t-4.5 6z" />
<glyph unicode="&#xfe;" horiz-adv-x="897" d="M-39 1339q0 6 6 9l283 137q7 3 16.5 -4.5t9.5 -12.5v-737q145 74 273 74q132 0 203 -78.5t71 -228.5q0 -137 -55 -250.5t-158.5 -181.5t-236.5 -68q-43 0 -99 6v-369q0 -83 28 -106t116 -12q8 2 11.5 -10t-5.5 -15l-391 -55q-4 -1 -7 4.5t-2.5 12t5.5 7.5 q67 10 82.5 36.5t17.5 123.5l6 979q-60 -44 -96 -74q-5 -3 -11 1t-9.5 10.5t-0.5 9.5q40 38 117 96l4 606q2 81 -34.5 99t-127.5 -25q-6 -2 -11 4t-5 12zM274 90q84 -33 164 -33q136 0 192 90t56 256q0 70 -10.5 124t-36 100.5t-73 71t-115.5 24.5q-88 0 -175 -41z" />
<glyph unicode="&#xff;" horiz-adv-x="968" d="M-18 647q62 83 114 122.5t109 39.5q120 0 117 -174l-11 -352q-6 -217 113 -217q110 0 186.5 177t83.5 478v57q0 12 20 20.5t54 8.5q71 0 74 -12q0 -3 -1 -26.5t-2.5 -61t-2.5 -68.5l-5 -782q-3 -193 -105.5 -312.5t-281.5 -119.5q-116 0 -192.5 45t-73.5 110q0 40 20 59 t48 19q26 0 46 -14t32 -35t29 -46t35 -46t51.5 -35t78.5 -14q39 0 68.5 14.5t55 50t38.5 104.5t12 170v584q-40 -197 -127 -307.5t-209 -110.5q-193 0 -184 271l10 364q3 111 -55 111q-45 0 -123 -88q-6 -4 -11.5 -2t-9.5 8t-1 10zM242 1063q0 41 26 65.5t70 24.5 q43 0 67.5 -24.5t24.5 -65.5q0 -44 -24.5 -69t-67.5 -25q-44 0 -70 25t-26 69zM571 1063q0 41 25.5 65.5t69.5 24.5q43 0 67.5 -24.5t24.5 -65.5q0 -44 -24.5 -69t-67.5 -25q-44 0 -69.5 25t-25.5 69z" />
<glyph unicode="&#x152;" horiz-adv-x="1816" d="M84 623q0 148 58 274t156 209.5t227 130.5t272 47q36 0 139 -2t151 -2h570q16 0 16 -18q1 -31 3 -130.5t3 -132.5q0 -6 -13 -6t-13 6q-16 113 -75 178.5t-159 65.5h-96q-54 0 -82.5 -4.5t-46 -20t-22 -38.5t-5.5 -68v-422h240q94 0 134 33.5t40 114.5q1 6 8 8t13.5 0 t5.5 -8q1 -48 -0.5 -103.5t-1.5 -68.5q0 -32 3 -95.5t3 -101.5q0 -9 -13.5 -9t-13.5 9q0 90 -45.5 132t-140.5 42h-232v-469q2 -87 30 -112t126 -25h135q183 0 258 276q1 4 8 4.5t13.5 -2.5t5.5 -8q-17 -105 -17 -276q0 -17 -7 -24t-25 -7h-594q-47 0 -144 -4t-131 -4 q-163 0 -302 48.5t-235.5 133t-150.5 201t-53 248.5zM268 670q0 -182 66.5 -328.5t189 -230.5t279.5 -84q62 0 95.5 4t61.5 18t38.5 42.5t9.5 76.5l-4 919q-3 93 -39 127.5t-148 34.5q-248 0 -398.5 -151t-150.5 -428z" />
<glyph unicode="&#x153;" horiz-adv-x="1349" d="M53 385q2 188 115 310t291 122q211 0 297 -178q62 82 151.5 130t198.5 48q85 0 131.5 -29t48.5 -81q1 -62 -72 -119.5t-176.5 -94.5t-220.5 -57q3 -170 81 -277.5t216 -107.5q126 0 211 66q3 3 8 0t7 -8t-1 -9q-133 -125 -309 -125q-105 0 -181.5 43.5t-121.5 118.5 q-56 -80 -141.5 -123t-179.5 -43q-163 0 -259 119.5t-94 294.5zM193 471q0 -111 35 -213.5t101 -168.5t146 -66q86 0 138.5 76t52.5 206q1 83 -16 164t-49.5 148.5t-85.5 109t-118 41.5q-94 0 -149 -79.5t-55 -217.5zM817 465q91 15 153 36.5t104.5 63t43.5 99.5 q1 49 -27 73.5t-77 24.5q-98 0 -146.5 -82.5t-50.5 -214.5z" />
<glyph unicode="&#x178;" horiz-adv-x="1171" d="M-19.5 1274q1.5 6 5.5 6q28 0 88 -3t88 -3q51 0 141 3t115 3q6 0 7.5 -6t-1 -12.5t-8.5 -6.5q-77 0 -95.5 -17.5t13.5 -63.5l317 -488l217 389q46 82 25.5 131t-102.5 49q-6 0 -8.5 6.5t-1 12.5t6.5 6q32 0 109.5 -3t128.5 -3q32 0 79 3t73 3q8 0 8 -12.5t-8 -12.5 q-143 0 -263 -202l-239 -412v-475q0 -91 28.5 -116t135.5 -25q9 0 9 -12.5t-9 -12.5q-29 0 -110.5 2t-133.5 2q-54 0 -138 -2t-114 -2q-8 0 -8 12.5t8 12.5q108 0 140 26t32 115l-2 448l-328 496q-50 78 -95 111.5t-103 33.5q-5 0 -7 6.5t-0.5 12.5zM334 1552q0 41 26 65.5 t70 24.5q43 0 67.5 -24.5t24.5 -65.5q0 -44 -24.5 -69t-67.5 -25q-44 0 -70 25t-26 69zM664 1552q0 42 25 66t69 24q43 0 67.5 -24.5t24.5 -65.5q0 -44 -24.5 -69t-67.5 -25q-44 0 -69 25t-25 69z" />
<glyph unicode="&#x2c6;" horiz-adv-x="489" d="M102 979l138 510q2 11 18 11t18 -11l136 -510q1 -4 -4.5 -6t-11.5 -1t-7 5l-129 285l-133 -291q-3 -5 -14 -1.5t-11 9.5z" />
<glyph unicode="&#x2dc;" horiz-adv-x="559" d="M6 991q77 139 162 139q29 0 119.5 -25.5t142.5 -25.5q38 0 59.5 13.5t45.5 42.5q3 3 11 -4t5 -11q-41 -82 -73.5 -110.5t-78.5 -28.5q-40 0 -130.5 24.5t-141.5 24.5q-13 0 -23.5 -1t-20 -4.5t-14.5 -5.5t-13 -8.5t-10.5 -9t-11.5 -12t-11 -12.5q-2 -6 -12 4q-6 5 -5 10z " />
<glyph unicode="&#x2000;" horiz-adv-x="839" />
<glyph unicode="&#x2001;" horiz-adv-x="1679" />
<glyph unicode="&#x2002;" horiz-adv-x="839" />
<glyph unicode="&#x2003;" horiz-adv-x="1679" />
<glyph unicode="&#x2004;" horiz-adv-x="559" />
<glyph unicode="&#x2005;" horiz-adv-x="419" />
<glyph unicode="&#x2006;" horiz-adv-x="279" />
<glyph unicode="&#x2007;" horiz-adv-x="279" />
<glyph unicode="&#x2008;" horiz-adv-x="209" />
<glyph unicode="&#x2009;" horiz-adv-x="335" />
<glyph unicode="&#x200a;" horiz-adv-x="93" />
<glyph unicode="&#x2010;" horiz-adv-x="577" d="M56 410.5q1 24.5 5 25.5l439 72q6 1 8 -22.5t0 -48t-8 -25.5l-434 -72q-6 -1 -8.5 22.5t-1.5 48z" />
<glyph unicode="&#x2011;" horiz-adv-x="577" d="M56 410.5q1 24.5 5 25.5l439 72q6 1 8 -22.5t0 -48t-8 -25.5l-434 -72q-6 -1 -8.5 22.5t-1.5 48z" />
<glyph unicode="&#x2012;" horiz-adv-x="577" d="M56 410.5q1 24.5 5 25.5l439 72q6 1 8 -22.5t0 -48t-8 -25.5l-434 -72q-6 -1 -8.5 22.5t-1.5 48z" />
<glyph unicode="&#x2013;" horiz-adv-x="815" d="M61.5 410q1.5 22 6.5 22h677q9 0 9 -44t-9 -44h-675q-6 0 -8 22t-0.5 44z" />
<glyph unicode="&#x2014;" horiz-adv-x="1294" d="M61.5 410q1.5 22 6.5 22h1157q9 0 9 -44t-9 -44h-1155q-6 0 -8 22t-0.5 44z" />
<glyph unicode="&#x2018;" horiz-adv-x="350" d="M53 1012q0 85 38.5 158.5t113.5 146.5q5 4 10.5 2t7 -7t-1.5 -9q-100 -103 -100 -242q0 -57 20 -84q19 31 68 31q41 0 64.5 -25.5t23.5 -67.5q0 -44 -26.5 -68t-77.5 -24q-67 0 -103.5 49t-36.5 140z" />
<glyph unicode="&#x2019;" horiz-adv-x="350" d="M53 1198q0 44 27 68t78 24q67 0 103 -48t36 -140q0 -85 -38.5 -158.5t-113.5 -146.5q-5 -4 -10.5 -2t-7 7t1.5 9q100 103 100 242q0 57 -20 84q-19 -31 -68 -31q-41 0 -64.5 25t-23.5 67z" />
<glyph unicode="&#x201a;" horiz-adv-x="350" d="M53 76q0 44 27 68t78 24q67 0 103 -48t36 -140q0 -157 -152 -306q-5 -4 -10.5 -1.5t-7 7.5t1.5 9q100 103 100 241q0 57 -20 84q-18 -30 -68 -30q-41 0 -64.5 25t-23.5 67z" />
<glyph unicode="&#x201c;" horiz-adv-x="655" d="M41 1012q0 85 38.5 158.5t113.5 146.5q5 4 10.5 2t7 -7t-1.5 -9q-100 -103 -100 -242q0 -57 20 -84q19 31 68 31q41 0 64.5 -25.5t23.5 -67.5q0 -44 -27 -68t-78 -24q-66 0 -102.5 48.5t-36.5 140.5zM358 1012q0 85 38.5 158.5t113.5 146.5q5 4 10.5 2t7 -7t-1.5 -9 q-100 -103 -100 -242q0 -57 20 -84q19 31 68 31q41 0 64.5 -25.5t23.5 -67.5q0 -44 -26.5 -68t-77.5 -24q-67 0 -103.5 49t-36.5 140z" />
<glyph unicode="&#x201d;" horiz-adv-x="667" d="M53 1200q0 44 27 68t78 24q67 0 103 -48t36 -140q0 -85 -38.5 -158.5t-113.5 -146.5q-5 -4 -10.5 -2t-7 7t1.5 9q100 103 100 242q0 57 -20 84q-19 -31 -68 -31q-41 0 -64.5 25t-23.5 67zM371 1200q0 44 26.5 68t77.5 24q67 0 103 -48t36 -140q0 -85 -38 -158.5 t-113 -146.5q-5 -4 -11 -2t-7.5 7t1.5 9q101 104 101 242q0 56 -21 84q-19 -31 -67 -31q-41 0 -64.5 25t-23.5 67z" />
<glyph unicode="&#x201e;" horiz-adv-x="667" d="M53 76q0 44 27 68t78 24q67 0 103 -48t36 -140q0 -157 -152 -306q-5 -4 -10.5 -1.5t-7 7.5t1.5 9q100 103 100 241q0 57 -20 84q-18 -30 -68 -30q-41 0 -64.5 25t-23.5 67zM371 76q0 44 26.5 68t77.5 24q67 0 103 -48t36 -140q0 -158 -151 -306q-5 -4 -11 -1.5t-7.5 7.5 t1.5 9q101 104 101 241q0 56 -21 84q-18 -30 -67 -30q-41 0 -64.5 25t-23.5 67z" />
<glyph unicode="&#x2022;" horiz-adv-x="616" d="M119 408q0 77 55.5 131.5t134.5 54.5q77 0 132 -55t55 -131q0 -79 -55 -135t-132 -56q-79 0 -134.5 55.5t-55.5 135.5z" />
<glyph unicode="&#x2026;" horiz-adv-x="1370" d="M106 78q0 44 27.5 70t73.5 26q47 0 72.5 -25.5t25.5 -70.5q0 -48 -25.5 -74.5t-72.5 -26.5q-46 0 -73.5 27t-27.5 74zM586 78q0 44 27 70t73 26q47 0 72.5 -25.5t25.5 -70.5q0 -48 -25.5 -74.5t-72.5 -26.5q-46 0 -73 27t-27 74zM1065 78q0 44 27 70t73 26q47 0 73 -25.5 t26 -70.5q0 -47 -26 -74t-73 -27q-46 0 -73 27t-27 74z" />
<glyph unicode="&#x202f;" horiz-adv-x="335" />
<glyph unicode="&#x2039;" horiz-adv-x="622" d="M108 410.5q0 14.5 9 23.5l370 305q2 3 6.5 2t7.5 -5t1 -7l-232 -317l232 -318q2 -7 -7 -13q-6 -3 -8 1l-370 305q-9 9 -9 23.5z" />
<glyph unicode="&#x203a;" horiz-adv-x="622" d="M121 94l231 316l-231 319q-2 5 6 11q6 4 8 -1l371 -305q9 -9 9 -23.5t-9 -23.5l-371 -305q-4 -7 -11 1q-5 6 -3 11z" />
<glyph unicode="&#x205f;" horiz-adv-x="419" />
<glyph unicode="&#x20ac;" horiz-adv-x="1202" d="M86 538.5q0 24.5 14 24.5h93q31 184 188.5 302t378.5 118q198 0 301 -68q10 -6 14 -8t10 -7t7.5 -9t1.5 -10.5t-4 -14.5l-80 -182q-2 -3 -7.5 -3t-10.5 4t-3 9q15 69 -21 129t-104.5 93.5t-148.5 33.5q-143 0 -243.5 -108.5t-113.5 -278.5h600q15 0 5 -24t-25 -25h-582 q0 -50 9 -100h538q15 0 5 -25q-10 -23 -23 -24h-512q35 -155 130.5 -257t241.5 -102q246 0 342 258q3 6 14 4t11 -8l-29 -192q-3 -18 -7 -24t-21 -13q-163 -56 -330 -56q-119 0 -214 33.5t-156.5 91t-99 123.5t-54.5 142h-99q-15 0 -15 24.5t15 24.5h88q-4 50 -4 69v31h-86 q-14 0 -14 24.5z" />
<glyph unicode="&#x2122;" horiz-adv-x="1484" d="M59 1124q13 72 13 181q0 6 12 6.5t12 -6.5q0 -23 56 -23q23 0 85.5 -1t98.5 -1q43 0 95 1t69 1q41 0 59.5 5t22.5 24q2 5 13 5t11 -5q-8 -172 -8 -187q0 -4 -11.5 -4t-11.5 4q0 68 -27 98.5t-83 30.5q-44 0 -57 -14t-13 -57v-379q0 -45 17 -59.5t77 -14.5q5 0 5 -12 t-5 -12q-18 0 -69 1t-84 1q-29 0 -80 -1t-70 -1q-4 0 -4 12t4 12q58 0 76.5 14.5t18.5 59.5v381q0 44 -13 56.5t-57 12.5q-59 0 -89.5 -29.5t-37.5 -99.5q0 -4 -12.5 -4t-12.5 4zM632 717q0 12 3 12q89 0 92 102l12 373q-39 51 -92 51q-5 0 -5 12.5t5 12.5q9 0 36 -2t34 -2 q13 0 39.5 2t29.5 2q18 0 31.5 -12.5t34.5 -50.5l190 -379l179 409q4 15 14.5 24t21.5 9q3 0 26 -2t40 -2q23 0 51 2t39 2q5 0 5 -12.5t-5 -12.5q-48 0 -68.5 -16.5t-19.5 -67.5l12 -368q2 -45 17.5 -59.5t66.5 -14.5q3 0 3 -12t-3 -12q-17 0 -63 1t-72 1q-31 0 -78 -1 t-63 -1q-5 0 -5 12t5 12q58 0 75.5 14.5t14.5 59.5l-12 360l-197 -448q-3 -7 -15.5 -7t-15.5 7l-219 424l-10 -308q-3 -54 13.5 -78t54.5 -24q3 0 3 -12t-3 -12q-12 0 -43 1t-52 1q-17 0 -53.5 -1t-50.5 -1q-3 0 -3 12z" />
<glyph unicode="&#x25fc;" horiz-adv-x="808" d="M0 0v809h809v-809h-809z" />
</font>
</defs>
</svg>
