<?xml version="1.0" standalone="no"?>
<!DOCTYPE svg PUBLIC "-//W3C//DTD SVG 1.1//EN" "http://www.w3.org/Graphics/SVG/1.1/DTD/svg11.dtd" >
<svg xmlns="http://www.w3.org/2000/svg">
<metadata></metadata>
<defs>
<font id="cormorant_uprightsemibold" horiz-adv-x="1501" >
<font-face units-per-em="2048" ascent="1485" descent="-563" />
<missing-glyph horiz-adv-x="479" />
<glyph unicode="&#xfb01;" horiz-adv-x="1046" d="M-111 -455q-3 35 21 54.5t61 19.5q43 0 69 -22.5t34.5 -49t25 -49t41.5 -22.5q12 0 19.5 6t13 25.5t7.5 47t2.5 79.5t-1 113t-4.5 157l-24 723q-3 75 -26.5 92.5t-113.5 17.5q-5 0 -7.5 7.5t-1 15.5t6.5 8q77 0 106 18t29 70q1 332 110 481.5t318 149.5q116 0 187 -39 t74 -98q1 -37 -22.5 -57.5t-61.5 -20.5q-37 0 -65 18t-45 44t-33.5 52t-41 44t-57.5 18q-102 0 -154 -139.5t-43 -409.5l4 -125q172 1 335 9t184 8q26 0 30.5 -10.5t2.5 -54.5q-2 -59 -1 -105v-439q-3 -104 50 -104q42 0 112 80q6 4 12.5 1.5t11 -8.5t1.5 -10 q-64 -83 -113.5 -121t-110.5 -38q-132 0 -129 188l3 428q1 37 -7 58.5t-27.5 38t-66.5 23.5t-111 10.5t-174 4.5l25 -776q6 -199 -16.5 -311t-78.5 -160.5t-157 -48.5q-91 0 -145.5 31t-57.5 77z" />
<glyph unicode="&#xfb02;" horiz-adv-x="1118" d="M-111 -455q-1 35 22 54.5t60 19.5q43 0 69 -22.5t34.5 -49t25 -49t41.5 -22.5q12 0 19.5 6t13 25.5t7.5 47t2.5 79.5t-1 113t-4.5 157l-24 723q-3 75 -26 92.5t-114 17.5q-5 0 -7.5 7.5t-1 15.5t6.5 8q77 0 106 18t29 70q-2 328 100 479.5t333 151.5q154 0 245 -53 q61 33 64 92q0 4 6.5 5.5t13 -0.5t6.5 -7l-4 -1342q-3 -104 52 -104q23 0 49 19.5t63 58.5q6 4 12 2t10 -7.5t1 -9.5q-63 -83 -113.5 -121t-110.5 -38q-68 0 -99.5 46.5t-29.5 141.5l11 1104q-39 80 -98.5 127t-125.5 47q-234 0 -219 -549l4 -125q41 2 115.5 7.5t99.5 6.5 q10 0 16.5 -7t6.5 -15q-2 -21 -22 -47t-41 -23q-15 2 -48.5 7t-64.5 8.5t-60 5.5l25 -760q6 -199 -16.5 -311t-78.5 -160.5t-157 -48.5q-91 0 -146 31t-57 77z" />
<glyph unicode="&#xfb03;" horiz-adv-x="1636" d="M-111 -455q-3 35 21 54.5t61 19.5q43 0 69 -22.5t34.5 -49t25 -49t41.5 -22.5q12 0 19.5 6t13 25.5t7.5 47t2.5 79.5t-1 113t-4.5 157l-24 723q-3 75 -27 92.5t-115 17.5q-8 0 -8 15.5t8 15.5q76 0 105 18t30 70q6 250 111.5 383t306.5 133q139 0 269 -53 q103 168 329 168q115 0 186 -39t74 -98q1 -37 -22.5 -57.5t-61.5 -20.5q-37 0 -64.5 18t-45 44t-33.5 52t-40.5 44t-57.5 18q-102 0 -154 -139.5t-43 -409.5l4 -125q172 1 334.5 9t183.5 8q26 0 30.5 -11t3.5 -56q-2 -58 -1 -103v-439q-3 -104 49 -104q43 0 113 80 q6 4 12 1.5t10.5 -8.5t1.5 -10q-64 -84 -113 -121.5t-110 -37.5q-132 0 -129 188l2 428q1 31 -3 50t-19.5 35.5t-39 24.5t-70 14.5t-104 8t-149.5 2.5l25 -776q6 -199 -16.5 -311t-78.5 -160.5t-157 -48.5q-91 0 -145.5 31t-57.5 77q-3 35 21 54.5t61 19.5q43 0 69 -22.5 t34.5 -49t25 -49t41.5 -22.5q12 0 19.5 6t13 25.5t7.5 47t2.5 79.5t-1 113t-4.5 157l-25 723q0 6 -1 16.5t-1 15.5q-7 30 -29.5 42.5t-72.5 15.5q-126 8 -318 8l25 -768q6 -199 -16.5 -311t-78.5 -160.5t-157 -48.5q-91 0 -145.5 31t-57.5 77zM313 899l4 -129q230 0 293 2 q60 3 88.5 15.5t34.5 41.5q2 8 2 27q0 166 31 293q-109 182 -248 182q-211 0 -205 -432z" />
<glyph unicode="&#xfb04;" horiz-adv-x="1705" d="M-111 -455q-3 35 21 54.5t61 19.5q43 0 69 -22.5t34.5 -49t25 -49t41.5 -22.5q12 0 19.5 6t13 25.5t7.5 47t2.5 79.5t-1 113t-4.5 157l-24 723q-3 75 -27 92.5t-115 17.5q-8 0 -8 15.5t8 15.5q76 0 105 18t30 70q6 250 111.5 383t306.5 133q130 0 260 -51 q103 166 342 166q155 0 246 -53q61 33 64 92q0 4 6.5 5.5t13 -0.5t6.5 -7l-4 -1342q-3 -104 51 -104q38 0 113 78q6 4 12 2t10 -7.5t1 -9.5q-63 -83 -113.5 -121t-110.5 -38q-68 0 -99.5 46.5t-29.5 141.5l10 1104q-39 80 -98 127t-125 47q-234 0 -219 -549l4 -125 q41 2 115.5 7.5t99.5 6.5q10 0 16.5 -7t6.5 -15q-2 -20 -22.5 -46.5t-41.5 -23.5q-15 2 -48.5 7t-64 8.5t-59.5 5.5l25 -760q6 -199 -16.5 -311t-78.5 -160.5t-157 -48.5q-91 0 -146 31t-57 77q-1 35 22 54.5t60 19.5q43 0 69 -22.5t34.5 -49t25 -49t41.5 -22.5q12 0 19.5 6 t13 25.5t7.5 47t2.5 79.5t-1 113t-4.5 157l-25 723q0 6 -1 16.5t-1 15.5q-7 30 -29.5 42.5t-72.5 15.5q-126 8 -318 8l25 -768q6 -199 -16.5 -311t-78.5 -160.5t-157 -48.5q-91 0 -145.5 31t-57.5 77zM313 899l4 -129q230 0 293 2q60 3 88.5 15.5t34.5 41.5q2 8 2 27 q0 174 27 297q-109 178 -244 178q-211 0 -205 -432z" />
<glyph horiz-adv-x="0" />
<glyph horiz-adv-x="682" />
<glyph unicode=" "  horiz-adv-x="479" />
<glyph unicode="&#x09;" horiz-adv-x="479" />
<glyph unicode="&#xa0;" horiz-adv-x="479" />
<glyph unicode="!" horiz-adv-x="528" d="M135 1264q-1 7 20.5 13t50.5 8.5t56 2.5q47 0 89.5 -6.5t39.5 -17.5q-31 -121 -53 -293.5t-30 -283t-19 -300.5q0 -9 -29 -9t-29 9q-9 182 -17 298.5t-29 287t-50 291.5zM145 90q0 50 30.5 78.5t82.5 28.5t81.5 -28.5t29.5 -78.5q0 -53 -29.5 -83t-81.5 -30t-82.5 30.5 t-30.5 82.5z" />
<glyph unicode="&#x22;" horiz-adv-x="581" d="M66 1243q-3 26 72 50q76 25 113 16q13 -4 11 -13l-121 -546q-1 -3 -8 -5t-13.5 -1.5t-6.5 4.5zM346 1243q-3 26 73 50q76 25 113 16q13 -4 11 -13l-121 -546q-1 -3 -8 -5t-14 -1.5t-7 4.5z" />
<glyph unicode="#" horiz-adv-x="1077" d="M120.5 223q1.5 23 6.5 23h149l56 313h-131q-6 0 -8 23.5t-0.5 47t6.5 23.5h149l60 334q4 5 25 3t45.5 -9t23.5 -12l-56 -316h285l60 334q4 5 25 3t45.5 -9t23.5 -12l-56 -316h119q9 0 9 -47t-9 -47h-135l-55 -313h119q9 0 9 -46t-9 -46h-136l-57 -322q-4 -5 -25.5 -4 t-46 7t-22.5 11l53 308h-285l-57 -322q-4 -5 -25.5 -4t-46 7t-22.5 11l53 308h-131q-6 0 -8 23t-0.5 46zM375 246h284l56 313h-285z" />
<glyph unicode="$" horiz-adv-x="856" d="M106 313q-1 9 9.5 10.5t13.5 -6.5q51 -111 124.5 -195.5t164.5 -101.5v404q-20 12 -49 27q-42 23 -63 35t-56 34.5t-53 41.5t-38.5 45t-29 56t-8.5 64q0 108 84.5 175.5t212.5 78.5v168q0 15 27.5 15t27.5 -15v-166q125 -3 225 -47q28 -11 31 -39l4 -190q0 -6 -10.5 -9 t-13.5 4q-7 23 -25 55t-46.5 70t-72 69t-92.5 42v-363q7 -4 22.5 -11t22.5 -11q41 -21 56.5 -30t51.5 -30t52 -35t41 -38t36 -45.5t20 -51t9 -61.5q0 -111 -86.5 -191.5t-224.5 -93.5v-186q0 -13 -27.5 -13t-27.5 13v184q-83 0 -162.5 21.5t-118.5 52.5q-15 8 -18 41z M270 799q0 -63 38.5 -108t109.5 -87v338q-73 -3 -110.5 -42t-37.5 -101zM473 16q65 5 107.5 44.5t42.5 117.5q0 68 -39.5 119t-110.5 96v-377z" />
<glyph unicode="%" horiz-adv-x="1175" d="M43 887q0 109 74.5 184.5t189.5 75.5q114 0 186 -77t72 -189q0 -110 -72.5 -185t-185.5 -75q-116 0 -190 76t-74 190zM164 23l760 1114q4 5 19.5 -4t28 -21t9.5 -16l-758 -1110q-3 -4 -18.5 4t-29 18.5t-11.5 14.5zM195 893q0 -242 127 -242q30 0 49 15.5t28 47t12 66 t3 86.5q0 250 -119 250q-30 0 -50.5 -17t-31 -49.5t-14.5 -69t-4 -87.5zM610 256q0 109 75 185.5t189 76.5q113 0 187 -77.5t74 -188.5t-74 -186.5t-187 -75.5q-114 0 -189 77t-75 189zM762 264q0 -244 127 -244q30 0 49 15.5t28.5 47.5t13 67.5t3.5 87.5q0 122 -31 185.5 t-90 63.5q-30 0 -50.5 -17t-31 -50t-14.5 -69.5t-4 -86.5z" />
<glyph unicode="&#x26;" horiz-adv-x="1574" d="M147.5 392.5q-9.5 85.5 6.5 176.5q36 167 168.5 275t295.5 108q105 0 173 -43q106 122 106 211q0 32 -11 53t-26.5 32l-31 22t-26.5 29.5t-11 46.5q0 41 25 66.5t65 25.5q55 0 84.5 -45.5t29.5 -118.5q0 -43 -11.5 -87.5t-28.5 -83.5t-48.5 -83.5t-60.5 -79.5t-75 -79 t-81 -75.5t-91 -76.5t-92 -73t-96.5 -74.5t-93.5 -72.5q26 -166 139 -266t259 -100q168 0 291 124.5t153 342.5q-15 8 -56 29.5t-61 31.5t-52.5 23.5t-58.5 19.5t-50 6q-66 0 -66 -43q0 -22 23.5 -55t23.5 -55t-16 -41t-47 -19q-29 0 -48.5 18t-19.5 58q0 88 84 164t182 76 q49 0 114.5 -24.5t118 -54.5t112 -54.5t98.5 -24.5q28 0 44.5 10t16.5 27q0 16 -28.5 48.5t-28.5 62.5q0 25 16.5 40t48.5 15q66 0 66 -76q0 -86 -71.5 -163t-162.5 -77q-60 0 -143 39q-39 -267 -189.5 -410t-367.5 -143q-100 0 -188 33t-149.5 90t-104 133t-52 161.5z M313 489q264 213 340 283q-46 121 -143 121q-72 0 -121.5 -73t-69.5 -185q-12 -76 -6 -146z" />
<glyph unicode="'" horiz-adv-x="301" d="M66 1243q-3 26 72 50q76 25 113 16q13 -4 11 -13l-121 -546q-1 -3 -8 -5t-13.5 -1.5t-6.5 4.5z" />
<glyph unicode="(" horiz-adv-x="632" d="M104 623q0 291 120.5 522t336.5 340q3 2 7.5 -3t0.5 -9q-266 -282 -266 -850t266 -850q4 -3 -0.5 -9t-7.5 -4q-216 111 -336.5 342t-120.5 521z" />
<glyph unicode=")" horiz-adv-x="632" d="M61.5 1478q1.5 3 5 5.5t5.5 1.5q216 -111 336 -341.5t120 -520.5q0 -291 -120 -522.5t-336 -340.5q-3 -2 -8 3.5t-1 9.5q267 283 267 850t-267 850q-3 2 -1.5 5z" />
<glyph unicode="*" horiz-adv-x="917" d="M108 833q-1 3 1 5l313 168q4 4 12 -1.5t6 -11.5l-129 -231q-13 -25 -114 18q-78 33 -89 53zM139 1210q7 88 22 103q3 2 5 0l258 -248q3 -3 2.5 -7t-3 -8t-5.5 -3l-262 49q-27 5 -17 114zM428 1346q-3 26 96 50q87 22 110 13q5 -2 3 -6l-154 -320q-1 -6 -10.5 -6t-9.5 6z M475 985q-1 4 7.5 10.5t11.5 3.5l182 -194q13 -13 -20 -60.5t-73 -84.5t-42 -25zM505.5 1041q-2.5 9 2.5 10l240 114q18 7 53 -39t57 -95t10 -48l-354 49q-6 0 -8.5 9z" />
<glyph unicode="+" horiz-adv-x="815" d="M61.5 410.5q1.5 23.5 6.5 23.5h292v293q0 9 47.5 9t47.5 -9v-293h290q9 0 9 -47t-9 -47h-290v-289q0 -6 -23.5 -8t-47.5 -0.5t-24 6.5v291h-290q-6 0 -8 23.5t-0.5 47z" />
<glyph unicode="," horiz-adv-x="454" d="M88 86q0 52 31.5 80.5t87.5 28.5q68 0 106.5 -53t38.5 -150q0 -90 -39.5 -166t-117.5 -152q-5 -4 -11 -1.5t-7.5 7.5t1.5 9q101 104 101 241q0 56 -21 84q-18 -30 -72 -30q-44 0 -71 28t-27 74z" />
<glyph unicode="-" horiz-adv-x="577" d="M56 412.5q1 26.5 5 27.5l439 72q6 1 8 -24.5t0 -52t-8 -27.5l-434 -72q-6 -1 -8.5 24.5t-1.5 52z" />
<glyph unicode="." horiz-adv-x="417" d="M98 90q0 50 30.5 78.5t82.5 28.5t81.5 -28.5t29.5 -78.5q0 -53 -29.5 -83t-81.5 -30q-53 0 -83 30.5t-30 82.5z" />
<glyph unicode="/" horiz-adv-x="712" d="M53 -311l516 1806q4 9 48 -5.5t42 -23.5l-514 -1802q-4 -9 -49 4t-43 21z" />
<glyph unicode="0" horiz-adv-x="976" d="M53 401q3 120 60.5 215.5t157 148t223.5 52.5q188 0 308.5 -117.5t119.5 -304.5q-1 -186 -124 -304t-309 -118t-311 120.5t-125 307.5zM252 418q5 -173 77 -290.5t189 -117.5q73 0 121 48.5t67.5 127.5t16.5 185q-4 192 -75.5 300.5t-178.5 108.5q-101 0 -160 -98.5 t-57 -263.5z" />
<glyph unicode="1" horiz-adv-x="632" d="M52 630q0 6 5 9l359 176q5 3 10.5 -0.5t5.5 -9.5l-2 -639q0 -90 33.5 -115.5t154.5 -25.5q9 0 9 -12.5t-9 -12.5q-32 0 -122.5 2t-145.5 2q-54 0 -146.5 -2t-127.5 -2q-8 0 -8 12.5t8 12.5q117 0 151.5 26t34.5 115l2 391q0 38 -2.5 57t-12.5 34.5t-31.5 14.5t-57 -12 t-90.5 -37q-7 -2 -12.5 4t-5.5 12z" />
<glyph unicode="2" horiz-adv-x="823" d="M72.5 9q-5.5 9 1.5 16q257 232 343.5 338.5t86.5 205.5q0 80 -43.5 135.5t-118.5 55.5q-77 0 -128.5 -66.5t-94.5 -199.5q-1 -3 -7.5 -3t-12.5 2.5t-5 6.5l86 336q2 8 17 2q8 -4 6 -7q-11 -57 28 -57q13 0 84.5 21.5t135.5 21.5q111 0 173 -53t62 -141q0 -52 -24 -99.5 t-70.5 -93t-94.5 -83.5t-117.5 -92.5t-117.5 -98.5q-6 -6 -2.5 -10.5t12.5 -4.5q62 0 100 0.5t85 1.5t74.5 3t60.5 6t51.5 10t38.5 14.5t31.5 20t20.5 26t14 33.5q3 6 13.5 5t10.5 -7l-39 -231q0 -8 -5.5 -15.5t-12.5 -7.5h-627q-10 0 -15.5 9z" />
<glyph unicode="3" horiz-adv-x="765" d="M43 537l76 299q3 7 13.5 5t8.5 -10q-7 -30 3.5 -43.5t27.5 -13.5q15 0 85 21.5t126 21.5q121 0 188.5 -68t65.5 -165q-1 -88 -61 -166.5t-166 -138.5q133 -15 208.5 -95t75.5 -198q0 -149 -145 -281.5t-455 -267.5q-8 -3 -13.5 6.5t3.5 15.5q119 65 201.5 130t126.5 128 t62 121t18 123q0 113 -56 195t-155 82q-53 0 -95 -17q-7 -3 -12 7.5t0 13.5q76 39 180 39h17q78 96 78 268q0 96 -41 151.5t-125 55.5q-157 0 -215 -228q-1 -4 -7.5 -4t-12.5 3.5t-5 9.5z" />
<glyph unicode="4" horiz-adv-x="944" d="M28 30.5q-3 7.5 3 14.5l657 778q6 8 19.5 4.5t13.5 -12.5l2 -696q23 1 70 2t71 2q8 0 12.5 -28.5t2 -57.5t-10.5 -29l-145 6v-338q0 -23 -16 -28l-136 -33q-18 -6 -18 14v389q-171 5 -512 5q-10 0 -13 7.5zM162.5 118.5q2.5 -5.5 11.5 -5.5q80 0 204 1t175 1l-2 473 l-385 -457q-6 -7 -3.5 -12.5z" />
<glyph unicode="5" horiz-adv-x="819" d="M100 367l66 364q1 8 3 12t8 7t18 4q373 43 434 60q46 12 57 36q2 5 6 16q2 4 8.5 4.5t12 -2.5t4.5 -8l-41 -182q-6 -22 -18.5 -29.5t-41.5 -7.5l-393 -8q-14 0 -20.5 -6t-9.5 -23l-35 -203q288 -3 425.5 -106t137.5 -277q0 -168 -142.5 -301.5t-461.5 -279.5 q-4 -2 -8.5 2t-4.5 9.5t5 10.5q229 124 323 251t94 274q0 163 -106.5 260.5t-300.5 97.5q-9 0 -15 8t-4 17z" />
<glyph unicode="6" horiz-adv-x="927" d="M72 426q0 187 88 369.5t257 332t390 226.5q9 4 13 -12q3 -10 -3 -13q-139 -67 -249 -169.5t-176 -218.5t-100 -236t-34 -236q0 -195 85 -323t214 -128q156 0 156 211q0 127 -52.5 205t-146.5 78q-71 0 -143 -55q-5 -4 -11 -1.5t-7.5 8t1.5 9.5q91 105 248 105 q76 0 134.5 -25.5t92.5 -68t51 -91.5t17 -100q0 -138 -112 -229t-287 -91q-195 0 -310.5 119t-115.5 334z" />
<glyph unicode="7" horiz-adv-x="856" d="M37 520l74 330q1 5 8.5 5.5t14 -2.5t5.5 -9q-7 -34 11 -43.5t86 -9.5h536q10 0 16 -9.5t3 -17.5l-431 -1215q-9 -24 -17 -33t-26 -16l-163 -63q-5 -2 -12.5 3.5t-4.5 12.5l553 1186q6 14 -10 14q-114 0 -186.5 -0.5t-140.5 -3.5t-105 -6t-72 -12t-50 -17t-29.5 -25 t-20 -32t-13.5 -43q-1 -6 -8.5 -6.5t-13.5 3t-4 9.5z" />
<glyph unicode="8" horiz-adv-x="985" d="M66 305q-1 110 82 210t202 161q-82 56 -126 115t-44 139q0 81 49 138.5t121.5 82.5t159.5 25q136 0 214.5 -60.5t78.5 -154.5q0 -140 -205 -254q140 -80 191 -120q138 -112 139 -261q0 -105 -61 -187t-160 -124t-218 -42q-183 0 -303 99t-120 233zM252 358 q3 -138 86 -239t207 -101q99 0 162 61.5t63 166.5q0 44 -11.5 83.5t-36 72.5t-49.5 59.5t-66 54.5t-70.5 46.5t-78 46.5t-73.5 44q-139 -108 -133 -295zM338 993q0 -46 17 -85t52.5 -72.5t70.5 -57.5t89 -55q74 86 74 192q0 101 -50 162.5t-122 61.5q-56 0 -93.5 -38.5 t-37.5 -107.5z" />
<glyph unicode="9" horiz-adv-x="929" d="M31 516q0 131 114.5 216t280.5 85q195 0 313.5 -121.5t118.5 -333.5q0 -186 -88 -368.5t-257 -331.5t-390 -225q-8 -2 -12.5 9.5t4.5 14.5q135 66 244.5 170t176.5 221.5t102.5 239.5t35.5 234q0 114 -36 214.5t-106.5 165t-160.5 64.5q-150 0 -150 -188 q0 -126 57 -214.5t146 -88.5q76 0 141 59q5 3 10.5 1.5t9 -6t1.5 -7.5q-85 -113 -242 -113q-76 0 -137.5 28t-98.5 72.5t-57 97t-20 105.5z" />
<glyph unicode=":" horiz-adv-x="417" d="M98 90q0 50 30.5 78.5t82.5 28.5t81.5 -28.5t29.5 -78.5q0 -53 -29.5 -83t-81.5 -30q-53 0 -83 30.5t-30 82.5zM98 666q0 49 30 77.5t83 28.5q52 0 81.5 -28t29.5 -78q0 -53 -29.5 -83t-81.5 -30q-53 0 -83 30.5t-30 82.5z" />
<glyph unicode=";" horiz-adv-x="468" d="M102 86q0 52 31.5 80.5t87.5 28.5q68 0 107 -53t39 -150q0 -89 -40 -165t-118 -153q-5 -4 -10.5 -1.5t-7 7.5t1.5 9q100 103 100 241q0 56 -21 84q-18 -30 -71 -30q-44 0 -71.5 28t-27.5 74zM102 666q0 49 30 77.5t83 28.5q52 0 81.5 -28t29.5 -78q0 -53 -29.5 -83 t-81.5 -30q-53 0 -83 30.5t-30 82.5z" />
<glyph unicode="&#x3c;" horiz-adv-x="833" d="M64 390q0 30 10 34l684 301q8 5 12 -16q7 -40 -5 -67q-3 -7 -7 -9l-570 -244l570 -244q14 -6 13 -57q-2 -40 -13 -37l-684 303q-10 6 -10 36z" />
<glyph unicode="=" horiz-adv-x="958" d="M61.5 266.5q1.5 22.5 6.5 22.5h821q9 0 9 -45t-9 -45h-819q-6 0 -8 22.5t-0.5 45zM61.5 555q1.5 23 6.5 23h821q9 0 9 -45.5t-9 -45.5h-819q-6 0 -8 22.5t-0.5 45.5z" />
<glyph unicode="&#x3e;" horiz-adv-x="833" d="M63 688q2 40 13 37l684 -303q10 -6 10 -36t-10 -34l-684 -301q-8 -5 -12 16q-7 40 5 67q3 7 7 9l569 244l-569 244q-14 6 -13 57z" />
<glyph unicode="?" horiz-adv-x="688" d="M70 1120q0 68 77 114t189 46q128 0 215.5 -63.5t87.5 -180.5q0 -34 -8.5 -64.5t-19.5 -51.5t-33.5 -46.5t-36.5 -38.5t-44 -38.5t-42 -36.5q-66 -60 -95.5 -119.5t-29.5 -132.5q0 -42 12 -109q1 -5 -6 -8.5t-14.5 -3.5t-10.5 4q-24 55 -38.5 126.5t-14.5 121.5 q0 45 13.5 82.5t33.5 62.5t44 54.5t44 56.5t33.5 71t13.5 97q0 80 -28.5 131t-77.5 51q-36 0 -50 -24.5t-18 -63.5q-3 -24 -7 -40.5t-14.5 -38.5t-31.5 -34t-51 -12q-47 0 -69.5 26t-22.5 62zM213 90q0 50 30.5 78.5t82.5 28.5t81 -28.5t29 -78.5q0 -53 -29 -83t-81 -30 t-82.5 30.5t-30.5 82.5z" />
<glyph unicode="@" horiz-adv-x="1486" d="M137 358q0 144 57.5 270t152.5 212t220.5 135t259.5 49q120 0 222 -39t171 -104.5t107.5 -152t38.5 -181.5q0 -117 -55 -217t-149.5 -158.5t-205.5 -58.5q-79 0 -108.5 47.5t-9.5 134.5l8 41q-70 -105 -152 -167.5t-153 -62.5q-57 0 -90.5 43t-20.5 134q16 110 86 216 t163.5 171t176.5 65q67 0 100 -47q49 22 58 62q4 3 20.5 2t16.5 -4l-84 -461q-12 -62 2.5 -94.5t68.5 -32.5q81 0 154.5 87.5t73.5 235.5q0 206 -146 349t-362 143q-117 0 -214 -45.5t-160 -123.5t-97.5 -180t-34.5 -216q0 -252 154 -402.5t409 -150.5q96 0 175 22.5 t167 79.5q7 4 13 -7q4 -6 -1 -9q-181 -154 -424 -154q-127 0 -237.5 39t-193 110t-130 179.5t-47.5 240.5zM588 375q-32 -154 41 -154q66 0 149.5 109t108.5 229q9 55 -7.5 91.5t-54.5 35.5q-75 -3 -144 -96t-93 -215z" />
<glyph unicode="A" horiz-adv-x="1335" d="M-25 14q0 11 9 11q63 0 133 61.5t123 183.5l436 1028q2 7 17 7q1 -1 2 -1q17 0 22 -8l444 -1124q17 -42 25 -60t22.5 -39.5t31 -29t41.5 -13t62 -5.5q7 0 7 -12.5t-7 -12.5q-36 0 -115.5 4t-127.5 4t-122.5 -4t-111.5 -4q-6 0 -6 12.5t6 12.5q92 1 114 31q8 12 8 31 q0 32 -21 85l-183 457h-329l-150 -363q-28 -70 -33 -116q-1 -9 -1 -17q0 -35 16 -57q20 -28 60 -39.5t106 -11.5q6 0 8 -6.5t-0.5 -12.5t-9.5 -6q-30 0 -120 4t-138 4q-47 0 -110 -4t-99 -4q-9 0 -9 14zM475 680h289l-143 356z" />
<glyph unicode="B" horiz-adv-x="1204" d="M94 12.5q0 12.5 4 12.5q96 0 125 26t29 115v948q0 88 -28 114.5t-122 26.5q-6 0 -6 12.5t6 12.5q32 0 114 -3t132 -3q37 0 122.5 6t127.5 6q183 0 281 -70t98 -196q0 -98 -64.5 -177t-183.5 -124q171 -19 272 -113t101 -233q0 -163 -130.5 -272t-326.5 -109q-37 0 -143 6 t-154 6q-50 0 -133.5 -2t-116.5 -2q-4 0 -4 12.5zM449 166q0 -50 10.5 -76.5t46.5 -41.5t106 -15q283 0 283 291q0 157 -82 250.5t-242 93.5q-73 0 -122 -4v-498zM449 721q49 -2 86 -2q123 0 186 78t63 204q0 118 -56.5 183t-166.5 65q-65 0 -88.5 -27.5t-23.5 -111.5v-389z " />
<glyph unicode="C" horiz-adv-x="1298" d="M78 645q0 120 38.5 226t106 184t157.5 134.5t195.5 85t217.5 28.5q96 0 198 -18t164 -46q17 -9 22 -18t5 -31l16 -256q0 -8 -8.5 -8.5t-11.5 6.5q-66 155 -186 237t-277 82q-204 0 -315 -144t-111 -398q0 -187 66.5 -347.5t183 -255t256.5 -94.5q231 0 397 316 q3 8 12.5 5.5t9.5 -11.5l-14 -232q-4 -19 -6 -25.5t-7.5 -11.5t-19.5 -10q-182 -68 -376 -68q-153 0 -276.5 40.5t-203.5 106t-133.5 154.5t-76.5 180.5t-23 188.5z" />
<glyph unicode="D" horiz-adv-x="1390" d="M82 12.5q0 12.5 6 12.5q95 0 123 26q27 25 27 109v6v948q-5 88 -32.5 114.5t-117.5 26.5q-6 0 -6 12.5t6 12.5q28 0 110.5 -3t133.5 -3q43 0 132.5 5t127.5 5q211 0 375.5 -79.5t255 -221.5t90.5 -321q0 -148 -57 -275t-152.5 -212.5t-220 -134t-260.5 -48.5 q-35 0 -137.5 6t-149.5 6q-53 0 -136 -2t-112 -2q-6 0 -6 12.5zM428 188q2 -86 38 -122.5t138 -36.5q224 0 359 154.5t135 432.5q0 95 -18.5 184.5t-59 171t-98.5 142.5t-143.5 97t-188.5 36q-94 0 -128 -29.5t-34 -107.5v-922z" />
<glyph unicode="E" horiz-adv-x="1159" d="M96 1267.5q0 12.5 6 12.5h875q16 0 16 -18q1 -30 3 -131t3 -134q0 -7 -12.5 -7.5t-13.5 5.5q-25 111 -105.5 177.5t-193.5 66.5h-90q-95 0 -118 -21.5t-26 -105.5v-420h277q99 0 144 35q44 34 44 113q0 10 7.5 12t14.5 -0.5t7 -9.5q0 -46 -2 -99.5t-2 -76.5 q0 -33 2 -98.5t2 -104.5q0 -9 -13.5 -9t-13.5 9q0 176 -196 176h-271v-465q0 -83 26.5 -108t115.5 -25h120q118 0 213.5 75.5t143.5 202.5q4 8 19 2q7 -3 5 -6q-18 -140 -18 -284q0 -18 -6.5 -24.5t-24.5 -6.5h-928q-5 0 -7 6t-0.5 12.5t5.5 6.5q96 0 121 25.5t25 115.5v948 q-2 88 -29 114.5t-119 26.5q-6 0 -6 12.5z" />
<glyph unicode="F" horiz-adv-x="1069" d="M90 12.5q0 12.5 6 12.5q94 0 120 25.5t26 115.5v948q-2 88 -29 114.5t-119 26.5q-4 0 -4 12.5t4 12.5h877q14 0 14 -18q1 -30 3 -131t3 -134q0 -7 -12.5 -7.5t-13.5 5.5q-23 111 -104 177.5t-193 66.5h-90q-68 0 -97 -10t-38.5 -34t-10.5 -83v-444h238q98 0 142 35 t44 116q0 9 13.5 9t13.5 -9q0 -45 -1 -100t-1 -78q0 -33 2 -98.5t2 -104.5q0 -6 -6.5 -7.5t-12.5 1t-6 8.5q0 87 -50.5 131.5t-145.5 44.5h-232v-442q1 -49 9.5 -76t34.5 -44.5t68.5 -23t117.5 -5.5q6 0 6 -12.5t-6 -12.5q-18 0 -127 2t-201 2q-48 0 -129 -2t-109 -2 q-6 0 -6 12.5z" />
<glyph unicode="G" horiz-adv-x="1400" d="M82 647q0 189 98.5 339.5t269.5 233.5t381 83q96 0 190.5 -18t152.5 -46q17 -10 20.5 -18t5.5 -31l19 -254q0 -7 -11 -8.5t-14 4.5q-61 153 -175.5 237t-270.5 84q-217 0 -337 -143t-120 -389q0 -208 75.5 -369.5t208 -248.5t299.5 -87q118 0 160.5 49.5t42.5 192.5 q0 52 -3 85t-13.5 59t-25 39.5t-43.5 22t-62.5 11t-89.5 2.5q-7 0 -10 8.5t-0.5 16.5t8.5 8q135 -9 273 -9q104 0 210 5q6 0 9 -7q1 -4 1 -9q0 -3 -1 -6q-1 -7 -7 -7h-3q-43 0 -52 -27q-8 -29 -8 -159v-53q0 -82 6 -130.5t6 -50.5q0 -11 -3.5 -15t-15.5 -9 q-251 -58 -442 -58q-169 0 -307.5 51.5t-230.5 142t-141.5 213.5t-49.5 265z" />
<glyph unicode="H" horiz-adv-x="1492" d="M86 12.5q0 12.5 4 12.5q95 0 121.5 25.5t26.5 115.5v948q0 87 -28 114t-118 27q-6 0 -6 12.5t6 12.5q28 0 108 -3t130 -3t133.5 3t111.5 3q6 0 6 -12.5t-6 -12.5q-49 0 -76.5 -6t-43.5 -24t-21 -43.5t-6 -71.5v-418h633v418q0 88 -26.5 116.5t-116.5 28.5q-5 0 -5.5 12.5 t5.5 12.5q28 0 108.5 -3t130.5 -3q48 0 132 3t112 3q4 0 5.5 -6t0.5 -12.5t-4 -6.5q-94 0 -121 -26.5t-29 -114.5v-948q0 -88 29.5 -114.5t122.5 -26.5q6 0 6 -12.5t-6 -12.5q-24 0 -107 2t-133 2q-49 0 -131.5 -2t-113.5 -2q-6 0 -6.5 12.5t6.5 12.5q95 0 119 25t24 116 l-2 473h-633v-473q0 -89 28 -115t122 -26q4 0 4 -12.5t-4 -12.5q-30 0 -113.5 2t-136.5 2q-47 0 -127.5 -2t-110.5 -2q-4 0 -4 12.5z" />
<glyph unicode="I" horiz-adv-x="712" d="M105 1269q0 11 6 11q29 0 110 -3t131 -3q54 0 136.5 3t111.5 3q6 0 6 -12.5t-6 -12.5q-49 0 -76.5 -5.5t-43.5 -23.5t-21 -43.5t-6 -72.5v-944q0 -89 27.5 -115t119.5 -26q6 0 6 -12.5t-6 -12.5q-29 0 -110 2t-134 2q-49 0 -131 -2t-112 -2q-4 0 -5.5 6t-0.5 12.5t4 6.5 q95 0 122 26q25 24 25 103v12v948q0 88 -27.5 114.5t-119.5 26.5q-6 0 -6 14z" />
<glyph unicode="J" horiz-adv-x="661" d="M76 -373q90 56 128 169q35 99 35 247q0 19 -1 39v1032q0 88 -28 114.5t-120 26.5q-4 0 -4 12.5t4 12.5q31 0 112 -3t130 -3q56 0 139.5 3t108.5 3q7 0 7 -14q0 -11 -7 -11q-49 0 -76.5 -5.5t-44 -23.5t-21.5 -43.5t-6 -72.5v-973q0 -160 -36 -261t-107.5 -161.5 t-200.5 -109.5h-2l-10 8q-3 5 -3 8.5t3 5.5z" />
<glyph unicode="K" horiz-adv-x="1359" d="M82 12.5q0 12.5 6 12.5q94 0 122 26t28 115v948q-2 88 -29 114.5t-117 26.5q-6 0 -6 12.5t6 12.5q28 0 108 -3t130 -3t133.5 3t111.5 3q6 0 6 -12.5t-6 -12.5q-49 0 -76.5 -5.5t-43.5 -23.5t-21 -43.5t-6 -72.5v-440l414 417q57 57 57 101q-1 10 -3 18q-14 50 -105 49 q-4 0 -6 6.5t-1 12.5t4 6q25 0 121 -3t152 -3q59 0 126 3t89 3q6 0 6 -12.5t-6 -12.5q-87 0 -189 -47t-190 -133l-266 -262l291 -379q78 -102 125.5 -162.5t91 -111t68.5 -73.5t53 -39t47.5 -19.5t50.5 -3.5q6 0 6 -14q0 -11 -6 -11h-203h-16q-91 0 -115 10q-28 11 -63 61 q-9 12 -30 44q-75 112 -145 204l-280 369l-78 -76v-446v-41t2 -31t5 -25.5t10 -17t16 -14t24.5 -7t35 -5t46.5 -0.5q5 0 5 -12.5t-5 -12.5q-31 0 -106.5 2t-134.5 2q-48 0 -129 -2t-109 -2q-6 0 -6 12.5z" />
<glyph unicode="L" horiz-adv-x="1105" d="M84 12.5q0 12.5 6 12.5q95 0 121.5 25.5t26.5 115.5v948q-2 88 -29 114.5t-117 26.5q-6 0 -6 12.5t6 12.5q28 0 108 -3t130 -3t133.5 3t111.5 3q6 0 6 -12.5t-6 -12.5q-49 0 -76.5 -5.5t-43.5 -23t-21 -42.5t-6 -72v-938q0 -82 24.5 -107.5t100.5 -25.5h113 q152 0 249 73.5t152 223.5q3 6 16 3t13 -9q-17 -136 -17 -301q0 -17 -7.5 -24t-24.5 -7h-957q-6 0 -6 12.5z" />
<glyph unicode="M" horiz-adv-x="1638" d="M86 12.5q0 12.5 6 12.5q78 0 121 58t43 165l10 940q-65 67 -168 67q-6 0 -6 12.5t6 12.5q17 0 61.5 -2t71.5 -2q42 0 98 2t66 2q25 0 42 -20.5t46 -85.5l379 -885l338 940q7 23 26.5 37t43.5 14q10 0 57.5 -2t73.5 -2q34 0 82 2t67 2q4 0 5.5 -6t0.5 -12.5t-4 -6.5 q-80 0 -114 -28q-28 -23 -29 -80q0 -13 2 -29l29 -952q3 -89 29.5 -115t117.5 -26q6 0 6 -12.5t-6 -12.5q-28 0 -109 2t-132 2q-52 0 -133.5 -2t-110.5 -2q-6 0 -6 12.5t6 12.5q97 0 124 26q22 21 22 85q0 14 -1 30l-26 975l-410 -1127q-1 -8 -14.5 -7.5t-16.5 9.5 l-461 1086l-4 -850v-10q1 -102 39 -158q40 -58 119 -59q5 0 5.5 -12.5t-5.5 -12.5q-23 0 -87.5 2t-106.5 2q-34 0 -97.5 -2t-89.5 -2q-6 0 -6 12.5z" />
<glyph unicode="N" horiz-adv-x="1449" d="M53 1267.5q0 12.5 6 12.5q30 0 94.5 -2t86.5 -2q28 0 77 2t52 2q17 0 25 -8t27 -38.5t42 -59.5l702 -895l2 770v8q0 94 -43 145q-45 53 -131 53q-7 0 -7 12.5t7 12.5q21 0 89 -3t114 -3q39 0 108.5 3t98.5 3q6 0 6 -12.5t-6 -12.5q-84 0 -131 -53.5t-47 -152.5l-2 -1065 q-1 -10 -23 -12q-4 0 -7 -1q-16 0 -24 9l-868 1103v-852q-1 -101 44 -153.5t130 -52.5q7 0 7 -12.5t-7 -12.5q-25 0 -91.5 2t-111.5 2q-39 0 -108 -2t-98 -2q-6 0 -6 12.5t6 12.5q84 0 131 53t47 153l2 920q-91 104 -187 104q-6 0 -6 12.5z" />
<glyph unicode="O" d="M82 631q1 191 90 344.5t246.5 240.5t353.5 87q147 0 270.5 -50.5t207.5 -138.5q82 -86 128 -206q45 -117 45 -251v-6q-1 -152 -58.5 -280.5t-153.5 -214t-222.5 -133.5t-265.5 -48q-143 0 -264.5 51.5t-204 139.5t-128.5 208q-45 118 -44 251v6zM281 737v-6 q1 -184 65 -342q66 -161 188.5 -260.5t276.5 -99.5q186 0 298 140.5t114 375.5q0 190 -65.5 351t-188 259t-275.5 98q-185 0 -298.5 -139.5t-114.5 -376.5z" />
<glyph unicode="P" horiz-adv-x="1153" d="M86 12.5q0 12.5 6 12.5q95 0 122.5 26t27.5 115v948q-1 89 -29 115t-121 26q-6 0 -6 12.5t6 12.5q28 0 108 -3t130 -3q56 0 147 6t125 6q134 0 238 -36t168.5 -114t64.5 -190q0 -83 -30 -153t-79 -116.5t-112.5 -78.5t-128.5 -46.5t-129 -14.5q-58 0 -94 10q-4 1 -5 10.5 t2 18.5t9 8q30 -9 65 -9q124 0 208.5 84t84.5 246q0 156 -89.5 249t-209.5 93q-84 0 -109 -24.5t-26 -112.5l2 -944q0 -89 27.5 -115t118.5 -26q6 0 6.5 -12.5t-6.5 -12.5q-29 0 -110.5 2t-133.5 2q-48 0 -131 -2t-111 -2q-6 0 -6 12.5z" />
<glyph unicode="Q" d="M82 631q1 191 90 344.5t246.5 240.5t353.5 87q147 0 270.5 -50.5t207 -138t128.5 -206.5q45 -117 45 -251v-6q-1 -199 -95.5 -352t-252.5 -238q104 -180 255.5 -304t246.5 -124q35 0 65 9q3 1 8 -4q5 -8 5 -14q0 -4 -2 -5q-92 -29 -152 -29q-141 0 -298 106t-294 302 q-97 -23 -186 -23q-143 0 -264.5 51.5t-204 139.5t-128.5 208q-44 118 -44 251v6zM281 737v-6q0 -183 65 -342q65 -161 188 -260.5t277 -99.5q186 0 298 140.5t114 375.5q0 190 -65.5 351t-188 259t-275.5 98q-185 0 -298.5 -139.5t-114.5 -376.5z" />
<glyph unicode="R" horiz-adv-x="1390" d="M92 18q2 6 6 7q103 0 134.5 26.5t31.5 114.5v948q0 88 -28.5 114.5t-126.5 26.5q-9 0 -9 12.5t9 12.5q31 0 115 -3t134 -3q53 0 132 6t104 6q195 0 294 -67.5t99 -188.5q0 -92 -57 -174t-154 -137q245 -390 385 -542t258 -152q7 0 7 -14q0 -11 -7 -11h-303 q-50 0 -179 169.5t-308 492.5q-77 -15 -129 -15q-7 0 -43 6v-487v-12q-1 -78 25 -102q28 -26 124 -27q6 0 8 -6.5t0.5 -12.5t-6.5 -6q-32 0 -116 2t-136 2q-50 0 -137.5 -2t-118.5 -2q-5 0 -7 6q-1 3 -1 7q-1 2 0 5zM457 709q35 -9 75 -9q137 0 195.5 60.5t58.5 200.5 q0 148 -59 217t-152 69q-29 0 -43.5 -0.5t-30.5 -5.5t-22 -12.5t-12 -24t-7.5 -38t-2.5 -56.5v-401z" />
<glyph unicode="S" horiz-adv-x="1028" d="M143 401q-1 9 10.5 11t14.5 -4q24 -59 46.5 -106.5t58.5 -102.5t74 -92t91 -62t111 -25q89 0 146 48t57 161q0 80 -32.5 146t-84.5 112t-115 87.5t-126 81.5t-115 83.5t-84.5 103.5t-32.5 132q0 82 36 146.5t96 103t132.5 58.5t151.5 20q153 0 262 -48q30 -16 30 -38 l4 -279q0 -6 -10 -8.5t-12 4.5q-109 330 -324 330q-92 0 -145 -55.5t-53 -137.5q0 -68 33 -126t85.5 -100.5t116.5 -82.5t128 -81.5t116.5 -87.5t85.5 -109.5t33 -139.5q0 -167 -118 -268t-312 -101q-87 0 -181 23t-141 57q-15 8 -18 37z" />
<glyph unicode="T" horiz-adv-x="1220" d="M82 1325q0 4 7 5t13.5 -1t6.5 -6q0 -43 92 -43q167 -6 415 -6q98 0 226 3t170 3q68 0 99 10t38 41q3 4 9 5h3q5 0 9 -2q5 -2 4 -6v-1q-18 -253 -18 -357q0 -24 1 -40q-1 -6 -15 -5.5t-14 7.5v7q0 132 -74 214q-76 84 -204 84h-35q-36 0 -55.5 -5t-30 -22t-13 -37 t-3.5 -63l2 -944q1 -38 5 -60.5t14.5 -40t32.5 -25.5t53 -11.5t83 -3.5q6 0 6 -12.5t-6 -12.5q-33 0 -127 2t-158 2q-56 0 -151 -2t-129 -2q-5 0 -7 6t-0.5 12.5t5.5 6.5q62 0 96.5 5t56 21.5t27.5 42.5q6 22 6 60v12v948v7q0 70 -20 92q-22 24 -90 24h-35 q-117 0 -199.5 -85.5t-101.5 -225.5q0 -4 -6 -4q-8 0 -14 2t-5 5z" />
<glyph unicode="U" horiz-adv-x="1574" d="M56 1267.5q0 12.5 7 12.5q26 0 106.5 -3t131.5 -3q49 0 133 3t111 3q5 0 7 -6t0.5 -12.5t-5.5 -6.5q-93 0 -120 -27.5t-30 -117.5l2 -657v-8q0 -188 96 -294q98 -108 275 -108q95 0 179 35.5t179 118.5l-4 913v17q0 74 -24 100q-26 28 -117 28q-4 0 -5.5 6.5t-0.5 12.5 t4 6q30 0 111.5 -3t130.5 -3q47 0 130.5 3t110.5 3q5 0 7 -6t0.5 -12.5t-5.5 -6.5q-93 0 -120 -26.5t-27 -114.5v-948q0 -90 31 -115.5t143 -25.5q7 0 7 -12.5t-7 -12.5q-30 0 -91.5 1t-98.5 1q-27 0 -74 -1t-68 -1q-22 0 -27.5 6.5t-5.5 32.5v104q-104 -89 -205 -128.5 t-223 -39.5q-216 0 -353.5 110.5t-137.5 295.5v733q0 88 -27.5 114.5t-118.5 26.5q-7 0 -7 12.5z" />
<glyph unicode="V" horiz-adv-x="1320" d="M-20 1274q2 6 6 6q32 0 101 -3t99 -3q64 0 149 3t114 3q7 0 7 -12.5t-7 -12.5q-36 0 -60.5 -5.5t-41 -20t-15.5 -38.5t16 -61l397 -882l297 817q15 42 15 74q0 40 -22 67q-40 49 -142 49q-6 0 -6 12.5t6 12.5q33 0 109.5 -3t138.5 -3q39 0 95 3t93 3q9 0 9 -12.5 t-9 -12.5q-35 0 -62 -7t-56.5 -26.5t-55.5 -60.5t-49 -104l-397 -1055q-5 -9 -26 -9h-4q-25 1 -28 9l-499 1108q-36 81 -71.5 113t-92.5 32q-5 1 -7 7q-1 4 -1 7q-1 2 0 5z" />
<glyph unicode="W" horiz-adv-x="1845" d="M-20 1274q2 6 6 6q32 0 101 -3t99 -3q54 0 127.5 3t96.5 3q8 0 8.5 -12.5t-8.5 -12.5q-86 0 -86 -61q0 -26 16 -64l403 -890l146 397l-215 473q-35 82 -65.5 113.5t-78.5 31.5q-5 0 -7 6.5t-0.5 12.5t5.5 6q28 0 91 -3t92 -3q42 0 95.5 3t70.5 3q9 0 9 -12.5t-9 -12.5 q-46 0 -46 -23t33 -102l131 -288l80 223q28 73 28 117q1 15 -3 27q-12 46 -80 46q-6 0 -6.5 12.5t6.5 12.5q20 0 66 -3t85 -3q36 0 85.5 3t80.5 3q7 0 7 -12.5t-7 -12.5q-42 0 -71 -13t-61 -57.5t-64 -127.5l-113 -291l238 -524l301 823q17 42 17 77q0 34 -16 60 q-32 54 -120 53q-6 0 -6 12.5t6 12.5q30 0 96.5 -3t120.5 -3q39 0 95 3t93 3q9 0 9 -12.5t-9 -12.5q-35 0 -61.5 -7t-56 -26.5t-55.5 -60.5t-50 -104l-399 -1055q-3 -9 -25 -9q0 1 -2 1q-24 0 -28 8l-256 565l-211 -565q-5 -9 -27 -9q-1 1 -3 1q-25 0 -28 8l-499 1108 q-36 81 -71.5 113t-92.5 32q-5 1 -7 7q-1 4 -1 7q-1 2 0 5z" />
<glyph unicode="X" horiz-adv-x="1284" d="M-7 12.5q0 12.5 9 12.5q70 0 147.5 52.5t149.5 158.5l256 378l-305 496q-46 77 -91.5 111t-105.5 34q-7 0 -7 12.5t7 12.5q24 0 78 -3t80 -3q60 0 156.5 3t124.5 3q9 0 9 -12.5t-9 -12.5q-50 0 -69 -19q-9 -9 -9 -23q0 -16 12 -39l252 -408l199 303q33 49 41 85.5 t-6.5 58t-45 32t-75.5 10.5q-6 0 -8.5 6.5t-1 12.5t6.5 6q29 0 124 -3t149 -3q30 0 84.5 3t81.5 3q11 0 11 -12.5t-11 -12.5q-69 0 -147 -54.5t-152 -162.5l-217 -325l333 -543q47 -80 97 -112.5t125 -32.5q6 0 6 -12.5t-6 -12.5q-27 0 -96 2t-109 2q-55 0 -154.5 -2 t-126.5 -2q-10 0 -9.5 12.5t9.5 12.5q54 0 84 20q16 11 16 27q0 14 -12 32l-280 457l-238 -356q-42 -62 -42 -101v-5q3 -40 37 -57t97 -17q6 0 6 -12.5t-6 -12.5q-30 0 -124 2t-148 2q-30 0 -85.5 -2t-82.5 -2q-9 0 -9 12.5z" />
<glyph unicode="Y" horiz-adv-x="1175" d="M-24 1274q2 6 6 6q30 0 98 -3t100 -3q48 0 140.5 3t117.5 3q5 0 6 -6t-2 -12.5t-8 -6.5q-76 0 -94 -17q-6 -7 -6 -17q0 -18 20 -47l312 -480l204 383q25 47 25 85q0 23 -9 42q-26 51 -108 51q-8 0 -8 12.5t8 12.5q32 0 116 -3t136 -3q32 0 78 3t72 3q9 0 9 -12.5 t-9 -12.5q-139 0 -262 -213l-224 -403v-473q0 -90 29 -115.5t135 -25.5q8 0 8 -12.5t-8 -12.5q-31 0 -117 2t-141 2q-57 0 -145.5 -2t-120.5 -2q-8 0 -8.5 12.5t8.5 12.5q108 0 140 26q30 25 30 110v5l-2 448l-328 496q-51 77 -94.5 111t-95.5 34q-5 0 -7 7q-1 3 -1 7v5z " />
<glyph unicode="Z" horiz-adv-x="1224" d="M77 10q-2 4 -2 8q0 5 3 9l819 1202q6 11 4 13.5t-14 2.5q-145 0 -238.5 -3.5t-173.5 -15t-126.5 -28.5t-89 -50t-69 -72.5t-57.5 -102.5q-2 -5 -8.5 -5t-12 3.5t-3.5 7.5l88 362q2 3 7 3h2q6 0 13 -3.5t6 -7.5q-6 -35 13 -44t96 -9h784q9 0 14.5 -10.5t0.5 -16.5 l-807 -1198q-8 -11 -6.5 -13.5t14.5 -2.5h311q206 0 318.5 58.5t177.5 205.5q3 7 14.5 4.5t11.5 -8.5l-28 -283q2 -8 -4 -14t-15 -6q-313 4 -1032 4q-7 0 -11 10z" />
<glyph unicode="[" horiz-adv-x="561" d="M152 -217v1681q0 14 3 17.5t15 3.5h313q6 0 6 -12.5t-6 -12.5q-100 0 -128.5 -28t-28.5 -117v-1385q0 -89 28.5 -117t128.5 -28q6 0 6 -12.5t-6 -12.5h-313q-12 0 -15 4t-3 19z" />
<glyph unicode="\" horiz-adv-x="712" d="M211 991q-1 3 11.5 8t23.5 7t14 0l242 -840q0 -3 -26 -10t-27 -4z" />
<glyph unicode="]" horiz-adv-x="561" d="M72 -227.5q0 12.5 6 12.5q100 0 129 28t29 117v1385q0 89 -29 117t-129 28q-6 0 -6 12.5t6 12.5h313q12 0 15.5 -4t3.5 -17v-1681q0 -15 -3.5 -19t-15.5 -4h-313q-6 0 -6 12.5z" />
<glyph unicode="^" horiz-adv-x="802" d="M119 778l260 510q1 10 21.5 10t23.5 -10l258 -510q2 -3 -2 -6.5t-8.5 -4.5t-7.5 1l-263 301l-262 -301q-4 -4 -13 0.5t-7 9.5z" />
<glyph unicode="_" horiz-adv-x="815" d="M61.5 -93.5q1.5 23.5 6.5 23.5h677q9 0 9 -47t-9 -47h-675q-6 0 -8 23.5t-0.5 47z" />
<glyph unicode="`" horiz-adv-x="339" d="M47 1489q-6 17 58 11q78 -8 106 -27q6 -3 6 -7l51 -491q1 -3 -3 -5t-8.5 -1.5t-4.5 4.5z" />
<glyph unicode="a" horiz-adv-x="968" d="M70 190v11q0 133 67 273q70 146 187 244.5t237 98.5q96 0 166 -53q36 28 53 70q2 3 8.5 3t13 -3t5.5 -7l-4 -645q-1 -11 -1 -20q0 -84 48 -84q45 0 115 80q7 6 17 -2q7 -6 7 -11q0 -2 -2 -4q-60 -81 -111 -120t-106 -39q-135 0 -135 188l2 178q-58 -173 -162 -274 t-221 -101q-81 0 -131 53t-53 164zM225 332q3 -226 129 -226q73 0 139 73q67 73 103 173q38 102 37 191q-1 83 -43 133q-42 49 -111 49h-6q-110 -1 -179 -111.5t-69 -281.5z" />
<glyph unicode="b" horiz-adv-x="980" d="M-30 1322q-2 5 -2 9q0 5 5 8l306 146q2 1 4 1q5 0 12 -6q10 -8 10 -12v-1003q45 157 148 254.5t233 97.5q105 0 170.5 -84.5t65.5 -218.5q0 -102 -33 -191.5t-86 -152t-120.5 -108.5t-136.5 -67.5t-134 -21.5q-127 0 -202.5 53.5t-74.5 143.5l10 1057q1 89 -35 109 q-12 7 -29 7q-36 0 -95 -28q-10 -5 -16 7zM305 197q0 -73 52.5 -120.5t129.5 -47.5q108 1 182 115q70 109 70 287v20v16q1 96 -33 159q-36 68 -112 68q-128 0 -208 -133.5t-81 -349.5v-14z" />
<glyph unicode="c" horiz-adv-x="751" d="M57 406q1 88 38 166t96 131t133 83.5t149 30.5q87 0 157 -34t77 -97v-9q0 -32 -20 -52q-23 -23 -69 -23q-47 0 -72 22t-44 62q-17 35 -42 56.5t-69 21.5q-80 0 -122 -79t-42 -208q1 -115 34 -206.5t103.5 -149.5t170.5 -58q102 0 174 52q4 3 10 -1q5 -3 9 -9q2 -3 2 -6 q0 -2 -1 -3q-120 -123 -299 -123q-77 0 -141 25.5t-107 68.5t-72.5 99t-41.5 117q-11 53 -11 106v17z" />
<glyph unicode="d" horiz-adv-x="987" d="M70 258q0 108 43.5 211.5t112.5 179t159 122t180 46.5q55 0 105 -18l4 428q0 89 -36 109q-12 7 -29 7q-35 0 -93 -28q-9 -4 -15.5 7.5t1.5 16.5l305 146q2 1 4 1q5 0 13 -6q12 -8 12 -12l-7 -1286v-11q0 -93 50 -93q24 0 49.5 19.5t62.5 60.5q6 4 12.5 1.5t10.5 -8.5 q3 -4 3 -6t-1 -4q-64 -84 -113 -121.5t-108 -37.5q-131 0 -131 180v8l2 176q-60 -173 -150.5 -273t-206.5 -100q-45 0 -86 16t-76 48.5t-56 89.5t-21 131zM225 360q1 -130 42 -194t114 -64q62 0 117 43.5t89.5 109.5t55.5 136t25 131v35q-4 81 -58.5 124.5t-136.5 43.5 q-120 1 -186 -97q-62 -92 -62 -249v-19z" />
<glyph unicode="e" horiz-adv-x="770" d="M53 373q2 84 35 163.5t90.5 142t144 100.5t185.5 38q88 0 137.5 -28.5t52.5 -81.5v-8q0 -87 -129 -159q-135 -76 -336 -110q6 -165 83 -269t212 -104q114 0 197 66q6 5 14 -3q5 -5 5 -10q0 -2 -1 -4q-128 -131 -315 -131q-92 0 -165.5 34t-118 91t-68 127t-23.5 146z M233 461q274 58 271 203q1 45 -25.5 71.5t-72.5 26.5q-84 0 -127.5 -83.5t-45.5 -217.5z" />
<glyph unicode="f" horiz-adv-x="575" d="M-111 -455q0 36 22.5 55t59.5 19q43 0 69 -22.5t34.5 -49t25 -49t41.5 -22.5q12 0 19.5 6t13 25.5t7.5 47t3 79.5v27q0 40 -2 86q-1 61 -4 157l-24 723q-3 76 -25.5 93t-114.5 17q-5 0 -7.5 7.5t-1 15.5t6.5 8q77 0 106 18t29 70q-1 34 -1 65q0 205 28 322 q33 135 109.5 189.5t220.5 54.5q91 0 149 -33t58 -80q0 -39 -22 -58.5t-60 -19.5t-63 15.5t-37.5 38t-22.5 45t-26.5 38t-41.5 15.5q-76 0 -104 -134q-23 -105 -23 -299q0 -54 2 -116l4 -125q41 2 115.5 7.5t99.5 6.5q10 0 16.5 -7t6.5 -15q-2 -21 -22 -47t-41 -23 q-15 2 -48.5 7t-64.5 8.5t-60 5.5l25 -760q1 -33 1 -63q0 -153 -21 -247q-25 -113 -82.5 -161.5t-159.5 -48.5q-90 0 -141.5 31t-51.5 77z" />
<glyph unicode="g" horiz-adv-x="919" d="M70 186v18q0 96 38 200q41 113 109.5 204t160.5 150t183 59q96 0 166 -53q36 28 53 70q2 4 10 4h5q12 -2 12 -11l-4 -915q0 -228 -112.5 -357.5t-311.5 -129.5q-125 0 -205 47.5t-82 121.5q-1 37 23.5 56.5t58.5 19.5q31 0 54 -15t35 -37.5t28 -48.5t32 -48.5t47.5 -37.5 t75.5 -15q32 0 57.5 9t50.5 35t41.5 69.5t27.5 115t12 168.5v485q-58 -175 -161.5 -276t-219.5 -101q-80 0 -130 52t-54 161zM225 328q5 -222 129 -222q71 0 136.5 70.5t103 169t39.5 189.5v11q0 80 -40 128q-42 51 -117 51h-3q-109 0 -178.5 -112.5t-69.5 -284.5z" />
<glyph unicode="h" horiz-adv-x="993" d="M-26 1322q-2 5 -2 9q0 5 5 8l306 146q2 1 4 1q5 0 12 -6q10 -8 10 -12l-2 -1044q40 187 125.5 290t204.5 103q192 0 192 -270l-4 -365v-10q0 -94 52 -94q39 0 114 82q5 3 11 0.5t10 -8.5q2 -3 2 -6t-2 -5q-61 -82 -112 -120.5t-112 -38.5q-68 0 -98 46q-29 44 -28 130v12 l2 338q0 205 -105 205q-106 0 -179.5 -180.5t-74.5 -497.5v-15q0 -36 -102 -36q-63 0 -68 14q-1 4 0 26.5t2.5 60t1.5 67.5l8 1075v9q-1 82 -35 101q-12 6 -28 6q-36 0 -94 -28q-10 -5 -16 7z" />
<glyph unicode="i" horiz-adv-x="532" d="M-6 645q62 85 118 124.5t117 39.5q129 0 129 -170l-8 -457v-11q0 -93 51 -93q23 0 48.5 19.5t64.5 60.5q5 4 11.5 2t11.5 -8q3 -4 3 -8q0 -2 -1 -3q-64 -83 -113.5 -121t-110.5 -38q-131 0 -131 173v15l9 438v10q0 97 -56 97q-48 0 -121 -86q-5 -5 -11 -3q-7 2 -11 8 q-2 3 -2 6t2 5zM139 1139q0 49 30 77.5t83 28.5q52 0 80 -28t28 -78q0 -54 -28 -83.5t-80 -29.5q-53 0 -83 29.5t-30 83.5z" />
<glyph unicode="j" horiz-adv-x="530" d="M-74 -452q0 33 21 52q22 19 57 19q34 0 56.5 -15t33 -36.5t19 -42.5t21.5 -36t34 -15q37 0 44 71.5t7 350.5l-2 712q0 107 -55 107q-44 0 -121 -86q-5 -10 -17 0q-10 9 -4 16q64 86 119.5 125t114.5 39q67 0 97 -42t32 -128v-694v-29q0 -263 -53 -368q-56 -111 -205 -111 q-89 0 -143 31q-56 32 -56 80zM147 1139q0 49 30 77.5t83 28.5q52 0 80.5 -28t28.5 -78q0 -54 -28.5 -83.5t-80.5 -29.5q-53 0 -83 29.5t-30 83.5z" />
<glyph unicode="k" horiz-adv-x="925" d="M-26 1322q-2 5 -2 9q0 5 5 8l306 146q2 1 3 1q4 0 12 -5q10 -7 11 -13l-2 -806q69 72 156.5 113.5t179.5 41.5q50 0 86 -12.5t52.5 -33t23.5 -39t8 -38.5q0 -74 -85.5 -147.5t-238.5 -126.5l191 -217q57 -67 92 -90t70 -23q49 0 121 66q7 6 16 -4q6 -6 6 -10q0 -3 -2 -5 q-62 -80 -111.5 -117.5t-97.5 -37.5q-56 0 -104 30t-115 107l-170 200q-25 29 -40.5 39.5t-37.5 10.5l-2 -349q0 -36 -102 -36q-63 0 -68 14q-1 4 0 26.5t2.5 60t1.5 67.5l8 1075v9q1 81 -33 100q-12 7 -29 7q-35 0 -95 -28q-10 -5 -16 7zM307 403q170 38 242 95 q66 52 66 131q0 8 -1 16q-6 92 -86 92q-95 0 -155.5 -87t-65.5 -228v-19z" />
<glyph unicode="l" horiz-adv-x="524" d="M-13 1328.5q0 6.5 5 10.5l301 146q2 1 5 1q6 0 14 -6q10 -8 10 -12l-5 -1286v-10q0 -94 52 -94q23 0 49 19.5t65 60.5q5 4 11 2t10 -8q2 -3 2 -6t-2 -5q-62 -83 -112 -121t-111 -38q-67 0 -99 46q-30 44 -30 131v11l8 1057q2 89 -34 109q-12 7 -29 7q-35 0 -93 -28 q-7 -3 -12 2t-5 11.5z" />
<glyph unicode="m" horiz-adv-x="1513" d="M-10 633q-2 3 -2 6t2 6q62 86 117 125t116 39q66 0 95.5 -42t31.5 -128v-205q40 183 122.5 283t195.5 100q182 0 182 -268v-111q41 183 123 281t192 98q180 0 183 -270l-2 -365v-11q0 -93 49 -93q41 0 114 80q6 4 12 1.5t10 -8.5q2 -3 2 -6q0 -2 -1 -4 q-64 -84 -113 -121.5t-110 -37.5q-67 0 -99 46q-30 44 -30 131v11l2 338q0 205 -97 205q-95 0 -163 -166t-74 -461v-66q0 -36 -100 -36q-65 0 -70 14q-1 4 0.5 27t3.5 60t2 67l2 360q0 201 -100 201q-98 0 -166.5 -176.5t-71.5 -475.5v-41q0 -36 -100 -36q-61 0 -70 14 q0 4 1 26.5t2.5 58t2.5 64.5l2 461q0 107 -55 107q-44 0 -121 -86q-4 -6 -10.5 -4t-9.5 8z" />
<glyph unicode="n" horiz-adv-x="1040" d="M-11 634q-1 3 -1 5q0 3 2 6q62 86 117 125t116 39q66 0 95.5 -42t31.5 -128v-223q42 191 127.5 296t204.5 105q190 0 190 -270l-2 -365v-10q0 -94 52 -94q23 0 47.5 19t64.5 61q5 4 11.5 2t11.5 -8q3 -4 3 -8q0 -2 -1 -3q-64 -84 -113 -121.5t-110 -37.5q-68 0 -100 46 q-30 44 -29 131v11l2 338q0 205 -107 205q-106 0 -179.5 -180t-74.5 -496v-17q0 -36 -100 -36q-61 0 -70 14q0 2 1.5 26t3 60t1.5 68l2 456q0 107 -55 107q-44 0 -121 -86q-4 -6 -11 -3.5t-10 8.5z" />
<glyph unicode="o" horiz-adv-x="888" d="M53 389q5 188 120.5 308t293.5 120q173 0 273 -114q98 -112 98 -293v-7q-2 -102 -37.5 -185.5t-93.5 -136.5t-131.5 -81.5t-153.5 -28.5q-116 0 -201 57.5t-126.5 151t-41.5 209.5zM227 477q2 -184 77 -319t183 -135q81 0 128 78t49 214v7q0 114 -32 215 q-34 104 -95 167.5t-134 63.5q-79 0 -127.5 -74.5t-48.5 -216.5z" />
<glyph unicode="p" horiz-adv-x="899" d="M0 540q-1 2 -1 4q0 4 3 7q53 47 119 94v146q0 4 21.5 19t47.5 33t48.5 46.5t23.5 56.5q0 5 6 6q3 1 5 1q4 0 7 -1q7 -2 7 -8v-203q134 64 260 64q137 0 209.5 -78.5t72.5 -228.5q0 -137 -56.5 -250.5t-161 -181.5t-236.5 -68q-22 0 -88 4v-367q0 -82 27 -104 q17 -14 58 -14q23 0 52 4q5 1 8.5 -5t2.5 -12.5t-7 -7.5l-399 -59h-2q-5 0 -7 5q-4 5 -4 11.5t4 7.5q65 10 81 38t16 122l4 979q-36 -22 -101 -72q-5 -4 -11.5 0.5t-8.5 11.5zM287 90q88 -31 155 -31q123 0 173.5 84t50.5 244q0 74 -11 130t-36.5 102t-73 70t-115.5 24 q-72 0 -143 -27v-596z" />
<glyph unicode="q" horiz-adv-x="917" d="M72 223q0 92 25 181.5t71.5 163t106.5 130t135 88t153 31.5q101 0 168 -53q36 28 53 70q2 4 7 4h1q6 -1 12.5 -4t6.5 -7l-8 -1192q0 -79 33 -107q24 -21 77 -21q22 0 50 4q7 3 11 -8q1 -3 1 -6q0 -8 -8 -9l-435 -51h-2q-4 0 -7 5q-3 6 -2 12.5t5 6.5q74 9 92.5 37 t18.5 123v651q-53 -141 -147.5 -220t-200.5 -79q-97 0 -157 65.5t-60 184.5zM219 369q0 -113 42 -188t122 -75q77 0 136 55t88.5 141.5t29.5 186.5q0 121 -45 179q-44 57 -129 57h-6q-71 0 -126 -50t-83.5 -130.5t-28.5 -175.5z" />
<glyph unicode="r" horiz-adv-x="763" d="M-18 653q114 156 235 156q67 0 97.5 -48t31.5 -161v-219q27 191 83.5 310.5t141.5 119.5q49 0 100 -30.5t52 -69.5q2 -33 -27.5 -68t-64.5 -35q-31 0 -68 25.5t-57 25.5q-41 0 -79.5 -111.5t-60 -256t-22.5 -262.5v-9q0 -36 -100 -36q-65 0 -70 14q-1 4 0 27t2.5 60.5 t1.5 66.5l4 430q0 133 -61 133q-56 0 -119 -78q-7 -9 -17 1q-5 4 -5 9q0 3 2 6z" />
<glyph unicode="s" horiz-adv-x="677" d="M55 119q0 35 23 54.5t57 19.5q28 0 52 -16t43.5 -38.5t40.5 -45t51 -38.5t67 -16q48 -1 69 23q19 21 19 63v8q-2 51 -33 95.5t-75.5 75t-95.5 64.5t-94 65t-71.5 76t-27.5 97q0 83 81 144t199 61q100 0 166 -32t66 -85q3 -35 -19.5 -54t-54.5 -19q-34 0 -59 14 t-40.5 34.5t-32 40.5t-43 34t-62.5 14q-39 0 -58.5 -20t-19.5 -50q1 -53 42.5 -101.5t100 -86.5t116.5 -78q59 -38 100 -92q40 -52 40 -112q0 -88 -83 -166q-81 -76 -212 -75q-98 0 -173.5 41.5t-78.5 100.5z" />
<glyph unicode="t" horiz-adv-x="649" d="M38 760q1 8 5 8q93 0 149 47.5t80 124.5q2 6 14 6h8q20 -2 21 -12v-162q80 3 271 16q20 0 20 -22q-2 -22 -20.5 -49.5t-40.5 -24.5q-160 22 -232 25l-2 -494q0 -75 34 -111t106 -36q87 0 186 82q2 3 7.5 -0.5t8.5 -8.5q2 -2 1.5 -4.5t-1.5 -5.5q-86 -87 -157 -125.5 t-146 -38.5q-42 0 -76 9t-65 30q-31 20 -48 62q-16 39 -16 95v7l2 449v7q0 62 -18 82q-19 20 -84 21q-4 -1 -6 7q-1 5 -1 11v5z" />
<glyph unicode="u" horiz-adv-x="1040" d="M-10 649q61 82 112 121t111 39q127 0 127 -172v-16l-8 -338v-11q0 -194 104 -194q106 0 178.5 175t75.5 478v39q0 37 101 37q64 0 69 -14q1 -4 0 -26.5t-2.5 -60t-1.5 -67.5l-2 -457q0 -106 55 -106q48 0 119 86q5 4 11.5 2t10.5 -8q2 -3 3 -7q0 -2 -2 -4 q-63 -86 -117.5 -124.5t-114.5 -38.5q-67 0 -98 43t-33 127v213q-42 -187 -126.5 -289.5t-203.5 -102.5q-99 0 -146 71q-44 67 -44 185v15l8 364v11q0 94 -51 94q-38 0 -113 -82q-8 -5 -18 3q-6 5 -6 10q0 2 2 5z" />
<glyph unicode="v" horiz-adv-x="966" d="M62 748q34 45 131 45h206q19 0 23 -5t-2 -20q-66 -234 -66 -391q0 -125 58.5 -194.5t146.5 -69.5q104 0 176 89.5t72 217.5q0 41 -8 72t-26.5 56t-33 39t-43.5 38q-75 60 -75 114q0 36 26 54t64 18q62 0 101.5 -47t53 -110t13.5 -140v-4q0 -236 -116 -386 q-117 -151 -271 -151q-111 0 -192 83t-81 198q0 49 14.5 103t42.5 128.5t39 110.5q10 29 6 42t-28 13h-113q-82 0 -111 -18.5t-38 -73.5q-1 -5 -9 -7q-7 -2 -14 2q-6 3 -6 9q-1 106 60 185z" />
<glyph unicode="w" horiz-adv-x="1384" d="M28 676q12 39 32.5 68t51 39t81.5 10h206q19 0 23 -5t-2 -20q-64 -234 -64 -378v-13q3 -128 60.5 -197t136.5 -69q78 0 139 61q-65 146 -65 348q0 283 131 283q121 0 121 -230q0 -198 -78 -360q93 -100 200 -100q93 0 153 75t60 205q0 84 -26.5 134t-87.5 102 q-24 23 -35 34.5t-23 33t-12 42.5q0 36 26.5 54t67.5 18q46 0 79.5 -27.5t51 -75t25.5 -99t8 -109.5q0 -233 -104.5 -380t-241.5 -147q-124 0 -211 129q-106 -129 -244 -129q-117 0 -188.5 73.5t-73.5 195.5v6q0 130 90 348q12 31 7.5 43t-29.5 12h-113q-81 0 -110.5 -19 t-38.5 -73q-1 -6 -8.5 -7.5t-14.5 2.5q-6 4 -6 9q0 26 26 113zM672 537q0 -64 23.5 -137t64.5 -134q59 109 59 240q0 133 -82 133q-31 0 -48 -26.5t-17 -75.5z" />
<glyph unicode="x" horiz-adv-x="940" d="M2 653q132 156 240 156q54 0 93.5 -31t82.5 -112l84 -158l78 154q47 94 74.5 120.5t76.5 26.5q55 0 106 -37.5t52 -85.5q2 -27 -19 -47.5t-55 -20.5q-32 0 -56 14t-43 28t-40 14q-38 0 -62 -49l-88 -160l152 -281q32 -59 61 -78.5t62 -19.5q32 0 58.5 16t58.5 50 q6 8 16 -2q6 -5 6 -9t-4 -6q-131 -155 -238 -155q-53 0 -91.5 30t-80.5 107l-98 184l-86 -174q-47 -93 -75.5 -120t-78.5 -27q-55 0 -105.5 37t-51.5 85q-2 28 18.5 48t56.5 20q40 0 79 -26.5t63 -26.5q35 0 59 47l99 178l-140 256q-55 104 -129 104q-52 0 -114 -65 q-7 -9 -19 3q-5 5 -5 8t3 5z" />
<glyph unicode="y" horiz-adv-x="980" d="M-12 649q61 82 112 121t111 39q64 0 98 -47q31 -42 31 -126v-15l-10 -338v-11q0 -194 106 -194q100 0 171.5 167t80.5 453v80q0 12 24 20.5t64 8.5q83 0 86 -12q0 -48 -6 -156l-4 -782q-3 -194 -110 -313t-293 -119q-122 0 -203 45q-76 42 -76 103v7q0 47 23.5 68.5 t58.5 21.5q36 0 59.5 -21t38.5 -50.5t33 -59t54 -50.5t91 -21q35 0 61.5 14.5t49 50t34.5 104.5q11 64 11 155v15l2 549q-43 -183 -128 -283t-202 -100q-94 0 -144 67q-46 63 -46 189v15l8 364v11q0 94 -51 94q-41 0 -113 -82q-8 -6 -18 3q-6 5 -6 10q0 2 2 5z" />
<glyph unicode="z" horiz-adv-x="757" d="M33 10l489 598h-16q-51 0 -176.5 23.5t-163.5 23.5q-41 0 -63.5 -18t-28.5 -59q-4 -11 -19 -7q-10 2 -6 11q12 83 21.5 124t27.5 66q18 24 40 30q19 5 52 5h13q47 -3 183 -27.5t200 -27.5q36 0 60 12.5t50 46.5q2 2 5 2t7 -2q8 -4 14.5 -10.5t4.5 -9.5l-485 -601h14 q61 0 207 -24.5t184 -24.5t57.5 19.5t30.5 64.5q0 4 6.5 4.5t12.5 -1.5t6 -6q0 -62 -30 -154q-16 -48 -39 -64q-22 -14 -64 -14h-6q-63 1 -221 27t-226 28q-35 0 -60 -12.5t-53 -46.5q-1 -2 -4 -2t-7 2q-8 4 -14 12q-4 5 -4 9q0 2 1 3z" />
<glyph unicode="{" horiz-adv-x="591" d="M60 623.5q0 13.5 6 13.5q34 5 59 34.5t39 70.5t22 102t10.5 115t2.5 124q0 89 5 149.5t19.5 107.5t35.5 73.5t58.5 43.5t82 22.5t112.5 5.5q8 0 8 -12.5t-8 -12.5q-60 0 -92.5 -56.5t-34.5 -160.5t-3.5 -150t-6 -116.5t-10 -98t-17.5 -72t-27.5 -62t-40.5 -43.5t-55 -42 t-73 -34q34 -15 60 -28.5t48 -32t38 -34.5t28.5 -42.5t21 -48t15 -60.5t9.5 -70t6 -86t4 -100t3 -119v-2q2 -104 34.5 -160.5t92.5 -56.5q8 0 8 -12.5t-8 -12.5q-68 0 -113.5 6t-82.5 23.5t-58 44t-35 74t-19 107.5t-5 149q0 72 -2.5 126t-10.5 115t-22 101.5t-39 69.5 t-59 34q-6 0 -6 13.5z" />
<glyph unicode="|" horiz-adv-x="344" d="M129 -315v1812q0 13 46 13t46 -13v-1812q0 -15 -46 -15t-46 15z" />
<glyph unicode="}" horiz-adv-x="579" d="M60 -227.5q0 12.5 8 12.5q60 0 92.5 56.5t34.5 160.5q7 280 21 366q19 119 83 179q44 41 129 78q-43 18 -73 34t-55 42t-40.5 43.5t-27.5 62t-17.5 72t-10 98t-6 116.5t-3.5 150t-34.5 160.5t-92.5 56.5q-8 0 -8 12.5t8 12.5q68 0 112.5 -5.5t82 -22.5t58.5 -43.5 t35.5 -73.5t19.5 -107.5t5 -149.5q0 -58 1.5 -104t6.5 -98.5t14 -91.5t23.5 -73.5t36.5 -54.5t51 -24q6 0 6 -13.5t-6 -13.5q-34 -5 -59 -34t-39 -69.5t-22 -101.5t-10.5 -115t-2.5 -126q0 -89 -5 -149t-19 -107.5t-35 -74t-58 -44t-82.5 -23.5t-113.5 -6q-8 0 -8 12.5z" />
<glyph unicode="~" horiz-adv-x="907" d="M98 305q126 193 246 193q40 0 139.5 -37t159.5 -37q40 0 72 14t46.5 27.5t35.5 38.5q5 3 11.5 -4t2.5 -11q-78 -116 -125.5 -155t-105.5 -39q-54 0 -154 37t-162 37q-20 0 -36.5 -3.5t-27 -6.5t-24.5 -13t-19.5 -14.5t-21.5 -20t-22 -20.5q-2 -2 -6.5 -0.5t-7.5 6t-1 8.5 z" />
<glyph unicode="&#xa1;" horiz-adv-x="528" d="M137 -539q31 121 53 292t30.5 285.5t19.5 299.5q0 9 28.5 9t28.5 -9q9 -182 17 -298.5t29 -287t50 -291.5q1 -7 -20.5 -13t-50.5 -8.5t-56 -2.5q-47 0 -89.5 6.5t-39.5 17.5zM160 635q0 53 29 83t81 30t82.5 -30t30.5 -83q0 -50 -30.5 -78.5t-82.5 -28.5t-81 28.5 t-29 78.5z" />
<glyph unicode="&#xa2;" horiz-adv-x="1091" d="M66 483q0 197 139.5 335.5t355.5 160.5v170q0 15 27.5 15t27.5 -15v-166h17q78 0 166 -15.5t145 -43.5q23 -10 25 -35l12 -211q0 -6 -11 -7.5t-14 5.5q-122 259 -340 268v-928q12 -2 35 -2q112 0 189.5 65.5t134.5 207.5q5 7 14.5 5.5t9.5 -7.5l-20 -217q-2 -18 -6.5 -24 t-22.5 -13q-160 -56 -327 -56h-7v-184q0 -13 -27.5 -13t-27.5 13v186q-107 8 -193.5 44.5t-141.5 87.5t-92 116.5t-52.5 129.5t-15.5 128zM276 514q0 -111 28.5 -209t95 -176.5t161.5 -103.5v917q-133 -17 -209 -134t-76 -294z" />
<glyph unicode="&#xa3;" horiz-adv-x="884" d="M34 12q0 12 5 13q58 13 96 35t56 51t24 58t4 67q-5 102 -35 206h-90q-14 0 -14 28t14 28h72q-35 107 -35 176q0 81 30.5 142.5t84 97t118.5 52.5t140 17q98 0 184 -29q30 -12 33 -39l14 -210q0 -9 -10.5 -9t-13.5 9q-24 55 -44.5 92.5t-50 74.5t-67 55.5t-82.5 18.5 q-86 0 -124 -59t-38 -144q0 -42 9 -90t16.5 -73.5t25.5 -81.5h205q13 0 13 -28t-13 -28h-190q20 -75 20 -139q0 -76 -25.5 -123.5t-70.5 -85.5h219q130 0 173.5 30.5t66.5 135.5q0 4 6 4.5t12 -1.5t6 -5q-18 -106 -18 -227q0 -17 -7 -24t-24 -7h-690q-5 0 -5 12z" />
<glyph unicode="&#xa4;" horiz-adv-x="847" d="M96 696l70 66l104 -115q74 39 162 39q82 0 154 -43l102 111l60 -58l-103 -102q70 -77 70 -182q0 -99 -68 -174l103 -103l-74 -67l-98 112q-80 -47 -177 -47q-78 0 -141 37l-94 -102l-60 61l91 94q-72 81 -72 191q0 109 74 180zM260 457q0 -69 18 -130t60.5 -105 t101.5 -44q61 0 97 50t36 141q0 110 -51 191t-137 81q-57 0 -91 -47t-34 -137z" />
<glyph unicode="&#xa5;" horiz-adv-x="1009" d="M2 946q0 12 4 12q18 0 75 -3t75 -3q53 0 163.5 3t137.5 3q5 0 5 -12t-5 -12q-145 0 -74 -107l201 -313l131 238q43 76 26 129t-94 53q-5 0 -5 12t5 12q34 0 106 -3t132 -3q25 0 59.5 3t56.5 3q5 0 5 -12t-5 -12q-127 0 -235 -184l-160 -279v-35h197q13 0 13 -24.5 t-13 -24.5h-197v-90h197q13 0 13 -24.5t-13 -24.5h-197v-82q0 -90 28.5 -115.5t131.5 -25.5q6 0 6 -12.5t-6 -12.5q-31 0 -114.5 2t-137.5 2q-47 0 -133 -2t-119 -2q-6 0 -6 12.5t6 12.5q102 0 132 26t30 115v82h-201q-13 0 -13 24.5t13 24.5h201v90h-201q-13 0 -13 24.5 t13 24.5h201v2l-227 350q-51 79 -95 112.5t-96 33.5q-4 0 -4 12z" />
<glyph unicode="&#xa6;" horiz-adv-x="344" d="M129 -315v757q0 15 46 15t46 -15v-757q0 -15 -46 -15t-46 15zM129 737v760q0 13 46 13t46 -13v-760q0 -13 -46 -13t-46 13z" />
<glyph unicode="&#xa7;" horiz-adv-x="966" d="M162 451q0 74 31.5 134t117.5 134q-84 77 -84 184q0 88 49.5 150.5t123 90t161.5 27.5q107 0 178 -38q21 -13 21 -33l16 -228q0 -4 -11 -4t-11 4q-12 32 -34 70t-55 81.5t-79 72t-94 28.5q-53 0 -84 -35t-31 -106q0 -62 26.5 -112.5t68.5 -86.5t92.5 -69.5t101.5 -69.5 t93 -77t68.5 -101t26.5 -133t-31.5 -133t-117.5 -133q83 -83 83 -187q0 -66 -28 -118.5t-75.5 -84t-106 -47.5t-123.5 -16q-107 0 -179 37q-19 13 -22 35l-14 225q0 6 10 6t12 -6q13 -32 34 -69t54.5 -80.5t79.5 -72t94 -28.5q52 0 83.5 35t31.5 106q0 62 -26.5 112.5 t-68.5 87t-93 70t-101.5 69t-92.5 76.5t-68.5 100.5t-26.5 132.5zM297 543q0 -74 24.5 -134t69.5 -104.5t88.5 -76t104.5 -71t94 -67.5q39 59 39 154q0 62 -19 115.5t-47 90t-70.5 73t-80 60.5t-85 56t-77.5 57q-41 -58 -41 -153z" />
<glyph unicode="&#xa8;" horiz-adv-x="563" d="M8 1063q0 46 28 72t77 26q46 0 72 -26t26 -72q0 -49 -26 -75.5t-72 -26.5q-50 0 -77.5 26.5t-27.5 75.5zM352 1063q0 45 27.5 70.5t75.5 25.5q47 0 72.5 -25t25.5 -71q0 -49 -25.5 -75.5t-72.5 -26.5q-48 0 -75.5 26.5t-27.5 75.5z" />
<glyph unicode="&#xa9;" horiz-adv-x="1484" d="M137 385q0 139 59 261t156 204t223 129t259 47q119 0 220 -39t168 -104.5t104.5 -152t37.5 -181.5q0 -91 -39.5 -176t-108 -150t-168 -104t-212.5 -39q-79 0 -143 18.5t-106 49.5t-70.5 72.5t-41 86t-12.5 92.5q0 80 31.5 147t82.5 109.5t114.5 66t129.5 23.5 q52 0 98.5 -12t79.5 -39t33 -65q0 -36 -19.5 -57t-58.5 -21q-29 0 -48 18t-36 49q-18 29 -27 42t-32.5 27.5t-52.5 14.5q-72 0 -100.5 -59t-28.5 -178q0 -144 74.5 -237t228.5 -93q127 0 220 95.5t93 256.5q0 134 -62 246.5t-173 179t-246 66.5q-116 0 -210.5 -43 t-156 -117.5t-94.5 -173t-33 -209.5q0 -179 77.5 -313t205.5 -201t287 -67q110 0 200 22t189 80q3 2 6.5 -1.5t4.5 -8t-1 -6.5q-112 -89 -225.5 -122.5t-241.5 -33.5q-123 0 -236 40t-202.5 113.5t-143 189.5t-53.5 257z" />
<glyph unicode="&#xaa;" horiz-adv-x="598" d="M16 897q-2 87 42 180t118 156t150 63q61 0 104 -32q20 15 31 43q3 3 11.5 1t8.5 -5l-4 -431q0 -63 33 -63q32 0 84 61q2 2 7 -0.5t9 -6t2 -5.5q-81 -113 -155 -113q-44 0 -64 30.5t-20 96.5v78q-40 -103 -104.5 -157t-135.5 -54q-51 0 -84 39t-33 119zM32.5 626.5 q1.5 14.5 6.5 14.5h508q7 0 9.5 -14.5t0.5 -29.5t-8 -15h-508q-6 0 -8 15t-0.5 29.5zM113 985q0 -84 21.5 -123t55.5 -39q46 0 89.5 47.5t68.5 115.5t25 130q1 55 -26.5 88t-74.5 33q-70 0 -113.5 -72t-45.5 -180z" />
<glyph unicode="&#xab;" horiz-adv-x="960" d="M104 410.5q0 14.5 9 23.5l376 305q6 8 14 -2q4 -5 1 -8l-209 -317l209 -318q2 -3 -0.5 -7.5t-7 -6t-7.5 1.5l-376 305q-9 9 -9 23.5zM440 410.5q0 14.5 9 23.5l378 305q2 3 6.5 2t7.5 -5t1 -7l-211 -317l211 -318q2 -7 -7 -13q-6 -2 -8 1l-378 305q-9 9 -9 23.5z" />
<glyph unicode="&#xac;" horiz-adv-x="808" d="M61.5 530.5q1.5 22.5 6.5 22.5h677v-395q0 -6 -23 -8t-46 -0.5t-23 6.5v307h-583q-6 0 -8 22.5t-0.5 45z" />
<glyph unicode="&#xad;" horiz-adv-x="577" d="M56 412.5q1 26.5 5 27.5l439 72q6 1 8 -24.5t0 -52t-8 -27.5l-434 -72q-6 -1 -8.5 24.5t-1.5 52z" />
<glyph unicode="&#xae;" horiz-adv-x="1521" d="M137 864q0 138 56 256t149.5 197t215.5 123.5t255 44.5q132 0 243 -43.5t186.5 -119t118 -178.5t42.5 -220q0 -175 -87 -322.5t-237.5 -233t-330.5 -85.5q-115 0 -224 40.5t-195.5 113.5t-139 184.5t-52.5 242.5zM252 932q0 -131 46.5 -244t124.5 -188.5t180.5 -118.5 t215.5 -43q223 0 344 143t121 377q0 264 -152.5 421t-394.5 157q-122 0 -217 -41t-152.5 -112t-86.5 -160t-29 -191zM478 571.5q0 12.5 3 12.5q53 0 65.5 14.5t12.5 75.5v440q0 58 -13.5 75t-64.5 17q-3 0 -3 12.5t3 12.5q19 0 71 -2t77 -2t84.5 4t81.5 4q101 0 150.5 -33.5 t49.5 -105.5q0 -118 -112 -174q80 -166 136.5 -240.5t131.5 -106.5q5 -1 5 -8.5t-5 -7.5h-186q-20 0 -67 82.5t-126 247.5q-41 -6 -88 -6v-209q0 -61 15.5 -75.5t76.5 -14.5q3 0 3 -12.5t-3 -12.5q-18 0 -66.5 1t-80.5 1q-26 0 -79 -1t-69 -1q-3 0 -3 12.5zM684 915 q100 -9 141 21.5t41 116.5q0 155 -104 155q-48 0 -63 -15.5t-15 -82.5v-195z" />
<glyph unicode="&#xaf;" horiz-adv-x="681" d="M89 1010q0 39 17 39h474q20 0 20 -39t-20 -39h-474q-17 0 -17 39z" />
<glyph unicode="&#xb0;" horiz-adv-x="679" d="M59 1030q0 108 79 184t204 76t202 -75.5t77 -188.5q0 -112 -77.5 -187t-201.5 -75q-126 0 -204.5 76t-78.5 190zM205 1036q0 -117 33 -181t118 -64q32 0 54.5 11t35.5 28.5t20 47.5t9 60t2 74q0 252 -147 252q-51 0 -79.5 -31.5t-37 -77.5t-8.5 -119z" />
<glyph unicode="&#xb1;" horiz-adv-x="815" d="M61.5 65q1.5 21 6.5 21h677q9 0 9 -42t-9 -42h-675q-6 0 -8 21t-0.5 42zM61.5 539.5q1.5 23.5 6.5 23.5h292v293q0 9 47.5 9t47.5 -9v-293h290q9 0 9 -47t-9 -47h-290v-289q0 -6 -23.5 -8t-47.5 -0.5t-24 6.5v291h-290q-6 0 -8 23.5t-0.5 47z" />
<glyph unicode="&#xb2;" horiz-adv-x="516" d="M48 829.5q-2 4.5 1 8.5q17 68 49 127t65.5 99t64.5 78.5t51 83.5t20 97q0 60 -24.5 89.5t-65.5 29.5q-47 0 -82 -31t-49 -78q-2 -9 -16 -4q-10 3 -7 8q47 158 203 158q86 0 130 -41.5t44 -107.5q0 -48 -26.5 -94t-66.5 -83.5t-81.5 -72.5t-78.5 -75.5t-50 -78.5 q0 -8 6 -8q129 0 187.5 6.5t83 25t28.5 60.5q0 3 10.5 3t10.5 -3l-2 -190q0 -3 -3 -7t-6 -4h-389q-5 0 -7 4.5z" />
<glyph unicode="&#xb3;" horiz-adv-x="514" d="M45 954q-1 5 4.5 8t11.5 3t7 -4q17 -47 53 -73t82 -26q49 0 86 36t37 116q0 98 -47 153q-20 -10 -64 -28q-6 -2 -11.5 1.5t-6.5 8.5t2 8q46 29 73 76.5t27 97.5q0 48 -27.5 77.5t-68.5 29.5q-43 0 -77 -30t-46 -75q-2 -9 -16 -4q-10 3 -7 8q43 158 197 158 q85 0 132.5 -43.5t47.5 -101.5q0 -82 -117 -158q66 -22 105 -67.5t39 -102.5q0 -76 -64 -142.5t-170 -66.5q-79 0 -120 36.5t-62 104.5z" />
<glyph unicode="&#xb4;" horiz-adv-x="434" d="M119 975l80 491q3 17 89 29q85 12 88 -3q0 -1 -1 -3l-232 -520q-3 -4 -8.5 -3.5t-11 3.5t-4.5 6z" />
<glyph unicode="&#xb6;" horiz-adv-x="1333" d="M111 791q0 243 152 369t423 126q42 0 141.5 -6t163.5 -6q39 0 116 3t110 3q5 0 5 -12.5t-5 -12.5q-89 0 -136 -42.5t-47 -122.5l2 -977q0 -264 -77.5 -386t-249.5 -122q-77 0 -122.5 29t-45.5 81q0 38 22.5 62t67.5 24q36 0 56.5 -16t26.5 -38.5t10.5 -45.5t15.5 -39 t34 -16q45 0 63.5 80.5t18.5 289.5v240q-50 -6 -115 -6q-92 0 -178.5 16.5t-169.5 57t-145 100.5t-99.5 154.5t-37.5 212.5z" />
<glyph unicode="&#xb7;" horiz-adv-x="399" d="M86 412q0 49 30 77.5t83 28.5q52 0 81 -28t29 -78q0 -53 -29 -83t-81 -30q-53 0 -83 30.5t-30 82.5z" />
<glyph unicode="&#xb8;" horiz-adv-x="401" d="M10 -459q0 30 18.5 45t47.5 15q30 0 51.5 -19.5t31.5 -43t28 -43t42 -19.5q50 0 50 59q-5 56 -127 182q-51 53 -19 160l39 123h31q-8 -29 -8 -55t5 -44.5t20 -40.5t27.5 -36t35.5 -37q94 -102 94 -170q2 -66 -49.5 -123t-151.5 -57q-68 0 -117 28.5t-49 75.5z" />
<glyph unicode="&#xb9;" horiz-adv-x="536" d="M57 1363.5q-1 5.5 2 8.5l265 119q8 4 14 -1.5t6 -12.5v-486q0 -97 19.5 -119t107.5 -22q5 0 5 -12.5t-5 -12.5q-24 0 -87 3t-101 3q-40 0 -107.5 -3t-91.5 -3q-6 0 -6 12.5t6 12.5q89 0 110 22t21 119v242q0 48 -0.5 71t-6 45.5t-12.5 28t-25.5 5.5t-39.5 -8t-59 -25 q-4 -2 -9 3t-6 10.5z" />
<glyph unicode="&#xba;" horiz-adv-x="581" d="M16 1018q0 122 78 197t191 75q117 0 184.5 -79.5t65.5 -196.5q-1 -128 -81 -204.5t-188 -76.5q-117 0 -184.5 83.5t-65.5 201.5zM41.5 626.5q1.5 14.5 5.5 14.5h500q10 0 9.5 -29.5t-9.5 -29.5h-496q-6 0 -8.5 15t-1 29.5zM131 1069q0 -125 49 -211t123 -86 q54 0 85.5 50.5t31.5 140.5q2 120 -48 205t-126 85q-112 0 -115 -184z" />
<glyph unicode="&#xbb;" horiz-adv-x="960" d="M119 85.5q-2 4.5 0 8.5l209 316l-209 319q-2 4 4 9.5t10 0.5l377 -305q9 -9 9 -23.5t-9 -23.5l-377 -305q-3 -4 -7.5 -2.5t-6.5 6zM455 94l211 316l-211 319q-2 5 6 11q6 4 8 -1l379 -305q9 -9 9 -23.5t-9 -23.5l-379 -305q-4 -7 -11 1q-5 6 -3 11z" />
<glyph unicode="&#xbc;" horiz-adv-x="1239" d="M57 1171q-1 6 2 9l265 118q8 3 14 -2.5t6 -11.5v-487q0 -97 20 -119.5t107 -22.5q5 0 5 -11t-5 -11q-24 0 -87 2t-101 2q-40 0 -107.5 -2t-91.5 -2q-6 0 -6 11t6 11q89 0 110 22.5t21 119.5v243q0 48 -0.5 71t-6 45.5t-12.5 28t-25.5 5.5t-39.5 -8t-59 -25q-4 -2 -9 3 t-6 11zM324 27l571 1261q4 7 33.5 -6t27.5 -18l-571 -1266q-2 -3 -17.5 2.5t-30 14t-13.5 12.5zM717 200q-4 7 0 13l334 444q7 9 31 7.5t24 -9.5v-424q15 1 44 2.5t42 2.5q4 0 4 -28t-4 -28q-15 1 -43 2t-43 2v-100q0 -40 13 -50.5t73 -10.5q2 0 2 -12.5t-2 -12.5 q-20 0 -63.5 1t-73.5 1q-36 0 -94 -1t-80 -1q-3 0 -3 12.5t3 12.5q68 0 86 10t18 51v104q-180 5 -256 5q-8 0 -12 7zM791 229q-3 -6 6 -6q42 0 104 1t84 1v279z" />
<glyph unicode="&#xbd;" horiz-adv-x="1251" d="M57 1171q-1 6 2 9l265 118q8 3 14 -2.5t6 -11.5v-487q0 -97 20 -119.5t107 -22.5q5 0 5 -11t-5 -11q-24 0 -87 2t-101 2q-40 0 -107.5 -2t-91.5 -2q-6 0 -6 11t6 11q89 0 110 22.5t21 119.5v243q0 48 -0.5 71t-6 45.5t-12.5 28t-25.5 5.5t-39.5 -8t-59 -25q-4 -2 -9 3 t-6 11zM324 27l571 1261q4 7 33.5 -6t27.5 -18l-571 -1266q-2 -3 -17.5 2.5t-30 14t-13.5 12.5zM784 12q17 68 49 127t65.5 99t64.5 79t51 84t20 97q0 60 -24.5 88t-65.5 28q-48 0 -82.5 -30t-48.5 -76q-2 -9 -16 -4q-8 3 -6 8q46 156 202 156q86 0 130 -41t44 -107 q0 -48 -26.5 -94t-66.5 -83.5t-81.5 -72t-78.5 -75t-50 -78.5q0 -8 6 -8q66 0 107.5 1t77.5 4.5t54.5 9.5t32.5 16.5t19.5 24t7.5 34.5q0 5 10.5 5t10.5 -5l-2 -189q0 -10 -8 -10h-389q-13 0 -7 12z" />
<glyph unicode="&#xbe;" horiz-adv-x="1216" d="M45 762q-1 5 4.5 8t11.5 2t7 -6q17 -46 53 -72t82 -26q50 0 86.5 36t36.5 117q0 99 -50 154q-23 -14 -61 -29q-10 -5 -17 7q-4 8 1 10q46 31 73 78t27 96q0 48 -27.5 77t-68.5 29q-43 0 -77 -29t-46 -73q-2 -9 -16 -5q-10 3 -7 9q42 155 197 155q85 0 132.5 -43 t47.5 -100q0 -83 -119 -160q67 -22 106.5 -67t39.5 -103q0 -74 -64 -140t-170 -66q-79 0 -120 36.5t-62 104.5zM301 27l571 1261q4 7 34 -6t28 -18l-572 -1266q-2 -3 -17.5 2.5t-30 14t-13.5 12.5zM694 213l334 444q8 9 31.5 7.5t23.5 -9.5v-424q15 1 44 2.5t42 2.5 q5 0 5 -28t-5 -28q-14 1 -43 2t-43 2v-100q0 -40 13 -50.5t73 -10.5q1 0 1 -12.5t-1 -12.5q-20 0 -63.5 1t-73.5 1q-36 0 -94 -1t-80 -1q-3 0 -3 12.5t3 12.5q69 0 87 10t18 51v104q-180 5 -256 5q-8 0 -12.5 7t-0.5 13zM768 229q-3 -6 6 -6q42 0 104.5 1t84.5 1v279z" />
<glyph unicode="&#xbf;" horiz-adv-x="669" d="M31 -319q0 34 8.5 64.5t19.5 51.5t33.5 46.5t36.5 38.5t44 38.5t42 36.5q66 60 95.5 119.5t29.5 132.5q0 40 -12 108q-1 5 6 8.5t14 3.5t10 -3q24 -55 39 -126.5t15 -121.5q0 -53 -19 -95.5t-46 -73t-53.5 -62.5t-45.5 -81t-19 -112q0 -79 29 -130.5t78 -51.5 q36 0 49.5 24t17.5 64q3 24 7.5 40.5t15 38.5t31.5 34t51 12q47 0 69.5 -26t22.5 -62q0 -68 -77 -114t-189 -46q-128 0 -215.5 63.5t-87.5 180.5zM233 627q0 53 29.5 82.5t81.5 29.5q53 0 83 -30t30 -82q0 -50 -30.5 -78.5t-82.5 -28.5t-81.5 28.5t-29.5 78.5z" />
<glyph unicode="&#xc0;" horiz-adv-x="1335" d="M-24.5 12.5q-0.5 12.5 8.5 12.5q63 0 133 61.5t123 183.5l436 1028q2 7 19 6.5t22 -8.5l444 -1124q17 -42 25 -60t22.5 -39.5t31 -29t41.5 -13t62 -5.5q7 0 7 -12.5t-7 -12.5q-36 0 -115.5 4t-127.5 4t-122.5 -4t-111.5 -4q-6 0 -6 12.5t6 12.5q92 0 113.5 30.5 t-12.5 116.5l-183 457h-329l-150 -363q-28 -69 -33 -115.5t15 -74t60 -39.5t106 -12q6 0 8 -6.5t-0.5 -12.5t-9.5 -6q-30 0 -120 4t-138 4q-47 0 -110 -4t-99 -4q-8 0 -8.5 12.5zM475 680h289l-143 356zM479 1548q-30 8 33 33q78 33 137 38q18 1 23 -3q66 -58 235 -186 q5 -4 4.5 -9t-6 -9.5t-10.5 -2.5q-204 81 -416 139z" />
<glyph unicode="&#xc1;" horiz-adv-x="1335" d="M-24.5 12.5q-0.5 12.5 8.5 12.5q63 0 133 61.5t123 183.5l436 1028q2 7 19 6.5t22 -8.5l444 -1124q17 -42 25 -60t22.5 -39.5t31 -29t41.5 -13t62 -5.5q7 0 7 -12.5t-7 -12.5q-36 0 -115.5 4t-127.5 4t-122.5 -4t-111.5 -4q-6 0 -6 12.5t6 12.5q92 0 113.5 30.5 t-12.5 116.5l-183 457h-329l-150 -363q-28 -69 -33 -115.5t15 -74t60 -39.5t106 -12q6 0 8 -6.5t-0.5 -12.5t-9.5 -6q-30 0 -120 4t-138 4q-47 0 -110 -4t-99 -4q-8 0 -8.5 12.5zM475 680h289l-143 356zM550.5 1402.5q-0.5 5.5 2.5 8.5q57 40 144 117.5t102 89.5 q13 12 117 -25q88 -31 83 -42q-1 -2 -6 -3q-218 -57 -426 -157q-6 -3 -11 1.5t-5.5 10z" />
<glyph unicode="&#xc2;" horiz-adv-x="1335" d="M-24.5 12.5q-0.5 12.5 8.5 12.5q63 0 133 61.5t123 183.5l436 1028q2 7 19 6.5t22 -8.5l444 -1124q17 -42 25 -60t22.5 -39.5t31 -29t41.5 -13t62 -5.5q7 0 7 -12.5t-7 -12.5q-36 0 -115.5 4t-127.5 4t-122.5 -4t-111.5 -4q-6 0 -6 12.5t6 12.5q92 0 113.5 30.5 t-12.5 116.5l-183 457h-329l-150 -363q-28 -69 -33 -115.5t15 -74t60 -39.5t106 -12q6 0 8 -6.5t-0.5 -12.5t-9.5 -6q-30 0 -120 4t-138 4q-47 0 -110 -4t-99 -4q-8 0 -8.5 12.5zM473 1366l191 223q8 9 18.5 9t19.5 -9l205 -223q2 -3 0 -7.5t-5.5 -6.5t-6.5 0l-205 92 l-203 -92q-4 -4 -12 5q-6 5 -2 9zM475 680h289l-143 356z" />
<glyph unicode="&#xc3;" horiz-adv-x="1335" d="M-24.5 12.5q-0.5 12.5 8.5 12.5q63 0 133 61.5t123 183.5l436 1028q2 7 19 6.5t22 -8.5l444 -1124q17 -42 25 -60t22.5 -39.5t31 -29t41.5 -13t62 -5.5q7 0 7 -12.5t-7 -12.5q-36 0 -115.5 4t-127.5 4t-122.5 -4t-111.5 -4q-6 0 -6 12.5t6 12.5q92 0 113.5 30.5 t-12.5 116.5l-183 457h-329l-150 -363q-28 -69 -33 -115.5t15 -74t60 -39.5t106 -12q6 0 8 -6.5t-0.5 -12.5t-9.5 -6q-30 0 -120 4t-138 4q-47 0 -110 -4t-99 -4q-8 0 -8.5 12.5zM424 1425q75 152 170 152q25 0 116 -24.5t142 -24.5q41 0 64.5 12.5t46.5 42.5q5 3 12 -3.5 t4 -10.5q-41 -91 -75 -122.5t-83 -31.5q-38 0 -128 25.5t-140 25.5q-32 0 -54 -8.5t-29 -15.5t-28 -31q-5 -3 -13 2.5t-5 11.5zM475 680h289l-143 356z" />
<glyph unicode="&#xc4;" horiz-adv-x="1335" d="M-24.5 12.5q-0.5 12.5 8.5 12.5q63 0 133 61.5t123 183.5l436 1028q2 7 19 6.5t22 -8.5l444 -1124q17 -42 25 -60t22.5 -39.5t31 -29t41.5 -13t62 -5.5q7 0 7 -12.5t-7 -12.5q-36 0 -115.5 4t-127.5 4t-122.5 -4t-111.5 -4q-6 0 -6 12.5t6 12.5q92 0 113.5 30.5 t-12.5 116.5l-183 457h-329l-150 -363q-28 -69 -33 -115.5t15 -74t60 -39.5t106 -12q6 0 8 -6.5t-0.5 -12.5t-9.5 -6q-30 0 -120 4t-138 4q-47 0 -110 -4t-99 -4q-8 0 -8.5 12.5zM412 1552q0 46 27.5 72.5t76.5 26.5q46 0 72 -26.5t26 -72.5q0 -49 -26 -75.5t-72 -26.5 q-50 0 -77 26.5t-27 75.5zM475 680h289l-143 356zM756 1552q0 46 27.5 71.5t74.5 25.5t72.5 -25.5t25.5 -71.5q0 -49 -25.5 -75.5t-72.5 -26.5q-48 0 -75 26.5t-27 75.5z" />
<glyph unicode="&#xc5;" horiz-adv-x="1335" d="M-24.5 12.5q-0.5 12.5 8.5 12.5q63 0 133 61.5t123 183.5l436 1028q2 7 19 6.5t22 -8.5l444 -1124q17 -42 25 -60t22.5 -39.5t31 -29t41.5 -13t62 -5.5q7 0 7 -12.5t-7 -12.5q-36 0 -115.5 4t-127.5 4t-122.5 -4t-111.5 -4q-6 0 -6 12.5t6 12.5q92 0 113.5 30.5 t-12.5 116.5l-183 457h-329l-150 -363q-28 -69 -33 -115.5t15 -74t60 -39.5t106 -12q6 0 8 -6.5t-0.5 -12.5t-9.5 -6q-30 0 -120 4t-138 4q-47 0 -110 -4t-99 -4q-8 0 -8.5 12.5zM469 1518q0 73 70 115t155 42t145 -47.5t60 -116.5q0 -71 -68.5 -114t-156.5 -43 q-93 0 -149 48.5t-56 115.5zM475 680h289l-143 356zM598 1559q0 -69 30 -124t79 -55q61 0 61 97q0 69 -34 120.5t-81 51.5q-55 0 -55 -90z" />
<glyph unicode="&#xc6;" horiz-adv-x="1712" d="M-77.5 12.5q-0.5 12.5 9.5 12.5q92 0 166 52.5t158 196.5l522 906q28 48 16 61q-13 13 -109 14h-50q-11 0 -11 12.5t11 12.5h893q16 0 16 -18q1 -31 3 -133t3 -136q-2 -6 -14 -5t-12 7q-25 118 -108 187t-202 69h-55q-80 0 -109 -31t-26 -108l25 -420h219 q100 0 144.5 35.5t47.5 118.5q0 5 7 6.5t13.5 -1t6.5 -7.5q-2 -86 -2 -178q0 -40 2.5 -111.5t3.5 -91.5q0 -6 -7.5 -7.5t-14.5 1t-7 8.5q-3 174 -200 174h-211l26 -465q3 -87 29 -112t115 -25h73q106 0 192 76.5t126 205.5q2 3 9 3t12.5 -2t4.5 -5q-18 -117 -18 -284 q0 -17 -7 -24t-26 -7h-844q-11 0 -11 12.5t11 12.5q92 0 119 26.5t21 114.5l-25 473h-315l-226 -387q-62 -98 -21 -162.5t167 -64.5q10 0 9.5 -12.5t-9.5 -12.5q-39 0 -149 4t-164 4q-49 0 -114.5 -4t-103.5 -4q-9 0 -9.5 12.5zM575 692h281l-22 443z" />
<glyph unicode="&#xc7;" horiz-adv-x="1298" d="M78 645q0 120 38.5 226t106 184t157.5 134.5t195.5 85t217.5 28.5q96 0 198 -18t164 -46q17 -9 22 -18t5 -31l16 -256q0 -8 -8.5 -8.5t-11.5 6.5q-66 155 -186 237t-277 82q-204 0 -315 -144t-111 -398q0 -187 66.5 -347.5t183 -255t256.5 -94.5q231 0 397 316 q3 8 12.5 5.5t9.5 -11.5l-14 -232q-4 -19 -6 -25.5t-7.5 -11.5t-19.5 -10q-182 -68 -376 -68h-3q-9 -57 12.5 -96.5t73.5 -91.5q95 -103 95 -170q2 -66 -49.5 -123t-151.5 -57q-68 0 -117 28.5t-49 75.5q0 30 18.5 45t47.5 15q30 0 51.5 -19.5t31.5 -43t28 -43t42 -19.5 q49 0 49 59q-5 56 -127 182q-30 31 -32 74t14 86l31 98q-145 5 -262.5 47t-193.5 108t-127.5 153t-73 177t-21.5 185z" />
<glyph unicode="&#xc8;" horiz-adv-x="1159" d="M96 1267.5q0 12.5 6 12.5h875q16 0 16 -18q1 -30 3 -131t3 -134q0 -7 -12.5 -7.5t-13.5 5.5q-25 111 -105.5 177.5t-193.5 66.5h-90q-95 0 -118 -21.5t-26 -105.5v-420h277q99 0 144 35t44 117q0 6 7.5 8t14.5 -0.5t7 -9.5q0 -46 -2 -99.5t-2 -76.5q0 -33 2 -98.5 t2 -104.5q0 -9 -13.5 -9t-13.5 9q0 176 -196 176h-271v-465q0 -83 26.5 -108t115.5 -25h120q118 0 213.5 75.5t143.5 202.5q4 8 19 2q7 -3 5 -6q-18 -140 -18 -284q0 -18 -6.5 -24.5t-24.5 -6.5h-928q-5 0 -7 6t-0.5 12.5t5.5 6.5q96 0 121 25.5t25 115.5v948 q-2 88 -29 114.5t-119 26.5q-6 0 -6 12.5zM383 1548q-30 8 33 34q78 32 137 37q17 1 22 -3q59 -52 236 -186q5 -4 4.5 -9t-6 -9.5t-10.5 -2.5q-204 81 -416 139z" />
<glyph unicode="&#xc9;" horiz-adv-x="1159" d="M96 1267.5q0 12.5 6 12.5h875q16 0 16 -18q1 -30 3 -131t3 -134q0 -7 -12.5 -7.5t-13.5 5.5q-25 111 -105.5 177.5t-193.5 66.5h-90q-95 0 -118 -21.5t-26 -105.5v-420h277q99 0 144 35t44 117q0 6 7.5 8t14.5 -0.5t7 -9.5q0 -46 -2 -99.5t-2 -76.5q0 -33 2 -98.5 t2 -104.5q0 -9 -13.5 -9t-13.5 9q0 176 -196 176h-271v-465q0 -83 26.5 -108t115.5 -25h120q118 0 213.5 75.5t143.5 202.5q4 8 19 2q7 -3 5 -6q-18 -140 -18 -284q0 -18 -6.5 -24.5t-24.5 -6.5h-928q-5 0 -7 6t-0.5 12.5t5.5 6.5q96 0 121 25.5t25 115.5v948 q-2 88 -29 114.5t-119 26.5q-6 0 -6 12.5zM454.5 1402.5q-0.5 5.5 2.5 8.5q56 40 142 116.5t103 90.5q13 12 117 -25q90 -31 84 -42q-1 -2 -6 -3q-218 -57 -426 -157q-6 -3 -11 1.5t-5.5 10z" />
<glyph unicode="&#xca;" horiz-adv-x="1159" d="M96 1267.5q0 12.5 6 12.5h875q16 0 16 -18q1 -30 3 -131t3 -134q0 -7 -12.5 -7.5t-13.5 5.5q-25 111 -105.5 177.5t-193.5 66.5h-90q-95 0 -118 -21.5t-26 -105.5v-420h277q99 0 144 35t44 117q0 6 7.5 8t14.5 -0.5t7 -9.5q0 -46 -2 -99.5t-2 -76.5q0 -33 2 -98.5 t2 -104.5q0 -9 -13.5 -9t-13.5 9q0 176 -196 176h-271v-465q0 -83 26.5 -108t115.5 -25h120q118 0 213.5 75.5t143.5 202.5q4 8 19 2q7 -3 5 -6q-18 -140 -18 -284q0 -18 -6.5 -24.5t-24.5 -6.5h-928q-5 0 -7 6t-0.5 12.5t5.5 6.5q96 0 121 25.5t25 115.5v948 q-2 88 -29 114.5t-119 26.5q-6 0 -6 12.5zM377 1366l190 223q7 9 18.5 9t20.5 -9l205 -223q2 -3 0 -7.5t-5.5 -6.5t-6.5 0l-205 92l-203 -92q-4 -4 -12 5q-6 5 -2 9z" />
<glyph unicode="&#xcb;" horiz-adv-x="1159" d="M96 1267.5q0 12.5 6 12.5h875q16 0 16 -18q1 -30 3 -131t3 -134q0 -7 -12.5 -7.5t-13.5 5.5q-25 111 -105.5 177.5t-193.5 66.5h-90q-95 0 -118 -21.5t-26 -105.5v-420h277q99 0 144 35t44 117q0 6 7.5 8t14.5 -0.5t7 -9.5q0 -46 -2 -99.5t-2 -76.5q0 -33 2 -98.5 t2 -104.5q0 -9 -13.5 -9t-13.5 9q0 176 -196 176h-271v-465q0 -83 26.5 -108t115.5 -25h120q118 0 213.5 75.5t143.5 202.5q4 8 19 2q7 -3 5 -6q-18 -140 -18 -284q0 -18 -6.5 -24.5t-24.5 -6.5h-928q-5 0 -7 6t-0.5 12.5t5.5 6.5q96 0 121 25.5t25 115.5v948 q-2 88 -29 114.5t-119 26.5q-6 0 -6 12.5zM315 1552q0 46 28 72.5t77 26.5q46 0 72 -26.5t26 -72.5q0 -49 -26 -75.5t-72 -26.5q-50 0 -77.5 26.5t-27.5 75.5zM659 1552q0 45 27.5 71t75.5 26q47 0 72.5 -25.5t25.5 -71.5q0 -49 -25.5 -75.5t-72.5 -26.5q-48 0 -75.5 26.5 t-27.5 75.5z" />
<glyph unicode="&#xcc;" horiz-adv-x="712" d="M105.5 1267.5q-0.5 12.5 5.5 12.5q29 0 110 -3t131 -3q54 0 136.5 3t111.5 3q6 0 6 -12.5t-6 -12.5q-49 0 -76.5 -5.5t-43.5 -23.5t-21 -43.5t-6 -72.5v-944q0 -89 27.5 -115t119.5 -26q6 0 6 -12.5t-6 -12.5q-29 0 -110 2t-134 2q-49 0 -131 -2t-112 -2q-4 0 -5.5 6 t-0.5 12.5t4 6.5q95 0 122 26t25 115v948q0 88 -27.5 114.5t-119.5 26.5q-5 0 -5.5 12.5zM139 1548q-30 8 33 33q78 33 137 38q18 1 23 -3q66 -58 235 -186q5 -4 4.5 -9t-6 -9.5t-10.5 -2.5q-204 81 -416 139z" />
<glyph unicode="&#xcd;" horiz-adv-x="712" d="M105.5 1267.5q-0.5 12.5 5.5 12.5q29 0 110 -3t131 -3q54 0 136.5 3t111.5 3q6 0 6 -12.5t-6 -12.5q-49 0 -76.5 -5.5t-43.5 -23.5t-21 -43.5t-6 -72.5v-944q0 -89 27.5 -115t119.5 -26q6 0 6 -12.5t-6 -12.5q-29 0 -110 2t-134 2q-49 0 -131 -2t-112 -2q-4 0 -5.5 6 t-0.5 12.5t4 6.5q95 0 122 26t25 115v948q0 88 -27.5 114.5t-119.5 26.5q-5 0 -5.5 12.5zM210.5 1402.5q-0.5 5.5 2.5 8.5q57 40 144 117.5t102 89.5q13 12 117 -25q88 -31 83 -42q-1 -2 -6 -3q-218 -57 -426 -157q-6 -3 -11 1.5t-5.5 10z" />
<glyph unicode="&#xce;" horiz-adv-x="712" d="M105.5 1267.5q-0.5 12.5 5.5 12.5q29 0 110 -3t131 -3q54 0 136.5 3t111.5 3q6 0 6 -12.5t-6 -12.5q-49 0 -76.5 -5.5t-43.5 -23.5t-21 -43.5t-6 -72.5v-944q0 -89 27.5 -115t119.5 -26q6 0 6 -12.5t-6 -12.5q-29 0 -110 2t-134 2q-49 0 -131 -2t-112 -2q-4 0 -5.5 6 t-0.5 12.5t4 6.5q95 0 122 26t25 115v948q0 88 -27.5 114.5t-119.5 26.5q-5 0 -5.5 12.5zM133 1366l191 223q8 9 18.5 9t19.5 -9l205 -223q2 -3 0 -7.5t-5.5 -6.5t-6.5 0l-205 92l-203 -92q-4 -4 -12 5q-6 5 -2 9z" />
<glyph unicode="&#xcf;" horiz-adv-x="712" d="M98 1552q0 46 28 72.5t77 26.5q46 0 73 -26.5t27 -72.5q0 -49 -27 -75.5t-73 -26.5q-50 0 -77.5 26.5t-27.5 75.5zM105.5 1267.5q-0.5 12.5 5.5 12.5q29 0 110 -3t131 -3q54 0 136.5 3t111.5 3q6 0 6 -12.5t-6 -12.5q-49 0 -76.5 -5.5t-43.5 -23.5t-21 -43.5t-6 -72.5 v-944q0 -89 27.5 -115t119.5 -26q6 0 6 -12.5t-6 -12.5q-29 0 -110 2t-134 2q-49 0 -131 -2t-112 -2q-4 0 -5.5 6t-0.5 12.5t4 6.5q95 0 122 26t25 115v948q0 88 -27.5 114.5t-119.5 26.5q-5 0 -5.5 12.5zM401 1552q0 46 28 72.5t75 26.5t73.5 -26.5t26.5 -72.5 q0 -49 -26 -75.5t-74 -26.5t-75.5 26.5t-27.5 75.5z" />
<glyph unicode="&#xd0;" horiz-adv-x="1390" d="M77 637q0 27 9 27h152v450q-5 88 -32.5 114.5t-117.5 26.5q-6 0 -6 12.5t6 12.5q28 0 110.5 -3t133.5 -3q43 0 132.5 5t127.5 5q211 0 375.5 -79.5t255 -221.5t90.5 -321q0 -148 -57 -275t-152.5 -212.5t-220 -134t-260.5 -48.5q-35 0 -137.5 6t-149.5 6q-53 0 -136 -2 t-112 -2q-6 0 -6 12.5t6 12.5q95 0 123 26t27 115v444h-152q-9 0 -9 27zM428 188q2 -86 38 -122.5t138 -36.5q224 0 359 154.5t135 432.5q0 95 -18.5 184.5t-59 171t-98.5 142.5t-143.5 97t-188.5 36q-94 0 -128 -29.5t-34 -107.5v-446h195q7 0 7 -27t-7 -27h-195v-422z" />
<glyph unicode="&#xd1;" horiz-adv-x="1449" d="M53 1267.5q0 12.5 6 12.5q30 0 94.5 -2t86.5 -2q28 0 77 2t52 2q17 0 25 -8t27 -38.5t42 -59.5l702 -895l2 770q2 100 -43 153t-131 53q-7 0 -7 12.5t7 12.5q21 0 89 -3t114 -3q39 0 108.5 3t98.5 3q6 0 6 -12.5t-6 -12.5q-84 0 -131 -53.5t-47 -152.5l-2 -1065 q0 -10 -22.5 -12.5t-31.5 8.5l-868 1103v-852q-1 -101 44 -153.5t130 -52.5q7 0 7 -12.5t-7 -12.5q-25 0 -91.5 2t-111.5 2q-39 0 -108 -2t-98 -2q-6 0 -6 12.5t6 12.5q84 0 131 53t47 153l2 920q-91 104 -187 104q-6 0 -6 12.5zM451 1425q75 152 170 152q25 0 116 -24.5 t142 -24.5q40 0 63.5 12.5t46.5 42.5q5 3 12.5 -3.5t4.5 -10.5q-41 -91 -75 -122.5t-83 -31.5q-38 0 -128 25.5t-140 25.5q-32 0 -54 -8.5t-29 -15.5t-28 -31q-5 -3 -13 2.5t-5 11.5z" />
<glyph unicode="&#xd2;" d="M82 631q1 191 90 344.5t246.5 240.5t353.5 87q147 0 270.5 -50.5t207 -138t129 -207t44.5 -256.5q-1 -152 -58.5 -280.5t-153.5 -214t-222.5 -133.5t-265.5 -48q-143 0 -264.5 51.5t-204 139.5t-128 208.5t-44.5 256.5zM281 737q-1 -187 64.5 -348t188.5 -260.5 t277 -99.5q186 0 298 140.5t114 375.5q0 190 -65.5 351t-188 259t-275.5 98q-185 0 -298.5 -139.5t-114.5 -376.5zM545 1548q-30 8 33 34q78 32 137 37q17 1 22 -3q59 -52 236 -186q5 -4 4.5 -9t-6 -9.5t-10.5 -2.5q-204 81 -416 139z" />
<glyph unicode="&#xd3;" d="M82 631q1 191 90 344.5t246.5 240.5t353.5 87q147 0 270.5 -50.5t207 -138t129 -207t44.5 -256.5q-1 -152 -58.5 -280.5t-153.5 -214t-222.5 -133.5t-265.5 -48q-143 0 -264.5 51.5t-204 139.5t-128 208.5t-44.5 256.5zM281 737q-1 -187 64.5 -348t188.5 -260.5 t277 -99.5q186 0 298 140.5t114 375.5q0 190 -65.5 351t-188 259t-275.5 98q-185 0 -298.5 -139.5t-114.5 -376.5zM616 1402.5q-1 5.5 2 8.5q57 40 144 117.5t102 89.5q13 12 117 -25q90 -31 84 -42q-1 -2 -6 -3q-218 -57 -426 -157q-6 -3 -11 1.5t-6 10z" />
<glyph unicode="&#xd4;" d="M82 631q1 191 90 344.5t246.5 240.5t353.5 87q147 0 270.5 -50.5t207 -138t129 -207t44.5 -256.5q-1 -152 -58.5 -280.5t-153.5 -214t-222.5 -133.5t-265.5 -48q-143 0 -264.5 51.5t-204 139.5t-128 208.5t-44.5 256.5zM281 737q-1 -187 64.5 -348t188.5 -260.5 t277 -99.5q186 0 298 140.5t114 375.5q0 190 -65.5 351t-188 259t-275.5 98q-185 0 -298.5 -139.5t-114.5 -376.5zM539 1366l190 223q7 9 18.5 9t20.5 -9l205 -223q2 -3 0 -7.5t-5.5 -6.5t-6.5 0l-205 92l-203 -92q-4 -4 -12 5q-6 5 -2 9z" />
<glyph unicode="&#xd5;" d="M82 631q1 191 90 344.5t246.5 240.5t353.5 87q147 0 270.5 -50.5t207 -138t129 -207t44.5 -256.5q-1 -152 -58.5 -280.5t-153.5 -214t-222.5 -133.5t-265.5 -48q-143 0 -264.5 51.5t-204 139.5t-128 208.5t-44.5 256.5zM281 737q-1 -187 64.5 -348t188.5 -260.5 t277 -99.5q186 0 298 140.5t114 375.5q0 190 -65.5 351t-188 259t-275.5 98q-185 0 -298.5 -139.5t-114.5 -376.5zM489 1425q75 152 170 152q25 0 116.5 -24.5t142.5 -24.5q40 0 63.5 12.5t46.5 42.5q5 3 12 -3.5t4 -10.5q-42 -91 -75 -122.5t-82 -31.5q-38 0 -128.5 25.5 t-140.5 25.5q-11 0 -20.5 -0.5t-18 -3t-14 -3.5t-12.5 -5.5t-9.5 -5.5t-9.5 -8t-8 -8.5t-9 -10.5t-9 -10q-5 -3 -13.5 2.5t-5.5 11.5z" />
<glyph unicode="&#xd6;" d="M82 631q1 191 90 344.5t246.5 240.5t353.5 87q147 0 270.5 -50.5t207 -138t129 -207t44.5 -256.5q-1 -152 -58.5 -280.5t-153.5 -214t-222.5 -133.5t-265.5 -48q-143 0 -264.5 51.5t-204 139.5t-128 208.5t-44.5 256.5zM281 737q-1 -187 64.5 -348t188.5 -260.5 t277 -99.5q186 0 298 140.5t114 375.5q0 190 -65.5 351t-188 259t-275.5 98q-185 0 -298.5 -139.5t-114.5 -376.5zM477 1552q0 46 28 72.5t77 26.5q46 0 72 -26.5t26 -72.5q0 -49 -26 -75.5t-72 -26.5q-50 0 -77.5 26.5t-27.5 75.5zM821 1552q0 45 27.5 71t75.5 26 q47 0 72.5 -25.5t25.5 -71.5q0 -49 -25.5 -75.5t-72.5 -26.5q-48 0 -75.5 26.5t-27.5 75.5z" />
<glyph unicode="&#xd7;" horiz-adv-x="804" d="M129 180l207 207l-207 205q-4 5 11.5 23.5t33.5 34t21 12.5l208 -207l205 204q5 4 23.5 -11t33.5 -32.5t11 -21.5l-207 -207l205 -205q4 -5 -11 -23t-33 -33t-22 -11l-205 204l-204 -204q-5 -4 -23.5 11t-34 33t-12.5 21z" />
<glyph unicode="&#xd8;" d="M82 631q1 191 90 344.5t246.5 240.5t353.5 87q215 0 371 -103l80 98q4 3 17 -4t23 -16.5t7 -13.5l-80 -97q114 -89 174.5 -222.5t58.5 -293.5q-1 -152 -58.5 -280.5t-153.5 -214t-222.5 -133.5t-265.5 -48q-235 0 -404 131l-108 -131q-3 -4 -15.5 4t-22 19t-5.5 16 l108 131q-94 90 -144.5 216t-49.5 270zM281 737q0 -253 114 -446l649 790q-146 172 -350 172q-185 0 -298.5 -139.5t-114.5 -376.5zM428 240q154 -211 383 -211q186 0 298 140.5t114 375.5q0 285 -142 489z" />
<glyph unicode="&#xd9;" horiz-adv-x="1574" d="M56 1267.5q0 12.5 7 12.5q26 0 106.5 -3t131.5 -3q49 0 133 3t111 3q5 0 7 -6t0.5 -12.5t-5.5 -6.5q-93 0 -120 -27.5t-30 -117.5l2 -657q-2 -194 96 -302t275 -108q95 0 179 35.5t179 118.5l-4 913q3 89 -23.5 117t-117.5 28q-4 0 -5.5 6.5t-0.5 12.5t4 6q30 0 111.5 -3 t130.5 -3q47 0 130.5 3t110.5 3q5 0 7 -6t0.5 -12.5t-5.5 -6.5q-93 0 -120 -26.5t-27 -114.5v-948q0 -90 31 -115.5t143 -25.5q7 0 7 -12.5t-7 -12.5q-30 0 -91.5 1t-98.5 1q-27 0 -74 -1t-68 -1q-22 0 -27.5 6.5t-5.5 32.5v104q-104 -89 -205 -128.5t-223 -39.5 q-216 0 -353.5 110.5t-137.5 295.5v733q0 88 -27.5 114.5t-118.5 26.5q-7 0 -7 12.5zM553 1548q-30 8 33 34q78 32 137 37q17 1 22 -3q59 -52 236 -186q5 -4 4.5 -9t-6 -9.5t-10.5 -2.5q-204 81 -416 139z" />
<glyph unicode="&#xda;" horiz-adv-x="1574" d="M56 1267.5q0 12.5 7 12.5q26 0 106.5 -3t131.5 -3q49 0 133 3t111 3q5 0 7 -6t0.5 -12.5t-5.5 -6.5q-93 0 -120 -27.5t-30 -117.5l2 -657q-2 -194 96 -302t275 -108q95 0 179 35.5t179 118.5l-4 913q3 89 -23.5 117t-117.5 28q-4 0 -5.5 6.5t-0.5 12.5t4 6q30 0 111.5 -3 t130.5 -3q47 0 130.5 3t110.5 3q5 0 7 -6t0.5 -12.5t-5.5 -6.5q-93 0 -120 -26.5t-27 -114.5v-948q0 -90 31 -115.5t143 -25.5q7 0 7 -12.5t-7 -12.5q-30 0 -91.5 1t-98.5 1q-27 0 -74 -1t-68 -1q-22 0 -27.5 6.5t-5.5 32.5v104q-104 -89 -205 -128.5t-223 -39.5 q-216 0 -353.5 110.5t-137.5 295.5v733q0 88 -27.5 114.5t-118.5 26.5q-7 0 -7 12.5zM624.5 1402.5q-0.5 5.5 2.5 8.5q56 40 142 116.5t103 90.5q13 12 117 -25q90 -31 84 -42q-1 -2 -6 -3q-218 -57 -426 -157q-6 -3 -11 1.5t-5.5 10z" />
<glyph unicode="&#xdb;" horiz-adv-x="1574" d="M56 1267.5q0 12.5 7 12.5q26 0 106.5 -3t131.5 -3q49 0 133 3t111 3q5 0 7 -6t0.5 -12.5t-5.5 -6.5q-93 0 -120 -27.5t-30 -117.5l2 -657q-2 -194 96 -302t275 -108q95 0 179 35.5t179 118.5l-4 913q3 89 -23.5 117t-117.5 28q-4 0 -5.5 6.5t-0.5 12.5t4 6q30 0 111.5 -3 t130.5 -3q47 0 130.5 3t110.5 3q5 0 7 -6t0.5 -12.5t-5.5 -6.5q-93 0 -120 -26.5t-27 -114.5v-948q0 -90 31 -115.5t143 -25.5q7 0 7 -12.5t-7 -12.5q-30 0 -91.5 1t-98.5 1q-27 0 -74 -1t-68 -1q-22 0 -27.5 6.5t-5.5 32.5v104q-104 -89 -205 -128.5t-223 -39.5 q-216 0 -353.5 110.5t-137.5 295.5v733q0 88 -27.5 114.5t-118.5 26.5q-7 0 -7 12.5zM547 1366l190 223q7 9 18.5 9t20.5 -9l205 -223q2 -3 0 -7.5t-5.5 -6.5t-6.5 0l-205 92l-203 -92q-4 -4 -12 5q-6 5 -2 9z" />
<glyph unicode="&#xdc;" horiz-adv-x="1574" d="M56 1267.5q0 12.5 7 12.5q26 0 106.5 -3t131.5 -3q49 0 133 3t111 3q5 0 7 -6t0.5 -12.5t-5.5 -6.5q-93 0 -120 -27.5t-30 -117.5l2 -657q-2 -194 96 -302t275 -108q95 0 179 35.5t179 118.5l-4 913q3 89 -23.5 117t-117.5 28q-4 0 -5.5 6.5t-0.5 12.5t4 6q30 0 111.5 -3 t130.5 -3q47 0 130.5 3t110.5 3q5 0 7 -6t0.5 -12.5t-5.5 -6.5q-93 0 -120 -26.5t-27 -114.5v-948q0 -90 31 -115.5t143 -25.5q7 0 7 -12.5t-7 -12.5q-30 0 -91.5 1t-98.5 1q-27 0 -74 -1t-68 -1q-22 0 -27.5 6.5t-5.5 32.5v104q-104 -89 -205 -128.5t-223 -39.5 q-216 0 -353.5 110.5t-137.5 295.5v733q0 88 -27.5 114.5t-118.5 26.5q-7 0 -7 12.5zM485 1552q0 46 28 72.5t77 26.5q46 0 72 -26.5t26 -72.5q0 -49 -26 -75.5t-72 -26.5q-50 0 -77.5 26.5t-27.5 75.5zM829 1552q0 45 27.5 71t75.5 26q47 0 72.5 -25.5t25.5 -71.5 q0 -49 -25.5 -75.5t-72.5 -26.5q-48 0 -75.5 26.5t-27.5 75.5z" />
<glyph unicode="&#xdd;" horiz-adv-x="1175" d="M-23.5 1274q1.5 6 5.5 6q30 0 98 -3t100 -3q48 0 140.5 3t117.5 3q5 0 6 -6t-2 -12.5t-8 -6.5q-76 0 -94 -17.5t14 -63.5l312 -480l204 383q41 77 15.5 127.5t-107.5 50.5q-8 0 -8 12.5t8 12.5q32 0 116 -3t136 -3q32 0 78 3t72 3q9 0 9 -12.5t-9 -12.5q-139 0 -262 -213 l-224 -403v-473q0 -90 29 -115.5t135 -25.5q8 0 8 -12.5t-8 -12.5q-31 0 -117 2t-141 2q-57 0 -145.5 -2t-120.5 -2q-8 0 -8.5 12.5t8.5 12.5q108 0 139.5 26t30.5 115l-2 448l-328 496q-51 77 -94.5 111t-95.5 34q-5 0 -7 6.5t-0.5 12.5zM460.5 1402.5q-0.5 5.5 2.5 8.5 q57 40 144 117.5t102 89.5q13 12 117 -25q88 -31 83 -42q-1 -2 -6 -3q-218 -57 -426 -157q-6 -3 -11 1.5t-5.5 10z" />
<glyph unicode="&#xde;" horiz-adv-x="1200" d="M90 12.5q0 12.5 4 12.5q96 0 123 25.5t27 115.5v948q0 88 -26 114.5t-118 26.5q-6 0 -6 12.5t6 12.5q28 0 107 -3t127 -3q67 0 169.5 3t135.5 3q6 0 6 -12.5t-6 -12.5q-59 0 -91.5 -3t-58 -10t-35.5 -25t-14.5 -41.5t-5.5 -65.5v-96q109 16 199 16q225 0 365.5 -99.5 t140.5 -271.5q0 -99 -50 -177t-129.5 -122t-167.5 -66t-176 -22q-36 0 -96 11q-2 1 -3 4.5t-0.5 9t1.5 10t3 8t5 2.5q35 -6 70 -6q61 0 116.5 16t105.5 49.5t80 96t30 145.5q0 156 -98.5 264.5t-262.5 108.5q-61 0 -133 -14l2 -811q0 -65 13 -92t53 -38t133 -11 q5 0 5.5 -12.5t-5.5 -12.5q-35 0 -134 2t-163 2q-48 0 -131 -2t-113 -2q-4 0 -4 12.5z" />
<glyph unicode="&#xdf;" horiz-adv-x="1026" d="M-121 -455q-3 33 20.5 53.5t65.5 20.5q41 0 66 -22.5t34 -49t25 -49t41 -22.5q30 0 37.5 86t1.5 342l-23 968q-9 279 100.5 447t330.5 168q119 0 189.5 -52.5t76.5 -140.5q3 -53 -19 -102.5t-55.5 -88t-67 -75t-57 -79t-22.5 -85.5q0 -37 19.5 -77t49.5 -77.5t66.5 -77 t73 -82t66.5 -86t49.5 -95t19.5 -103.5q3 -118 -69 -203.5t-202 -85.5q-85 0 -141 37t-66 82q-6 38 13.5 63t60.5 25q36 0 60.5 -15t38.5 -37t27 -43.5t34 -36.5t51 -15q88 0 84 115q-3 57 -39 119t-85.5 117t-98.5 111t-84 121.5t-37 129.5q-1 51 16 102t41.5 94.5 t48.5 88.5t38 102t8 118q-8 85 -47.5 137t-110.5 52q-108 0 -156 -136t-43 -407l25 -944q6 -199 -16.5 -311t-78 -160.5t-155.5 -48.5q-92 0 -146 30t-59 78z" />
<glyph unicode="&#xe0;" horiz-adv-x="968" d="M70 190q-3 138 67 284.5t187 244.5t237 98q96 0 166 -53q36 28 53 70q2 3 8.5 3t13 -3t5.5 -7l-4 -645q-6 -104 47 -104q45 0 115 80q6 6 16.5 -2.5t5.5 -14.5q-60 -81 -111 -120t-106 -39q-135 0 -135 188l2 178q-58 -173 -162 -274t-221 -101q-81 0 -131 53t-53 164z M225 332q3 -226 129 -226q73 0 139 73t102.5 172.5t37.5 187.5q1 87 -42.5 137.5t-117.5 48.5q-110 -1 -179 -111.5t-69 -281.5zM338 1489q-6 17 58 11q78 -8 106 -27q6 -3 6 -7l51 -491q1 -3 -3 -5t-8.5 -1.5t-4.5 4.5z" />
<glyph unicode="&#xe1;" horiz-adv-x="968" d="M70 190q-3 138 67 284.5t187 244.5t237 98q96 0 166 -53q36 28 53 70q2 3 8.5 3t13 -3t5.5 -7l-4 -645q-6 -104 47 -104q45 0 115 80q6 6 16.5 -2.5t5.5 -14.5q-60 -81 -111 -120t-106 -39q-135 0 -135 188l2 178q-58 -173 -162 -274t-221 -101q-81 0 -131 53t-53 164z M225 332q3 -226 129 -226q73 0 139 73t102.5 172.5t37.5 187.5q1 87 -42.5 137.5t-117.5 48.5q-110 -1 -179 -111.5t-69 -281.5zM496 975l79 491q3 16 89 29q86 12 89 -3q0 -1 -1 -3l-232 -520q-3 -4 -8.5 -3.5t-11 3.5t-4.5 6z" />
<glyph unicode="&#xe2;" horiz-adv-x="968" d="M70 190q-3 138 67 284.5t187 244.5t237 98q96 0 166 -53q36 28 53 70q2 3 8.5 3t13 -3t5.5 -7l-4 -645q-6 -104 47 -104q45 0 115 80q6 6 16.5 -2.5t5.5 -14.5q-60 -81 -111 -120t-106 -39q-135 0 -135 188l2 178q-58 -173 -162 -274t-221 -101q-81 0 -131 53t-53 164z M225 332q3 -226 129 -226q73 0 139 73t102.5 172.5t37.5 187.5q1 87 -42.5 137.5t-117.5 48.5q-110 -1 -179 -111.5t-69 -281.5zM379 977l145 510q3 11 20.5 11t18.5 -11l144 -510q1 -3 -4 -4q-15 -4 -21 2l-137 252l-144 -256q-3 -6 -12.5 -2.5t-9.5 8.5z" />
<glyph unicode="&#xe3;" horiz-adv-x="968" d="M70 190q-3 138 67 284.5t187 244.5t237 98q96 0 166 -53q36 28 53 70q2 3 8.5 3t13 -3t5.5 -7l-4 -645q-6 -104 47 -104q45 0 115 80q6 6 16.5 -2.5t5.5 -14.5q-60 -81 -111 -120t-106 -39q-135 0 -135 188l2 178q-58 -173 -162 -274t-221 -101q-81 0 -131 53t-53 164z M225 332q3 -226 129 -226q73 0 139 73t102.5 172.5t37.5 187.5q1 87 -42.5 137.5t-117.5 48.5q-110 -1 -179 -111.5t-69 -281.5zM256 983q16 30 27.5 49t34 47t50 43t58.5 15q25 0 116.5 -26t141.5 -26q40 0 64 13t49 43q1 2 6 0t8.5 -6.5t1.5 -8.5q-43 -90 -76 -120.5 t-82 -30.5q-38 0 -129.5 24.5t-140.5 24.5q-15 0 -26 -1t-21.5 -4.5t-15.5 -4.5t-14 -9t-11 -9.5t-12.5 -13t-12.5 -13.5q-1 -2 -5.5 0.5t-8 6.5t-2.5 7z" />
<glyph unicode="&#xe4;" horiz-adv-x="968" d="M70 190q-3 138 67 284.5t187 244.5t237 98q96 0 166 -53q36 28 53 70q2 3 8.5 3t13 -3t5.5 -7l-4 -645q-6 -104 47 -104q45 0 115 80q6 6 16.5 -2.5t5.5 -14.5q-60 -81 -111 -120t-106 -39q-135 0 -135 188l2 178q-58 -173 -162 -274t-221 -101q-81 0 -131 53t-53 164z M225 332q3 -226 129 -226q73 0 139 73t102.5 172.5t37.5 187.5q1 87 -42.5 137.5t-117.5 48.5q-110 -1 -179 -111.5t-69 -281.5zM260 1063q0 46 28 72t77 26q46 0 72 -26t26 -72q0 -49 -26 -75.5t-72 -26.5q-50 0 -77.5 26.5t-27.5 75.5zM604 1063q0 45 27.5 70.5t75.5 25.5 q47 0 72.5 -25t25.5 -71q0 -49 -25.5 -75.5t-72.5 -26.5q-48 0 -75.5 26.5t-27.5 75.5z" />
<glyph unicode="&#xe5;" horiz-adv-x="968" d="M70 190q-3 138 67 284.5t187 244.5t237 98q96 0 166 -53q36 28 53 70q2 3 8.5 3t13 -3t5.5 -7l-4 -645q-6 -104 47 -104q45 0 115 80q6 6 16.5 -2.5t5.5 -14.5q-60 -81 -111 -120t-106 -39q-135 0 -135 188l2 178q-58 -173 -162 -274t-221 -101q-81 0 -131 53t-53 164z M225 332q3 -226 129 -226q73 0 139 73t102.5 172.5t37.5 187.5q1 87 -42.5 137.5t-117.5 48.5q-110 -1 -179 -111.5t-69 -281.5zM317 1120q0 74 70 117t154 43q86 0 146.5 -48t60.5 -116q0 -71 -69 -114.5t-157 -43.5q-94 0 -149.5 47.5t-55.5 114.5zM446 1161 q0 -67 29.5 -121.5t77.5 -54.5q32 0 46.5 22t14.5 72q0 71 -32.5 122.5t-79.5 51.5q-56 0 -56 -92z" />
<glyph unicode="&#xe6;" horiz-adv-x="1265" d="M70 193q-2 80 20 167.5t66 168t102 145.5t135 104t158 39q44 0 81.5 -10t69 -34.5t43.5 -61.5q121 106 297 106q99 0 145 -34.5t46 -90.5q1 -46 -34 -86.5t-135.5 -90t-272.5 -103.5q14 -160 82 -255.5t169 -95.5q91 0 160 66q4 3 11 0t11.5 -8.5t0.5 -9.5 q-128 -134 -285 -134q-148 0 -229 107t-84 295q-59 -185 -155 -294.5t-212 -109.5q-81 0 -134 57.5t-56 162.5zM236 332q1 -120 35.5 -168.5t84.5 -48.5q55 0 117.5 66.5t104 164t43.5 182.5q2 96 -43 160.5t-113 63.5q-94 -3 -161.5 -123.5t-67.5 -296.5zM788 440 q261 100 256 222q0 41 -23 73.5t-71 32.5q-78 0 -122.5 -88.5t-39.5 -230.5v-9z" />
<glyph unicode="&#xe7;" horiz-adv-x="751" d="M57 406q1 88 38 166t96 131t133 83.5t149 30.5q87 0 157 -34t77 -97q3 -38 -20 -61t-69 -23q-47 0 -72 22t-44 62q-17 35 -42 56.5t-69 21.5q-80 0 -122 -79t-42 -208q1 -115 34 -206.5t103.5 -149.5t170.5 -58q102 0 174 52q4 3 10 -0.5t9.5 -9.5t0.5 -9 q-117 -120 -285 -123q-9 -56 12.5 -95t73.5 -91q95 -103 95 -170q2 -66 -49.5 -123t-151.5 -57q-68 0 -117 28.5t-49 75.5q0 30 18.5 45t47.5 15q30 0 51.5 -19.5t31.5 -43t28 -43t42 -19.5q49 0 49 59q-5 56 -127 182q-30 31 -32 74t14 86l31 96q-91 4 -162.5 43.5 t-113 102.5t-61.5 136.5t-18 150.5z" />
<glyph unicode="&#xe8;" horiz-adv-x="770" d="M53 373q2 84 35 163.5t90.5 142t144 100.5t185.5 38q88 0 137.5 -28.5t52.5 -81.5q6 -90 -129 -166.5t-336 -110.5q6 -165 83 -269t212 -104q114 0 197 66q6 5 14 -3t4 -14q-128 -131 -315 -131q-92 0 -165.5 34t-118 91t-68 127t-23.5 146zM233 461q274 58 271 203 q1 45 -25.5 71.5t-72.5 26.5q-84 0 -127.5 -83.5t-45.5 -217.5zM238 1489q-6 17 58 11q78 -8 106 -27q6 -3 6 -7l51 -491q1 -3 -3.5 -5t-9 -1.5t-4.5 4.5z" />
<glyph unicode="&#xe9;" horiz-adv-x="770" d="M53 373q2 84 35 163.5t90.5 142t144 100.5t185.5 38q88 0 137.5 -28.5t52.5 -81.5q6 -90 -129 -166.5t-336 -110.5q6 -165 83 -269t212 -104q114 0 197 66q6 5 14 -3t4 -14q-128 -131 -315 -131q-92 0 -165.5 34t-118 91t-68 127t-23.5 146zM233 461q274 58 271 203 q1 45 -25.5 71.5t-72.5 26.5q-84 0 -127.5 -83.5t-45.5 -217.5zM395 975l80 491q3 17 89 29q85 12 88 -3q0 -1 -1 -3l-231 -520q-3 -4 -9 -3.5t-11.5 3.5t-4.5 6z" />
<glyph unicode="&#xea;" horiz-adv-x="770" d="M53 373q2 84 35 163.5t90.5 142t144 100.5t185.5 38q88 0 137.5 -28.5t52.5 -81.5q6 -90 -129 -166.5t-336 -110.5q6 -165 83 -269t212 -104q114 0 197 66q6 5 14 -3t4 -14q-128 -131 -315 -131q-92 0 -165.5 34t-118 91t-68 127t-23.5 146zM233 461q274 58 271 203 q1 45 -25.5 71.5t-72.5 26.5q-84 0 -127.5 -83.5t-45.5 -217.5zM279 977l145 510q3 11 20.5 11t18.5 -11l143 -510q1 -3 -4 -4.5t-11.5 -1t-8.5 3.5l-138 252l-143 -256q-3 -6 -12.5 -2.5t-9.5 8.5z" />
<glyph unicode="&#xeb;" horiz-adv-x="770" d="M53 373q2 84 35 163.5t90.5 142t144 100.5t185.5 38q88 0 137.5 -28.5t52.5 -81.5q6 -90 -129 -166.5t-336 -110.5q6 -165 83 -269t212 -104q114 0 197 66q6 5 14 -3t4 -14q-128 -131 -315 -131q-92 0 -165.5 34t-118 91t-68 127t-23.5 146zM160 1063q0 46 27.5 72 t76.5 26q46 0 72 -26t26 -72q0 -49 -26 -75.5t-72 -26.5q-50 0 -77 26.5t-27 75.5zM233 461q274 58 271 203q1 45 -25.5 71.5t-72.5 26.5q-84 0 -127.5 -83.5t-45.5 -217.5zM504 1063q0 45 27 70.5t75 25.5q47 0 73 -25t26 -71q0 -49 -26 -75.5t-73 -26.5q-48 0 -75 26.5 t-27 75.5z" />
<glyph unicode="&#xec;" horiz-adv-x="532" d="M-6 645q62 85 118 124.5t117 39.5q129 0 129 -170l-8 -457q-3 -104 51 -104q23 0 48.5 19.5t64.5 60.5q5 4 11.5 2t11.5 -8.5t2 -10.5q-64 -83 -113.5 -121t-110.5 -38q-137 0 -131 188l9 438q3 107 -56 107q-48 0 -121 -86q-5 -5 -11 -3.5t-10.5 8t-0.5 11.5zM18 1489 q-7 14 78 3q92 -13 97 -26l79 -491q1 -3 -3.5 -5.5t-10 -2.5t-6.5 4z" />
<glyph unicode="&#xed;" horiz-adv-x="532" d="M-6 645q62 85 118 124.5t117 39.5q129 0 129 -170l-8 -457q-3 -104 51 -104q23 0 48.5 19.5t64.5 60.5q5 4 11.5 2t11.5 -8.5t2 -10.5q-64 -83 -113.5 -121t-110.5 -38q-137 0 -131 188l9 438q3 107 -56 107q-48 0 -121 -86q-5 -5 -11 -3.5t-10.5 8t-0.5 11.5zM223 975 l80 491q7 13 101 26q82 11 75 -3l-233 -518q-1 -4 -7 -4t-11.5 2.5t-4.5 5.5z" />
<glyph unicode="&#xee;" horiz-adv-x="532" d="M-6 645q62 85 118 124.5t117 39.5q129 0 129 -170l-8 -457q-3 -104 51 -104q23 0 48.5 19.5t64.5 60.5q5 4 11.5 2t11.5 -8.5t2 -10.5q-64 -83 -113.5 -121t-110.5 -38q-137 0 -131 188l9 438q3 107 -56 107q-48 0 -121 -86q-5 -5 -11 -3.5t-10.5 8t-0.5 11.5zM92 977 l146 510q3 11 19.5 11t18.5 -11l144 -510q1 -3 -4 -4q-16 -5 -21 2l-137 252l-143 -256q-3 -6 -13 -2.5t-10 8.5z" />
<glyph unicode="&#xef;" horiz-adv-x="532" d="M-6 645q62 85 118 124.5t117 39.5q129 0 129 -170l-8 -457q-3 -104 51 -104q23 0 48.5 19.5t64.5 60.5q5 4 11.5 2t11.5 -8.5t2 -10.5q-64 -83 -113.5 -121t-110.5 -38q-137 0 -131 188l9 438q3 107 -56 107q-48 0 -121 -86q-5 -5 -11 -3.5t-10.5 8t-0.5 11.5zM0 1063 q0 46 27.5 72t76.5 26q46 0 73.5 -26.5t27.5 -71.5q0 -49 -27 -75.5t-74 -26.5q-50 0 -77 26.5t-27 75.5zM303 1063q0 46 28 72t75 26t73.5 -26t26.5 -72q0 -49 -26 -75.5t-74 -26.5t-75.5 26.5t-27.5 75.5z" />
<glyph unicode="&#xf0;" horiz-adv-x="880" d="M43 383q1 106 40 192t100.5 137t131 78t138.5 27q67 0 137 -31q-53 176 -150 347l-254 -119q-8 -4 -16.5 6.5t-10.5 22t5 16.5l250 117q-125 196 -258 282q-11 6 11 20q18 11 28 7q179 -84 327 -256l207 96q6 3 14.5 -7.5t11 -21.5t-4.5 -16l-193 -92q132 -163 208 -360 t75 -384q0 -115 -34 -206t-92.5 -148t-133.5 -87t-160 -30q-116 0 -203.5 57t-131 149.5t-42.5 203.5zM229 440q4 -113 36 -209.5t86.5 -154.5t119.5 -58q92 0 139.5 96.5t40.5 301.5q-6 179 -57 269.5t-164 90.5q-90 0 -148.5 -90.5t-52.5 -245.5z" />
<glyph unicode="&#xf1;" horiz-adv-x="1040" d="M-11 634q-3 6 1 11q62 86 117 125t116 39q66 0 95.5 -42t31.5 -128v-223q42 191 127.5 296t204.5 105q190 0 190 -270l-2 -365q-3 -104 52 -104q23 0 47.5 19t64.5 61q5 4 11.5 2t11.5 -8.5t2 -10.5q-64 -84 -113 -121.5t-110 -37.5q-68 0 -99.5 46.5t-29.5 141.5l2 338 q0 205 -107 205q-106 0 -179.5 -180t-74.5 -496v-17q0 -36 -100 -36q-61 0 -70 14q0 2 1.5 26t3 60t1.5 68l2 456q0 107 -55 107q-44 0 -121 -86q-4 -6 -11 -3.5t-10 8.5zM225 983q16 30 27.5 49t34 47t50 43t58.5 15q25 0 116.5 -26t141.5 -26q40 0 64 13t49 43q1 2 6 0 t8.5 -6.5t1.5 -8.5q-43 -90 -76 -120.5t-81 -30.5q-38 0 -130 24.5t-141 24.5q-15 0 -26.5 -1t-21 -4t-15 -5t-14 -9t-11 -9.5t-12 -13t-12.5 -13.5q-1 -2 -5.5 0.5t-8.5 6.5t-3 7z" />
<glyph unicode="&#xf2;" horiz-adv-x="888" d="M53 389q5 188 120.5 308t293.5 120q174 0 273.5 -114t97.5 -300q-2 -102 -37.5 -185.5t-93.5 -136.5t-131.5 -81.5t-153.5 -28.5q-116 0 -201 57.5t-126.5 151t-41.5 209.5zM227 477q2 -184 77 -319t183 -135q81 0 128 78t49 214q1 118 -32.5 222t-94.5 167.5t-134 63.5 q-79 0 -127.5 -74.5t-48.5 -216.5zM244 1489q-6 17 58 11q78 -8 106 -27q6 -3 6 -7l51 -491q1 -3 -3 -5t-8.5 -1.5t-4.5 4.5z" />
<glyph unicode="&#xf3;" horiz-adv-x="888" d="M53 389q5 188 120.5 308t293.5 120q174 0 273.5 -114t97.5 -300q-2 -102 -37.5 -185.5t-93.5 -136.5t-131.5 -81.5t-153.5 -28.5q-116 0 -201 57.5t-126.5 151t-41.5 209.5zM227 477q2 -184 77 -319t183 -135q81 0 128 78t49 214q1 118 -32.5 222t-94.5 167.5t-134 63.5 q-79 0 -127.5 -74.5t-48.5 -216.5zM401 975l80 491q3 17 89 29q85 12 88 -3q0 -1 -1 -3l-231 -520q-3 -4 -9 -3.5t-11.5 3.5t-4.5 6z" />
<glyph unicode="&#xf4;" horiz-adv-x="888" d="M53 389q5 188 120.5 308t293.5 120q174 0 273.5 -114t97.5 -300q-2 -102 -37.5 -185.5t-93.5 -136.5t-131.5 -81.5t-153.5 -28.5q-116 0 -201 57.5t-126.5 151t-41.5 209.5zM227 477q2 -184 77 -319t183 -135q81 0 128 78t49 214q1 118 -32.5 222t-94.5 167.5t-134 63.5 q-79 0 -127.5 -74.5t-48.5 -216.5zM285 977l145 510q3 11 20.5 11t18.5 -11l143 -510q1 -3 -4 -4.5t-11.5 -1t-8.5 3.5l-137 252l-144 -256q-3 -6 -12.5 -2.5t-9.5 8.5z" />
<glyph unicode="&#xf5;" horiz-adv-x="888" d="M53 389q5 188 120.5 308t293.5 120q174 0 273.5 -114t97.5 -300q-2 -102 -37.5 -185.5t-93.5 -136.5t-131.5 -81.5t-153.5 -28.5q-116 0 -201 57.5t-126.5 151t-41.5 209.5zM162 983q16 30 27.5 49t34 47t50 43t58.5 15q25 0 116.5 -26t141.5 -26q40 0 63.5 13t48.5 43 q1 2 6 0t9 -6.5t2 -8.5q-43 -90 -76 -120.5t-82 -30.5q-38 0 -129.5 24.5t-140.5 24.5q-15 0 -26 -1t-21.5 -4.5t-15.5 -4.5t-14 -9t-11 -9.5t-12.5 -13t-12.5 -13.5q-1 -2 -5.5 0.5t-8 6.5t-2.5 7zM227 477q2 -184 77 -319t183 -135q81 0 128 78t49 214q1 118 -32.5 222 t-94.5 167.5t-134 63.5q-79 0 -127.5 -74.5t-48.5 -216.5z" />
<glyph unicode="&#xf6;" horiz-adv-x="888" d="M53 389q5 188 120.5 308t293.5 120q174 0 273.5 -114t97.5 -300q-2 -102 -37.5 -185.5t-93.5 -136.5t-131.5 -81.5t-153.5 -28.5q-116 0 -201 57.5t-126.5 151t-41.5 209.5zM166 1063q0 46 27.5 72t76.5 26q46 0 72.5 -26t26.5 -72q0 -49 -26.5 -75.5t-72.5 -26.5 q-50 0 -77 26.5t-27 75.5zM227 477q2 -184 77 -319t183 -135q81 0 128 78t49 214q1 118 -32.5 222t-94.5 167.5t-134 63.5q-79 0 -127.5 -74.5t-48.5 -216.5zM510 1063q0 45 27 70.5t75 25.5q47 0 73 -25t26 -71q0 -49 -26 -75.5t-73 -26.5q-48 0 -75 26.5t-27 75.5z" />
<glyph unicode="&#xf7;" horiz-adv-x="815" d="M61.5 410.5q1.5 23.5 6.5 23.5h677q9 0 9 -47t-9 -47h-675q-6 0 -8 23.5t-0.5 47zM299 90q0 50 30.5 78.5t82.5 28.5t81 -28.5t29 -78.5q0 -53 -29 -83t-81 -30t-82.5 30.5t-30.5 82.5zM299 698q0 50 30.5 78.5t82.5 28.5t81 -28.5t29 -78.5q0 -53 -29 -82.5t-81 -29.5 q-53 0 -83 30t-30 82z" />
<glyph unicode="&#xf8;" horiz-adv-x="888" d="M53 389q5 188 120.5 308t293.5 120q129 0 217 -63l53 67q3 4 14.5 -1.5t20.5 -14t6 -12.5l-55 -72q118 -112 115 -318q-2 -102 -37.5 -185.5t-93.5 -136.5t-131.5 -81.5t-153.5 -28.5q-136 0 -232 80l-67 -86q-5 -5 -24 11.5t-13 23.5l70 86q-103 118 -103 303zM227 477 q0 -128 43 -246l318 402q-35 63 -83 99t-102 36q-79 0 -127.5 -74.5t-48.5 -216.5zM293 180q77 -157 194 -157q81 0 128 78t49 214q0 149 -52 269z" />
<glyph unicode="&#xf9;" horiz-adv-x="1040" d="M-10 649q61 82 112 121t111 39q133 0 127 -188l-8 -338q-3 -205 104 -205q106 0 178.5 175t75.5 478v39q0 37 101 37q64 0 69 -14q1 -4 0 -26.5t-2.5 -60t-1.5 -67.5l-2 -457q0 -106 55 -106q48 0 119 86q5 4 11.5 2t11 -8.5t0.5 -10.5q-63 -86 -117.5 -124.5 t-114.5 -38.5q-67 0 -98 43t-33 127v213q-42 -187 -126.5 -289.5t-203.5 -102.5q-99 0 -146 71t-44 200l8 364q3 105 -51 105q-38 0 -113 -82q-8 -6 -18 2.5t-4 15.5zM311 1489q-6 17 58 11q78 -8 106 -27q6 -3 6 -7l51 -491q1 -3 -3 -5t-8.5 -1.5t-4.5 4.5z" />
<glyph unicode="&#xfa;" horiz-adv-x="1040" d="M-10 649q61 82 112 121t111 39q133 0 127 -188l-8 -338q-3 -205 104 -205q106 0 178.5 175t75.5 478v39q0 37 101 37q64 0 69 -14q1 -4 0 -26.5t-2.5 -60t-1.5 -67.5l-2 -457q0 -106 55 -106q48 0 119 86q5 4 11.5 2t11 -8.5t0.5 -10.5q-63 -86 -117.5 -124.5 t-114.5 -38.5q-67 0 -98 43t-33 127v213q-42 -187 -126.5 -289.5t-203.5 -102.5q-99 0 -146 71t-44 200l8 364q3 105 -51 105q-38 0 -113 -82q-8 -6 -18 2.5t-4 15.5zM469 975l80 491q3 17 89 29q85 12 88 -3q0 -1 -1 -3l-231 -520q-3 -4 -9 -3.5t-11.5 3.5t-4.5 6z" />
<glyph unicode="&#xfb;" horiz-adv-x="1040" d="M-10 649q61 82 112 121t111 39q133 0 127 -188l-8 -338q-3 -205 104 -205q106 0 178.5 175t75.5 478v39q0 37 101 37q64 0 69 -14q1 -4 0 -26.5t-2.5 -60t-1.5 -67.5l-2 -457q0 -106 55 -106q48 0 119 86q5 4 11.5 2t11 -8.5t0.5 -10.5q-63 -86 -117.5 -124.5 t-114.5 -38.5q-67 0 -98 43t-33 127v213q-42 -187 -126.5 -289.5t-203.5 -102.5q-99 0 -146 71t-44 200l8 364q3 105 -51 105q-38 0 -113 -82q-8 -6 -18 2.5t-4 15.5zM352 977l146 510q3 11 20.5 11t18.5 -11l143 -510q1 -3 -4 -4q-15 -4 -21 2l-137 252l-143 -256 q-3 -6 -13 -2.5t-10 8.5z" />
<glyph unicode="&#xfc;" horiz-adv-x="1040" d="M-10 649q61 82 112 121t111 39q133 0 127 -188l-8 -338q-3 -205 104 -205q106 0 178.5 175t75.5 478v39q0 37 101 37q64 0 69 -14q1 -4 0 -26.5t-2.5 -60t-1.5 -67.5l-2 -457q0 -106 55 -106q48 0 119 86q5 4 11.5 2t11 -8.5t0.5 -10.5q-63 -86 -117.5 -124.5 t-114.5 -38.5q-67 0 -98 43t-33 127v213q-42 -187 -126.5 -289.5t-203.5 -102.5q-99 0 -146 71t-44 200l8 364q3 105 -51 105q-38 0 -113 -82q-8 -6 -18 2.5t-4 15.5zM233 1063q0 46 28 72t77 26q46 0 72 -26t26 -72q0 -49 -26 -75.5t-72 -26.5q-50 0 -77.5 26.5t-27.5 75.5 zM578 1063q0 45 27 70.5t75 25.5q47 0 72.5 -25t25.5 -71q0 -49 -25.5 -75.5t-72.5 -26.5q-48 0 -75 26.5t-27 75.5z" />
<glyph unicode="&#xfd;" horiz-adv-x="980" d="M-12 649q61 82 112 121t111 39q64 0 98 -46.5t31 -141.5l-10 -338q-3 -205 106 -205q100 0 171.5 167t80.5 453v80q0 12 24 20.5t64 8.5q83 0 86 -12q0 -48 -6 -156l-4 -782q-3 -194 -110 -313t-293 -119q-122 0 -203 45t-76 110q0 47 23.5 68.5t58.5 21.5q36 0 59.5 -21 t38.5 -50.5t33 -59t54 -50.5t91 -21q35 0 61.5 14.5t49 50t34.5 104.5t11 170l2 549q-43 -183 -128 -283t-202 -100q-94 0 -143.5 67t-46.5 204l8 364q3 105 -51 105q-41 0 -113 -82q-8 -6 -18 2.5t-4 15.5zM469 975l80 491q3 17 89 29q85 12 88 -3q0 -1 -1 -3l-231 -520 q-3 -4 -9 -3.5t-11.5 3.5t-4.5 6z" />
<glyph unicode="&#xfe;" horiz-adv-x="899" d="M-46.5 1328.5q0.5 6.5 5.5 10.5l303 146q6 3 16.5 -4.5t10.5 -12.5v-725q134 62 258 62q137 0 209.5 -78.5t72.5 -228.5q0 -137 -56.5 -250.5t-161 -181.5t-236.5 -68q-22 0 -88 4v-367q0 -81 26.5 -103t110.5 -11q5 1 8 -5t2.5 -12.5t-6.5 -7.5l-401 -59q-5 -1 -8 4.5 t-3 12t4 7.5q64 10 79.5 37.5t17.5 122.5l4 979q-47 -30 -101 -72q-5 -4 -11.5 0.5t-8.5 11t2 11.5q56 50 121 94l2 582q2 90 -32.5 109.5t-123.5 -21.5q-6 -3 -11 2t-4.5 11.5zM287 90q88 -31 155 -31q123 0 173.5 84t50.5 244q0 74 -11 130t-36.5 102t-73 70t-115.5 24 t-141 -25z" />
<glyph unicode="&#xff;" horiz-adv-x="980" d="M-12 649q61 82 112 121t111 39q64 0 98 -46.5t31 -141.5l-10 -338q-3 -205 106 -205q100 0 171.5 167t80.5 453v80q0 12 24 20.5t64 8.5q83 0 86 -12q0 -48 -6 -156l-4 -782q-3 -194 -110 -313t-293 -119q-122 0 -203 45t-76 110q0 47 23.5 68.5t58.5 21.5q36 0 59.5 -21 t38.5 -50.5t33 -59t54 -50.5t91 -21q35 0 61.5 14.5t49 50t34.5 104.5t11 170l2 549q-43 -183 -128 -283t-202 -100q-94 0 -143.5 67t-46.5 204l8 364q3 105 -51 105q-41 0 -113 -82q-8 -6 -18 2.5t-4 15.5zM233 1063q0 46 28 72t77 26q46 0 72 -26t26 -72q0 -49 -26 -75.5 t-72 -26.5q-50 0 -77.5 26.5t-27.5 75.5zM578 1063q0 45 27 70.5t75 25.5q47 0 72.5 -25t25.5 -71q0 -49 -25.5 -75.5t-72.5 -26.5q-48 0 -75 26.5t-27 75.5z" />
<glyph unicode="&#x152;" horiz-adv-x="1820" d="M78 629q1 146 60 270.5t158 208t229.5 130t273.5 46.5q36 0 139.5 -2t151.5 -2h569q16 0 16 -18q4 -156 4 -269q0 -5 -6 -6.5t-12 0t-6 4.5q-51 248 -256 248h-68q-52 0 -79 -4t-43 -19.5t-19.5 -37t-5.5 -66.5v-420h221q98 0 142.5 35t45.5 117q1 9 15 9t14 -9 q0 -47 -2 -102t-2 -76q0 -33 3 -98t3 -105q0 -9 -13.5 -9t-13.5 9q0 176 -198 176h-215v-465q2 -87 28.5 -112t116.5 -25h94q111 0 178 70.5t117 211.5q2 4 9 4t13 -2.5t5 -5.5q-16 -104 -16 -284q0 -17 -7 -24t-26 -7h-594q-47 0 -143.5 -4t-131.5 -4q-164 0 -304.5 49 t-237.5 134t-152 202.5t-55 251.5zM295 674q0 -183 64 -330t180.5 -231t263.5 -84q59 0 90 3.5t57.5 17.5t35 42t7.5 76l-4 919q-5 92 -37 125t-131 33q-240 0 -383 -147.5t-143 -423.5z" />
<glyph unicode="&#x153;" horiz-adv-x="1347" d="M45 389q3 188 118.5 308t293.5 120q103 0 179 -42t120 -116q134 158 344 158q88 0 137.5 -28.5t52.5 -81.5q3 -62 -64.5 -119.5t-172 -97t-228.5 -60.5q6 -163 82.5 -268t210.5 -105q118 0 201 66q6 5 14 -3t2 -14q-131 -131 -317 -131q-192 0 -295 142 q-58 -71 -140 -108.5t-173 -37.5q-87 0 -157.5 34t-115.5 91.5t-69 133t-23 159.5zM219 477q1 -118 34 -221.5t93 -168t133 -64.5q76 0 121 75.5t47 206.5q1 117 -29.5 222t-90 173t-134.5 68q-81 0 -127.5 -75.5t-46.5 -215.5zM825 461q129 27 200 74.5t71 128.5 q1 46 -25.5 72t-71.5 26q-85 0 -128.5 -83.5t-45.5 -217.5z" />
<glyph unicode="&#x178;" horiz-adv-x="1175" d="M-23.5 1274q1.5 6 5.5 6q30 0 98 -3t100 -3q48 0 140.5 3t117.5 3q5 0 6 -6t-2 -12.5t-8 -6.5q-76 0 -94 -17.5t14 -63.5l312 -480l204 383q41 77 15.5 127.5t-107.5 50.5q-8 0 -8 12.5t8 12.5q32 0 116 -3t136 -3q32 0 78 3t72 3q9 0 9 -12.5t-9 -12.5q-139 0 -262 -213 l-224 -403v-473q0 -90 29 -115.5t135 -25.5q8 0 8 -12.5t-8 -12.5q-31 0 -117 2t-141 2q-57 0 -145.5 -2t-120.5 -2q-8 0 -8.5 12.5t8.5 12.5q108 0 139.5 26t30.5 115l-2 448l-328 496q-51 77 -94.5 111t-95.5 34q-5 0 -7 6.5t-0.5 12.5zM322 1552q0 46 27.5 72.5 t76.5 26.5q46 0 72 -26.5t26 -72.5q0 -49 -26 -75.5t-72 -26.5q-50 0 -77 26.5t-27 75.5zM666 1552q0 46 27.5 71.5t74.5 25.5t72.5 -25.5t25.5 -71.5q0 -49 -25.5 -75.5t-72.5 -26.5q-48 0 -75 26.5t-27 75.5z" />
<glyph unicode="&#x2c6;" horiz-adv-x="489" d="M94 979l148 510q3 11 19.5 11t17.5 -11l145 -510q1 -4 -4.5 -6t-11.5 -1t-7 5l-139 252l-143 -258q-3 -5 -14 -1.5t-11 9.5z" />
<glyph unicode="&#x2dc;" horiz-adv-x="559" d="M0 983q16 30 27.5 49t34 47t50 43t58.5 15q25 0 116.5 -26t141.5 -26q40 0 64 13t49 43q1 2 6 0t8.5 -6.5t1.5 -8.5q-43 -90 -76 -120.5t-82 -30.5q-38 0 -129.5 24.5t-140.5 24.5q-15 0 -26 -1t-21.5 -4.5t-15.5 -4.5t-14 -9t-11 -9.5t-12.5 -13t-12.5 -13.5 q-1 -2 -5.5 0.5t-8 6.5t-2.5 7z" />
<glyph unicode="&#x2000;" horiz-adv-x="837" />
<glyph unicode="&#x2001;" horiz-adv-x="1675" />
<glyph unicode="&#x2002;" horiz-adv-x="837" />
<glyph unicode="&#x2003;" horiz-adv-x="1675" />
<glyph unicode="&#x2004;" horiz-adv-x="558" />
<glyph unicode="&#x2005;" horiz-adv-x="418" />
<glyph unicode="&#x2006;" horiz-adv-x="279" />
<glyph unicode="&#x2007;" horiz-adv-x="279" />
<glyph unicode="&#x2008;" horiz-adv-x="209" />
<glyph unicode="&#x2009;" horiz-adv-x="335" />
<glyph unicode="&#x200a;" horiz-adv-x="93" />
<glyph unicode="&#x2010;" horiz-adv-x="577" d="M56 412.5q1 26.5 5 27.5l439 72q6 1 8 -24.5t0 -52t-8 -27.5l-434 -72q-6 -1 -8.5 24.5t-1.5 52z" />
<glyph unicode="&#x2011;" horiz-adv-x="577" d="M56 412.5q1 26.5 5 27.5l439 72q6 1 8 -24.5t0 -52t-8 -27.5l-434 -72q-6 -1 -8.5 24.5t-1.5 52z" />
<glyph unicode="&#x2012;" horiz-adv-x="577" d="M56 412.5q1 26.5 5 27.5l439 72q6 1 8 -24.5t0 -52t-8 -27.5l-434 -72q-6 -1 -8.5 24.5t-1.5 52z" />
<glyph unicode="&#x2013;" horiz-adv-x="815" d="M61.5 410.5q1.5 23.5 6.5 23.5h677q9 0 9 -47t-9 -47h-675q-6 0 -8 23.5t-0.5 47z" />
<glyph unicode="&#x2014;" horiz-adv-x="1294" d="M61.5 410.5q1.5 23.5 6.5 23.5h1157q9 0 9 -47t-9 -47h-1155q-6 0 -8 23.5t-0.5 47z" />
<glyph unicode="&#x2018;" horiz-adv-x="370" d="M53 1014q0 89 40 164.5t118 152.5q5 4 10.5 2t7 -7t-1.5 -9q-100 -103 -100 -242q0 -57 20 -84q19 31 72 31q44 0 71 -28t27 -74q0 -52 -31 -80.5t-87 -28.5q-68 0 -107 53t-39 150z" />
<glyph unicode="&#x2019;" horiz-adv-x="370" d="M53 1180q0 52 31.5 80t87.5 28q68 0 106.5 -53t38.5 -150q0 -90 -39.5 -165.5t-117.5 -151.5q-5 -4 -11 -2t-7.5 7t1.5 9q101 104 101 242q0 56 -21 84q-19 -31 -71 -31q-44 0 -71.5 28.5t-27.5 74.5z" />
<glyph unicode="&#x201a;" horiz-adv-x="370" d="M53 86q0 52 31.5 80.5t87.5 28.5q68 0 106.5 -53t38.5 -150q0 -90 -39.5 -166t-117.5 -152q-5 -4 -11 -1.5t-7.5 7.5t1.5 9q101 104 101 241q0 56 -21 84q-18 -30 -71 -30q-44 0 -71.5 28t-27.5 74z" />
<glyph unicode="&#x201c;" horiz-adv-x="688" d="M35 1014q0 89 40 164.5t118 152.5q5 4 10.5 2t7 -7t-1.5 -9q-100 -103 -100 -242q0 -57 20 -84q19 31 72 31q44 0 71 -28t27 -74q0 -52 -31.5 -80.5t-87.5 -28.5q-68 0 -106.5 53t-38.5 150zM371 1014q0 90 39.5 165.5t117.5 151.5q5 4 11 2t7.5 -7t-1.5 -9 q-101 -104 -101 -242q0 -56 21 -84q19 31 72 31q44 0 71 -28t27 -74q0 -52 -31.5 -80.5t-87.5 -28.5q-68 0 -106.5 53t-38.5 150z" />
<glyph unicode="&#x201d;" horiz-adv-x="706" d="M53 1182q0 52 31.5 80t87.5 28q68 0 106.5 -53t38.5 -150q0 -90 -39.5 -165.5t-117.5 -151.5q-5 -4 -11 -2t-7.5 7t1.5 9q101 104 101 242q0 56 -21 84q-19 -31 -71 -31q-44 0 -71.5 28.5t-27.5 74.5zM389 1182q0 52 31.5 80t87.5 28q68 0 106.5 -53t38.5 -150 q0 -90 -39.5 -165.5t-117.5 -151.5q-5 -4 -11 -2t-7.5 7t1.5 9q101 104 101 242q0 56 -21 84q-19 -31 -72 -31q-44 0 -71 28.5t-27 74.5z" />
<glyph unicode="&#x201e;" horiz-adv-x="706" d="M53 86q0 52 31.5 80.5t87.5 28.5q68 0 106.5 -53t38.5 -150q0 -90 -39.5 -166t-117.5 -152q-5 -4 -11 -1.5t-7.5 7.5t1.5 9q101 104 101 241q0 56 -21 84q-18 -30 -71 -30q-44 0 -71.5 28t-27.5 74zM389 86q0 52 31.5 80.5t87.5 28.5q68 0 106.5 -53t38.5 -150 q0 -90 -39.5 -166t-117.5 -152q-5 -4 -11 -1.5t-7.5 7.5t1.5 9q101 104 101 241q0 56 -21 84q-18 -30 -72 -30q-44 0 -71 28t-27 74z" />
<glyph unicode="&#x2022;" horiz-adv-x="616" d="M119 408q0 77 55.5 131.5t134.5 54.5q77 0 132 -55t55 -131q0 -79 -55 -135t-132 -56q-79 0 -134.5 55.5t-55.5 135.5z" />
<glyph unicode="&#x2026;" horiz-adv-x="1376" d="M98 90q0 50 30.5 78.5t82.5 28.5t81.5 -28.5t29.5 -78.5q0 -53 -29.5 -83t-81.5 -30q-53 0 -83 30.5t-30 82.5zM578 90q0 50 30 78.5t82 28.5t81.5 -28.5t29.5 -78.5q0 -53 -29.5 -83t-81.5 -30t-82 30t-30 83zM1057 90q0 50 30 78.5t82 28.5t81.5 -28.5t29.5 -78.5 q0 -53 -29.5 -83t-81.5 -30t-82 30t-30 83z" />
<glyph unicode="&#x202f;" horiz-adv-x="335" />
<glyph unicode="&#x2039;" horiz-adv-x="622" d="M104 410.5q0 14.5 9 23.5l376 305q6 8 14 -2q4 -5 1 -8l-209 -317l209 -318q2 -3 -0.5 -7.5t-7 -6t-7.5 1.5l-376 305q-9 9 -9 23.5z" />
<glyph unicode="&#x203a;" horiz-adv-x="622" d="M119 85.5q-2 4.5 0 8.5l209 316l-209 319q-2 4 4 9.5t10 0.5l377 -305q9 -9 9 -23.5t-9 -23.5l-377 -305q-3 -4 -7.5 -2.5t-6.5 6z" />
<glyph unicode="&#x205f;" horiz-adv-x="418" />
<glyph unicode="&#x20ac;" horiz-adv-x="1202" d="M80 387q0 27 14 27h88q-4 50 -4 69v29h-84q-14 0 -14 27.5t14 27.5h92q32 183 191.5 299.5t382.5 116.5q198 0 301 -68q10 -6 14 -8t10 -7t7.5 -9t1.5 -10.5t-4 -14.5l-82 -188q-2 -3 -7 -3t-10 3.5t-4 7.5q10 107 -70 183.5t-200 76.5q-135 0 -228.5 -106.5 t-107.5 -272.5h580q15 0 4 -27q-12 -27 -27 -28h-559q0 -49 6 -98h520q14 0 3 -27q-12 -26 -25 -27h-488q16 -72 45.5 -133.5t72 -111t102.5 -77.5t130 -28q225 0 342 254q3 6 14 4t11 -8l-29 -192q-3 -18 -7 -24t-21 -13q-163 -56 -330 -56q-120 0 -216.5 33t-159 90 t-100.5 122t-56 140h-99q-14 0 -14 27z" />
<glyph unicode="&#x2122;" horiz-adv-x="1499" d="M59 1124q13 72 13 181q0 6 12 6.5t12 -6.5q0 -23 56 -23q23 0 85.5 -1t98.5 -1q43 0 95 1t69 1q41 0 59.5 5t22.5 24q2 5 13 5t11 -5q-8 -172 -8 -187q0 -4 -11.5 -4t-11.5 4q0 56 -31 91.5t-79 35.5q-37 0 -48 -13t-11 -56v-379q0 -45 16.5 -59.5t73.5 -14.5q4 0 4 -12 t-4 -12q-19 0 -72.5 1t-87.5 1q-30 0 -83.5 -1t-74.5 -1q-3 0 -3 12t3 12q56 0 74 14.5t18 59.5v381q0 44 -11 55.5t-48 11.5q-52 0 -86 -33t-41 -94q0 -4 -12.5 -4t-12.5 4zM632 717q0 12 3 12q95 0 98 102l12 363q-39 61 -98 61q-5 0 -5 12.5t5 12.5q9 0 40 -2t38 -2 q11 0 42.5 2t35.5 2q18 0 32 -12.5t33 -50.5l187 -363l170 393q4 14 16 23.5t23 9.5q1 0 25 -2t42 -2q23 0 52.5 2t43.5 2q3 0 3 -12.5t-3 -12.5q-47 0 -67 -16.5t-19 -67.5l13 -368q2 -46 16 -60t64 -14q4 0 4 -12t-4 -12q-18 0 -66.5 1t-75.5 1q-31 0 -78 -1t-63 -1 q-5 0 -5 12t5 12q52 0 68 14.5t14 59.5l-12 340l-187 -428q-3 -7 -19.5 -7t-19.5 7l-211 405l-10 -289q-6 -102 68 -102q3 0 3 -12t-3 -12q-12 0 -43.5 1t-53.5 1l-110 -2q-3 0 -3 12z" />
<glyph unicode="&#x25fc;" horiz-adv-x="808" d="M0 0v809h809v-809h-809z" />
</font>
</defs>
</svg>
